<svg width="103" height="79" viewBox="0 0 103 79" fill="none" xmlns="http://www.w3.org/2000/svg">
<path d="M64.6345 27.5C64.3584 27.4962 64.1314 27.7169 64.1276 27.993C64.1237 28.2691 64.3444 28.4961 64.6205 28.5L64.6345 27.5ZM73.7889 30.987L73.4069 31.3096L73.7889 30.987ZM76.1241 37.0975H76.6241V37.0825L76.6232 37.0674L76.1241 37.0975ZM74.6389 45.1622L74.9886 45.5196L74.6389 45.1622ZM68.9861 46.4381L69.2058 45.9889L68.9861 46.4381ZM68.4198 40.909L68.0422 40.5813L68.4198 40.909ZM78.5525 37.9317L78.8133 37.5051L78.5525 37.9317ZM88.4191 38.0737L88.2601 38.5477L88.4191 38.0737ZM92.7201 44.3519C92.9773 44.4524 93.2673 44.3254 93.3677 44.0681L95.0052 39.8766C95.1057 39.6194 94.9786 39.3295 94.7214 39.229C94.4642 39.1285 94.1742 39.2555 94.0738 39.5128L92.6182 43.2385L88.8925 41.783C88.6352 41.6825 88.3453 41.8096 88.2448 42.0668C88.1443 42.324 88.2714 42.614 88.5286 42.7145L92.7201 44.3519ZM65.4557 28.5108C65.7318 28.5147 65.9588 28.294 65.9627 28.0179C65.9666 27.7418 65.7459 27.5148 65.4698 27.5109L65.4557 28.5108ZM67.1584 27.5601C66.8827 27.5453 66.6472 27.7569 66.6324 28.0326C66.6177 28.3084 66.8292 28.5439 67.105 28.5586L67.1584 27.5601ZM68.7144 28.7188C68.9871 28.762 69.2432 28.576 69.2865 28.3033C69.3297 28.0305 69.1437 27.7744 68.8709 27.7311L68.7144 28.7188ZM70.5763 28.1482C70.3154 28.0578 70.0306 28.1961 69.9402 28.457C69.8498 28.7179 69.988 29.0027 70.2489 29.0931L70.5763 28.1482ZM71.6514 29.7608C71.8854 29.9073 72.1939 29.8364 72.3405 29.6023C72.487 29.3682 72.416 29.0597 72.182 28.9132L71.6514 29.7608ZM73.5721 30.0169C73.3752 29.8233 73.0587 29.8258 72.865 30.0227C72.6713 30.2195 72.6739 30.5361 72.8707 30.7298L73.5721 30.0169ZM73.9058 31.9377C74.0701 32.1597 74.3832 32.2065 74.6052 32.0422C74.8272 31.878 74.874 31.5649 74.7097 31.3429L73.9058 31.9377ZM75.6265 32.8439C75.506 32.5954 75.207 32.4916 74.9585 32.6121C74.71 32.7325 74.6062 33.0316 74.7266 33.2801L75.6265 32.8439ZM75.2678 34.7538C75.3384 35.0208 75.612 35.18 75.879 35.1094C76.146 35.0388 76.3052 34.7652 76.2346 34.4982L75.2678 34.7538ZM76.5491 36.2092C76.5177 35.9349 76.2699 35.7379 75.9956 35.7692C75.7212 35.8006 75.5242 36.0484 75.5556 36.3228L76.5491 36.2092ZM75.6595 38.1986C75.6762 38.4743 75.9132 38.6842 76.1889 38.6675C76.4645 38.6508 76.6744 38.4138 76.6577 38.1381L75.6595 38.1986ZM76.8312 40.2686C76.8124 39.9931 76.5738 39.785 76.2983 39.8038C76.0228 39.8226 75.8147 40.0612 75.8335 40.3367L76.8312 40.2686ZM75.7541 42.3315C75.697 42.6017 75.8698 42.867 76.1399 42.9241C76.4101 42.9812 76.6754 42.8085 76.7325 42.5383L75.7541 42.3315ZM75.7493 44.6614C75.9154 44.4408 75.8712 44.1273 75.6506 43.9612C75.43 43.7951 75.1165 43.8393 74.9504 44.0599L75.7493 44.6614ZM73.7329 45.3228C73.525 45.5045 73.5037 45.8204 73.6854 46.0283C73.8672 46.2362 74.183 46.2575 74.391 46.0757L73.7329 45.3228ZM72.9968 47.0462C73.2436 46.9223 73.3432 46.6218 73.2193 46.375C73.0954 46.1282 72.7949 46.0286 72.5481 46.1525L72.9968 47.0462ZM71.2426 46.4981C70.9666 46.5078 70.7508 46.7394 70.7605 47.0154C70.7702 47.2914 71.0018 47.5072 71.2778 47.4975L71.2426 46.4981ZM69.5495 47.2155C69.8105 47.3058 70.0952 47.1675 70.1855 46.9065C70.2759 46.6456 70.1376 46.3608 69.8766 46.2705L69.5495 47.2155ZM68.5769 45.1127C68.4875 44.8514 68.2032 44.7121 67.942 44.8015C67.6807 44.8909 67.5414 45.1752 67.6308 45.4365L68.5769 45.1127ZM67.4338 42.2297C67.3909 42.5025 67.5773 42.7584 67.8501 42.8013C68.1229 42.8441 68.3788 42.6578 68.4216 42.385L67.4338 42.2297ZM69.4205 40.5785C69.6186 40.3861 69.6233 40.0696 69.4309 39.8714C69.2386 39.6733 68.922 39.6686 68.7239 39.861L69.4205 40.5785ZM70.2501 38.6029C70.0236 38.7608 69.9681 39.0725 70.126 39.299C70.284 39.5255 70.5957 39.5811 70.8222 39.4231L70.2501 38.6029ZM72.3898 38.5115C72.6395 38.3935 72.7462 38.0955 72.6282 37.8458C72.5102 37.5961 72.2121 37.4894 71.9625 37.6074L72.3898 38.5115ZM73.8384 36.9303C73.5704 36.9971 73.4074 37.2685 73.4742 37.5364C73.541 37.8043 73.8124 37.9674 74.0803 37.9006L73.8384 36.9303ZM75.8328 37.6848C76.1089 37.6884 76.3356 37.4675 76.3393 37.1914C76.3429 36.9153 76.122 36.6885 75.8459 36.6849L75.8328 37.6848ZM77.8731 37.0492C77.6142 36.9532 77.3265 37.0852 77.2305 37.3441C77.1344 37.603 77.2665 37.8907 77.5254 37.9868L77.8731 37.0492ZM79.1114 38.7769C79.3665 38.8827 79.6591 38.7617 79.7648 38.5066C79.8706 38.2515 79.7496 37.959 79.4945 37.8532L79.1114 38.7769ZM80.9742 38.2022C80.6989 38.1807 80.4583 38.3864 80.4367 38.6617C80.4152 38.937 80.6209 39.1776 80.8962 39.1992L80.9742 38.2022ZM82.6847 39.1252C82.9581 39.0868 83.1486 38.8339 83.1102 38.5605C83.0717 38.287 82.8188 38.0965 82.5454 38.135L82.6847 39.1252ZM84.1591 37.8214C83.8897 37.8819 83.7203 38.1493 83.7808 38.4188C83.8412 38.6882 84.1087 38.8576 84.3781 38.7972L84.1591 37.8214ZM85.997 38.465C86.2697 38.422 86.456 38.1659 86.4129 37.8932C86.3699 37.6204 86.1139 37.4342 85.8411 37.4772L85.997 38.465ZM87.6507 37.3995C87.3761 37.3699 87.1295 37.5685 87.0999 37.843C87.0703 38.1176 87.2689 38.3641 87.5434 38.3937L87.6507 37.3995ZM89.0709 38.886C89.3163 39.0126 89.6179 38.9162 89.7444 38.6708C89.871 38.4254 89.7746 38.1238 89.5292 37.9973L89.0709 38.886ZM91.1648 39.3082C90.9888 39.0955 90.6736 39.0658 90.4608 39.2418C90.2481 39.4179 90.2184 39.7331 90.3945 39.9458L91.1648 39.3082ZM91.3154 41.4695C91.4337 41.7191 91.7318 41.8255 91.9814 41.7072C92.2309 41.589 92.3373 41.2908 92.219 41.0413L91.3154 41.4695ZM92.9873 42.8139C92.8803 42.5593 92.5872 42.4396 92.3326 42.5466C92.0781 42.6536 91.9584 42.9467 92.0654 43.2012L92.9873 42.8139ZM64.6205 28.5C64.9192 28.5041 65.1649 28.5068 65.4557 28.5108L65.4698 27.5109C65.2096 27.5073 64.8986 27.5037 64.6345 27.5L64.6205 28.5ZM67.105 28.5586C67.6616 28.5884 68.1972 28.6368 68.7144 28.7188L68.8709 27.7311C68.3094 27.6421 67.7375 27.591 67.1584 27.5601L67.105 28.5586ZM70.2489 29.0931C70.7326 29.2607 71.1996 29.478 71.6514 29.7608L72.182 28.9132C71.6616 28.5874 71.1257 28.3386 70.5763 28.1482L70.2489 29.0931ZM72.8707 30.7298C73.0513 30.9074 73.23 31.1002 73.4069 31.3096L74.1709 30.6643C73.9749 30.4323 73.7753 30.2169 73.5721 30.0169L72.8707 30.7298ZM73.4069 31.3096C73.5826 31.5176 73.749 31.7257 73.9058 31.9377L74.7097 31.3429C74.5379 31.1106 74.3578 30.8856 74.1709 30.6643L73.4069 31.3096ZM74.7266 33.2801C74.9406 33.7216 75.1228 34.2052 75.2678 34.7538L76.2346 34.4982C76.0734 33.8886 75.8691 33.3444 75.6265 32.8439L74.7266 33.2801ZM75.5556 36.3228C75.5848 36.5783 75.608 36.8462 75.625 37.1276L76.6232 37.0674C76.6052 36.7692 76.5805 36.4835 76.5491 36.2092L75.5556 36.3228ZM75.6241 37.0975C75.6241 37.4808 75.6382 37.8474 75.6595 38.1986L76.6577 38.1381C76.6373 37.8021 76.6241 37.4563 76.6241 37.0975H75.6241ZM75.8335 40.3367C75.8836 41.0699 75.8845 41.7146 75.7541 42.3315L76.7325 42.5383C76.8916 41.7858 76.8833 41.0319 76.8312 40.2686L75.8335 40.3367ZM74.9504 44.0599C74.7684 44.3016 74.5504 44.5494 74.2893 44.8047L74.9886 45.5196C75.2818 45.2328 75.5339 44.9474 75.7493 44.6614L74.9504 44.0599ZM74.2893 44.8047C74.1032 44.9868 73.9186 45.1604 73.7329 45.3228L74.391 46.0757C74.5951 45.8973 74.7939 45.71 74.9886 45.5196L74.2893 44.8047ZM72.5481 46.1525C72.1402 46.3573 71.7128 46.4815 71.2426 46.4981L71.2778 47.4975C71.911 47.4752 72.4785 47.3064 72.9968 47.0462L72.5481 46.1525ZM69.8766 46.2705C69.6642 46.197 69.4409 46.104 69.2058 45.9889L68.7664 46.8873C69.0348 47.0185 69.2956 47.1276 69.5495 47.2155L69.8766 46.2705ZM69.2058 45.9889C68.963 45.8702 68.7398 45.5886 68.5769 45.1127L67.6308 45.4365C67.8333 46.0284 68.1818 46.6014 68.7664 46.8873L69.2058 45.9889ZM68.4216 42.385C68.4674 42.0936 68.5297 41.837 68.6011 41.6316C68.6753 41.4183 68.7481 41.2935 68.7974 41.2367L68.0422 40.5813C67.8732 40.776 67.7493 41.0368 67.6566 41.303C67.5612 41.5772 67.4865 41.894 67.4338 42.2297L68.4216 42.385ZM68.7974 41.2367C68.9937 41.0105 69.2019 40.7906 69.4205 40.5785L68.7239 39.861C68.4855 40.0925 68.2576 40.333 68.0422 40.5813L68.7974 41.2367ZM70.8222 39.4231C71.3233 39.0736 71.8503 38.7665 72.3898 38.5115L71.9625 37.6074C71.3704 37.8872 70.7952 38.2227 70.2501 38.6029L70.8222 39.4231ZM74.0803 37.9006C74.6752 37.7522 75.2645 37.6773 75.8328 37.6848L75.8459 36.6849C75.1814 36.6761 74.506 36.7638 73.8384 36.9303L74.0803 37.9006ZM77.5254 37.9868C77.7902 38.085 78.0462 38.2083 78.2917 38.3583L78.8133 37.5051C78.5114 37.3206 78.1971 37.1694 77.8731 37.0492L77.5254 37.9868ZM78.2917 38.3583C78.5638 38.5247 78.8372 38.6632 79.1114 38.7769L79.4945 37.8532C79.2687 37.7595 79.0416 37.6447 78.8133 37.5051L78.2917 38.3583ZM80.8962 39.1992C81.5072 39.247 82.1061 39.2066 82.6847 39.1252L82.5454 38.135C82.0144 38.2097 81.4918 38.2427 80.9742 38.2022L80.8962 39.1992ZM84.3781 38.7972C84.9447 38.67 85.4774 38.547 85.997 38.465L85.8411 37.4772C85.2824 37.5654 84.7129 37.6972 84.1591 37.8214L84.3781 38.7972ZM87.5434 38.3937C87.79 38.4203 88.0284 38.47 88.2601 38.5477L88.5782 37.5996C88.2712 37.4966 87.9613 37.433 87.6507 37.3995L87.5434 38.3937ZM88.2601 38.5477C88.5625 38.6492 88.8307 38.7622 89.0709 38.886L89.5292 37.9973C89.2396 37.8479 88.924 37.7156 88.5782 37.5996L88.2601 38.5477ZM90.3945 39.9458C90.7432 40.3672 91.0303 40.868 91.3154 41.4695L92.219 41.0413C91.917 40.4039 91.5885 39.8201 91.1648 39.3082L90.3945 39.9458ZM92.0654 43.2012C92.1841 43.484 92.3094 43.7795 92.444 44.0869L93.36 43.6855C93.2283 43.385 93.1053 43.0949 92.9873 42.8139L92.0654 43.2012Z" fill="#2C2C2C"/>
<g clip-path="url(#clip0_317_321)">
<g filter="url(#filter0_d_317_321)">
<path fill-rule="evenodd" clip-rule="evenodd" d="M8.3573 51.8916L16.2646 8.97754C16.7933 6.10771 19.6572 4.29867 22.4759 5.05394L61.7584 15.5797C64.5771 16.3349 66.1528 19.3335 65.1758 22.0833L50.5666 63.2015C49.8769 65.1429 48.067 66.4624 46.0077 66.5253L28.4038 67.0624C27.4229 67.0924 26.4549 66.833 25.6204 66.3166L10.6436 57.0495C8.89164 55.9654 7.98397 53.9177 8.3573 51.8916ZM11.3076 52.4352C11.1583 53.2457 11.5214 54.0647 12.2222 54.4984L27.199 63.7655C27.5328 63.9721 27.92 64.0758 28.3123 64.0638L45.9162 63.5266C46.7399 63.5015 47.4639 62.9737 47.7398 62.1972L62.3489 21.0789C62.7397 19.979 62.1094 18.7796 60.982 18.4774L21.6994 7.95172C20.5719 7.64961 19.4264 8.37323 19.2149 9.52116L11.3076 52.4352Z" fill="#FAF3E0"/>
<path d="M16.117 8.95036L8.20979 51.8644C7.82526 53.9513 8.76016 56.0604 10.5647 57.177L25.5415 66.4442C26.401 66.9761 27.3981 67.2432 28.4084 67.2124L46.0123 66.6752C48.1333 66.6105 49.9975 65.2513 50.708 63.2518L65.3171 22.1335C66.3234 19.3012 64.7005 16.2127 61.7972 15.4348L22.5147 4.90906C19.6114 4.13113 16.6617 5.99444 16.117 8.95036ZM12.3011 54.3708C11.6529 53.9697 11.317 53.2121 11.4552 52.4624L19.3624 9.54834C19.5581 8.4865 20.6177 7.81716 21.6606 8.09661L60.9431 18.6223C61.9861 18.9018 62.569 20.0113 62.2076 21.0287L47.5984 62.1469C47.3432 62.8652 46.6735 63.3535 45.9116 63.3767L28.3077 63.9139C27.9448 63.925 27.5866 63.829 27.2779 63.638L12.3011 54.3708Z" stroke="#DED0AB" stroke-width="0.3" stroke-linejoin="round"/>
</g>
<path d="M12.2221 54.4984C11.5213 54.0648 11.1583 53.2457 11.3076 52.4352L19.2148 9.52119C19.4264 8.37326 20.5719 7.64965 21.6994 7.95175L60.9819 18.4775C62.1094 18.7796 62.7397 19.979 62.3489 21.0789L47.7397 62.1972C47.4638 62.9737 46.7398 63.5015 45.9161 63.5267L28.3123 64.0639C27.9199 64.0759 27.5327 63.9721 27.1989 63.7656L12.2221 54.4984Z" fill="#1172B8"/>
<path d="M58.4782 21.7009L40.3671 16.848L28.4409 61.3572L44.1468 60.6977L58.4782 21.7009Z" fill="#33AADD"/>
<path d="M40.6212 41.2553L22.5101 36.4025L23.3083 29.8014L39.0141 29.1419L24.5252 25.2596L25.08 19.5669L53.1522 27.0888L50.5429 33.2046L37.5538 34.592L48.4204 37.5037L41.9849 54.2771L30.1446 54.9988L20.2515 48.4537L21.7799 39.1275L27.2132 40.5834L26.9018 45.3678L31.8484 48.6403L37.7685 48.2795L40.6212 41.2553Z" fill="white"/>
</g>
<path d="M85.0803 45.606C85.6203 45.606 86.0723 45.674 86.4363 45.81C86.8003 45.946 87.1463 46.146 87.4743 46.41L86.8923 47.088C86.6323 46.868 86.3563 46.712 86.0643 46.62C85.7763 46.524 85.4743 46.476 85.1583 46.476C84.7063 46.476 84.2883 46.584 83.9043 46.8C83.5203 47.012 83.2103 47.366 82.9743 47.862C82.7423 48.354 82.6263 49.022 82.6263 49.866C82.6263 50.686 82.7363 51.344 82.9563 51.84C83.1803 52.336 83.4823 52.694 83.8623 52.914C84.2423 53.134 84.6663 53.244 85.1343 53.244C85.5983 53.244 85.9783 53.174 86.2743 53.034C86.5743 52.894 86.8343 52.734 87.0543 52.554L87.5943 53.238C87.3423 53.482 87.0143 53.694 86.6103 53.874C86.2063 54.05 85.7103 54.138 85.1223 54.138C84.4543 54.138 83.8483 53.974 83.3043 53.646C82.7643 53.318 82.3363 52.838 82.0203 52.206C81.7043 51.57 81.5463 50.79 81.5463 49.866C81.5463 48.938 81.7063 48.158 82.0263 47.526C82.3503 46.894 82.7803 46.416 83.3163 46.092C83.8563 45.768 84.4443 45.606 85.0803 45.606ZM94.4176 51.714C94.4176 52.186 94.2996 52.606 94.0636 52.974C93.8276 53.338 93.4856 53.624 93.0376 53.832C92.5896 54.036 92.0436 54.138 91.3996 54.138C90.7956 54.138 90.2476 54.046 89.7556 53.862C89.2676 53.678 88.8496 53.418 88.5016 53.082L89.1196 52.386C89.4076 52.654 89.7376 52.868 90.1096 53.028C90.4816 53.184 90.9176 53.262 91.4176 53.262C91.7536 53.262 92.0676 53.208 92.3596 53.1C92.6516 52.988 92.8876 52.82 93.0676 52.596C93.2476 52.368 93.3376 52.08 93.3376 51.732C93.3376 51.464 93.2856 51.236 93.1816 51.048C93.0776 50.86 92.8936 50.694 92.6296 50.55C92.3656 50.402 91.9976 50.258 91.5256 50.118C90.9816 49.958 90.5096 49.778 90.1096 49.578C89.7136 49.374 89.4056 49.124 89.1856 48.828C88.9696 48.532 88.8616 48.166 88.8616 47.73C88.8616 47.318 88.9756 46.952 89.2036 46.632C89.4316 46.312 89.7456 46.062 90.1456 45.882C90.5496 45.698 91.0136 45.606 91.5376 45.606C92.1096 45.606 92.6056 45.688 93.0256 45.852C93.4496 46.012 93.8336 46.244 94.1776 46.548L93.5656 47.226C93.2696 46.962 92.9516 46.772 92.6116 46.656C92.2716 46.536 91.9256 46.476 91.5736 46.476C91.2736 46.476 90.9976 46.522 90.7456 46.614C90.4976 46.702 90.2976 46.836 90.1456 47.016C89.9976 47.192 89.9236 47.418 89.9236 47.694C89.9236 47.93 89.9876 48.134 90.1156 48.306C90.2436 48.478 90.4596 48.636 90.7636 48.78C91.0676 48.92 91.4816 49.068 92.0056 49.224C92.4336 49.348 92.8296 49.504 93.1936 49.692C93.5616 49.876 93.8576 50.128 94.0816 50.448C94.3056 50.764 94.4176 51.186 94.4176 51.714ZM101.613 51.714C101.613 52.186 101.495 52.606 101.259 52.974C101.023 53.338 100.681 53.624 100.233 53.832C99.7849 54.036 99.2389 54.138 98.5949 54.138C97.9909 54.138 97.4429 54.046 96.9509 53.862C96.4629 53.678 96.0449 53.418 95.6969 53.082L96.3149 52.386C96.6029 52.654 96.9329 52.868 97.3049 53.028C97.6769 53.184 98.1129 53.262 98.6129 53.262C98.9489 53.262 99.2629 53.208 99.5549 53.1C99.8469 52.988 100.083 52.82 100.263 52.596C100.443 52.368 100.533 52.08 100.533 51.732C100.533 51.464 100.481 51.236 100.377 51.048C100.273 50.86 100.089 50.694 99.8249 50.55C99.5609 50.402 99.1929 50.258 98.7209 50.118C98.1769 49.958 97.7049 49.778 97.3049 49.578C96.9089 49.374 96.6009 49.124 96.3809 48.828C96.1649 48.532 96.0569 48.166 96.0569 47.73C96.0569 47.318 96.1709 46.952 96.3989 46.632C96.6269 46.312 96.9409 46.062 97.3409 45.882C97.7449 45.698 98.2089 45.606 98.7329 45.606C99.3049 45.606 99.8009 45.688 100.221 45.852C100.645 46.012 101.029 46.244 101.373 46.548L100.761 47.226C100.465 46.962 100.147 46.772 99.8069 46.656C99.4669 46.536 99.1209 46.476 98.7689 46.476C98.4689 46.476 98.1929 46.522 97.9409 46.614C97.6929 46.702 97.4929 46.836 97.3409 47.016C97.1929 47.192 97.1189 47.418 97.1189 47.694C97.1189 47.93 97.1829 48.134 97.3109 48.306C97.4389 48.478 97.6549 48.636 97.9589 48.78C98.2629 48.92 98.6769 49.068 99.2009 49.224C99.6289 49.348 100.025 49.504 100.389 49.692C100.757 49.876 101.053 50.128 101.277 50.448C101.501 50.764 101.613 51.186 101.613 51.714Z" fill="#2C2C2C"/>
<defs>
<filter id="filter0_d_317_321" x="7.9743" y="4.58191" width="58.7919" height="63.7828" filterUnits="userSpaceOnUse" color-interpolation-filters="sRGB">
<feFlood flood-opacity="0" result="BackgroundImageFix"/>
<feColorMatrix in="SourceAlpha" type="matrix" values="0 0 0 0 0 0 0 0 0 0 0 0 0 0 0 0 0 0 127 0" result="hardAlpha"/>
<feOffset dx="1" dy="1"/>
<feComposite in2="hardAlpha" operator="out"/>
<feColorMatrix type="matrix" values="0 0 0 0 0.89 0 0 0 0 0.851662 0 0 0 0 0.7476 0 0 0 1 0"/>
<feBlend mode="normal" in2="BackgroundImageFix" result="effect1_dropShadow_317_321"/>
<feBlend mode="normal" in="SourceGraphic" in2="effect1_dropShadow_317_321" result="shape"/>
</filter>
<clipPath id="clip0_317_321">
<rect width="60.549" height="65.0429" fill="white" transform="matrix(0.966552 0.256472 -0.261184 0.965289 16.9882 0)"/>
</clipPath>
</defs>
</svg>
