<svg width="92" height="81" viewBox="0 0 92 81" fill="none" xmlns="http://www.w3.org/2000/svg">
<path d="M46.0071 47.5C45.7309 47.4962 45.5039 47.7168 45.5 47.9929C45.4962 48.2691 45.7168 48.4961 45.9929 48.5L46.0071 47.5ZM55.0724 50.987L54.6889 51.3077L55.0724 50.987ZM57.385 57.0975H57.885V57.0826L57.8841 57.0677L57.385 57.0975ZM50.3163 66.4381L50.5377 65.9898L50.3163 66.4381ZM49.7555 60.909L49.3763 60.5831L49.7555 60.909ZM59.7898 57.9317L60.0524 57.5063L59.7898 57.9317ZM69.5606 58.0737L69.4002 58.5472L69.5606 58.0737ZM73.8164 64.3513C74.0732 64.4527 74.3637 64.3267 74.4651 64.0698L76.1175 59.8842C76.2189 59.6273 76.0929 59.3369 75.8361 59.2355C75.5792 59.1341 75.2888 59.2601 75.1874 59.517L73.7185 63.2375L69.998 61.7687C69.7411 61.6673 69.4507 61.7933 69.3493 62.0502C69.2479 62.307 69.3739 62.5974 69.6308 62.6988L73.8164 64.3513ZM47.2327 48.5176C47.5088 48.5228 47.7369 48.3032 47.7421 48.0271C47.7473 47.751 47.5277 47.523 47.2516 47.5177L47.2327 48.5176ZM49.7836 47.6712C49.5096 47.6364 49.2594 47.8304 49.2247 48.1043C49.1899 48.3783 49.3838 48.6285 49.6578 48.6632L49.7836 47.6712ZM51.9319 49.2328C52.1871 49.3382 52.4794 49.2168 52.5849 48.9616C52.6903 48.7063 52.5689 48.414 52.3136 48.3085L51.9319 49.2328ZM54.546 49.7191C54.3405 49.5346 54.0244 49.5515 53.8399 49.757C53.6553 49.9624 53.6723 50.2786 53.8777 50.4631L54.546 49.7191ZM55.184 51.9372C55.3472 52.16 55.6601 52.2083 55.8828 52.0451C56.1056 51.882 56.1539 51.5691 55.9907 51.3463L55.184 51.9372ZM56.8991 52.8492C56.7797 52.6002 56.4811 52.4951 56.2321 52.6145C55.9831 52.7339 55.878 53.0325 55.9974 53.2815L56.8991 52.8492ZM56.5328 54.7556C56.6026 55.0227 56.8758 55.1827 57.143 55.1128C57.4101 55.043 57.5701 54.7698 57.5002 54.5026L56.5328 54.7556ZM57.8109 56.211C57.7798 55.9366 57.5323 55.7393 57.2579 55.7704C56.9835 55.8014 56.7862 56.049 56.8172 56.3234L57.8109 56.211ZM56.92 58.1972C56.9365 58.4729 57.1734 58.6829 57.449 58.6664C57.7247 58.6499 57.9347 58.413 57.9182 58.1374L56.92 58.1972ZM58.0899 60.2657C58.0712 59.9902 57.8328 59.782 57.5572 59.8007C57.2817 59.8193 57.0735 60.0578 57.0922 60.3333L58.0899 60.2657ZM57.0146 62.3279C56.9583 62.5983 57.1318 62.8631 57.4022 62.9194C57.6725 62.9757 57.9373 62.8021 57.9936 62.5318L57.0146 62.3279ZM57.0213 64.6565C57.1863 64.435 57.1404 64.1218 56.919 63.9568C56.6975 63.7919 56.3843 63.8377 56.2193 64.0592L57.0213 64.6565ZM55.0135 65.3231C54.8065 65.5058 54.7868 65.8218 54.9696 66.0288C55.1524 66.2358 55.4684 66.2554 55.6754 66.0727L55.0135 65.3231ZM54.2962 67.0431C54.5424 66.918 54.6405 66.617 54.5154 66.3709C54.3903 66.1247 54.0893 66.0266 53.8432 66.1517L54.2962 67.0431ZM52.5527 66.498C52.2768 66.5081 52.0612 66.7399 52.0712 67.0159C52.0813 67.2918 52.3131 67.5074 52.5891 67.4974L52.5527 66.498ZM50.8715 67.2151C51.1322 67.3062 51.4174 67.1687 51.5085 66.908C51.5996 66.6473 51.4621 66.3622 51.2014 66.2711L50.8715 67.2151ZM49.9152 65.1113C49.8268 64.8497 49.5431 64.7092 49.2815 64.7976C49.0198 64.886 48.8794 65.1697 48.9678 65.4313L49.9152 65.1113ZM48.7741 62.2303C48.7317 62.5031 48.9184 62.7588 49.1913 62.8012C49.4641 62.8437 49.7198 62.6569 49.7622 62.3841L48.7741 62.2303ZM50.7495 60.5788C50.9466 60.3854 50.9497 60.0688 50.7563 59.8717C50.563 59.6746 50.2464 59.6715 50.0492 59.8649L50.7495 60.5788ZM51.5576 58.6083C51.3319 58.7674 51.278 59.0794 51.4371 59.305C51.5962 59.5307 51.9082 59.5847 52.1338 59.4255L51.5576 58.6083ZM53.684 58.5139C53.9331 58.3948 54.0385 58.0963 53.9194 57.8471C53.8003 57.598 53.5017 57.4926 53.2526 57.6117L53.684 58.5139ZM55.1127 56.9322C54.8449 56.9998 54.6827 57.2717 54.7503 57.5394C54.818 57.8072 55.0898 57.9694 55.3576 57.9017L55.1127 56.9322ZM57.0936 57.6847C57.3697 57.6883 57.5964 57.4673 57.5999 57.1912C57.6034 56.915 57.3825 56.6883 57.1063 56.6848L57.0936 57.6847ZM59.1202 57.0497C58.8616 56.9529 58.5734 57.084 58.4765 57.3426C58.3797 57.6012 58.5108 57.8893 58.7694 57.9862L59.1202 57.0497ZM60.3385 58.7757C60.5932 58.8824 60.8862 58.7625 60.9929 58.5078C61.0997 58.2531 60.9797 57.9601 60.725 57.8534L60.3385 58.7757ZM62.1874 58.2021C61.9121 58.1803 61.6712 58.3858 61.6494 58.661C61.6276 58.9363 61.833 59.1772 62.1083 59.199L62.1874 58.2021ZM63.8823 59.1253C64.1557 59.0865 64.3459 58.8334 64.3071 58.56C64.2682 58.2866 64.0151 58.0964 63.7417 58.1352L63.8823 59.1253ZM65.3392 57.8218C65.0699 57.8829 64.9011 58.1507 64.9621 58.42C65.0231 58.6893 65.2909 58.8581 65.5602 58.7971L65.3392 57.8218ZM67.1629 58.465C67.4356 58.4215 67.6214 58.1652 67.578 57.8925C67.5345 57.6198 67.2782 57.434 67.0055 57.4774L67.1629 58.465ZM68.8007 57.3996C68.5262 57.3697 68.2794 57.568 68.2495 57.8425C68.2196 58.117 68.4179 58.3638 68.6924 58.3937L68.8007 57.3996ZM70.2055 58.8869C70.4503 59.0146 70.7523 58.9197 70.8801 58.6749C71.0078 58.4301 70.9129 58.1281 70.6681 58.0003L70.2055 58.8869ZM72.2908 59.3172C72.1161 59.1034 71.8011 59.0716 71.5873 59.2463C71.3734 59.421 71.3416 59.736 71.5163 59.9498L72.2908 59.3172ZM72.4262 61.4733C72.5434 61.7234 72.8411 61.831 73.0911 61.7138C73.3412 61.5966 73.4488 61.2989 73.3316 61.0488L72.4262 61.4733ZM74.0904 62.8175C73.9843 62.5625 73.6916 62.4418 73.4367 62.5479C73.1817 62.654 73.0611 62.9467 73.1671 63.2016L74.0904 62.8175ZM45.9929 48.5C46.4168 48.5059 46.8268 48.5099 47.2327 48.5176L47.2516 47.5177C46.8428 47.51 46.4247 47.5059 46.0071 47.5L45.9929 48.5ZM49.6578 48.6632C50.4619 48.7652 51.2174 48.9377 51.9319 49.2328L52.3136 48.3085C51.4956 47.9706 50.6489 47.7809 49.7836 47.6712L49.6578 48.6632ZM53.8777 50.4631C54.1523 50.7097 54.4228 50.9896 54.6889 51.3077L55.456 50.6662C55.161 50.3135 54.8577 49.9991 54.546 49.7191L53.8777 50.4631ZM54.6889 51.3077C54.8633 51.5162 55.0284 51.7248 55.184 51.9372L55.9907 51.3463C55.8202 51.1135 55.6415 50.888 55.456 50.6662L54.6889 51.3077ZM55.9974 53.2815C56.2091 53.7231 56.3893 54.2069 56.5328 54.7556L57.5002 54.5026C57.341 53.8934 57.139 53.3495 56.8991 52.8492L55.9974 53.2815ZM56.8172 56.3234C56.8461 56.5787 56.8691 56.8463 56.8859 57.1274L57.8841 57.0677C57.8663 56.7701 57.8418 56.4849 57.8109 56.211L56.8172 56.3234ZM56.885 57.0975C56.885 57.4803 56.899 57.8464 56.92 58.1972L57.9182 58.1374C57.8981 57.8016 57.885 57.456 57.885 57.0975H56.885ZM57.0922 60.3333C57.1418 61.0661 57.1431 61.7109 57.0146 62.3279L57.9936 62.5318C58.15 61.7807 58.1415 61.0281 58.0899 60.2657L57.0922 60.3333ZM56.2193 64.0592C56.0387 64.3017 55.8222 64.5503 55.5629 64.8064L56.2656 65.5179C56.5571 65.23 56.8075 64.9436 57.0213 64.6565L56.2193 64.0592ZM55.5629 64.8064C55.3791 64.988 55.1969 65.1611 55.0135 65.3231L55.6754 66.0727C55.877 65.8946 56.0733 65.7078 56.2656 65.5179L55.5629 64.8064ZM53.8432 66.1517C53.4395 66.3568 53.0171 66.4811 52.5527 66.498L52.5891 67.4974C53.2182 67.4745 53.782 67.3045 54.2962 67.0431L53.8432 66.1517ZM51.2014 66.2711C50.9914 66.1977 50.7704 66.1048 50.5377 65.9898L50.0949 66.8864C50.361 67.0179 50.6196 67.127 50.8715 67.2151L51.2014 66.2711ZM50.5377 65.9898C50.2985 65.8717 50.0769 65.5899 49.9152 65.1113L48.9678 65.4313C49.1679 66.0236 49.5129 66.599 50.0949 66.8864L50.5377 65.9898ZM49.7622 62.3841C49.8076 62.0925 49.8693 61.8357 49.9401 61.6301C50.0137 61.4166 50.0859 61.2916 50.1347 61.2349L49.3763 60.5831C49.2089 60.7778 49.0863 61.0385 48.9947 61.3044C48.9003 61.5783 48.8264 61.8949 48.7741 62.2303L49.7622 62.3841ZM50.1347 61.2349C50.3284 61.0094 50.5339 60.7903 50.7495 60.5788L50.0492 59.8649C49.8139 60.0957 49.589 60.3356 49.3763 60.5831L50.1347 61.2349ZM52.1338 59.4255C52.6294 59.0761 53.1505 58.769 53.684 58.5139L53.2526 57.6117C52.6664 57.892 52.097 58.2279 51.5576 58.6083L52.1338 59.4255ZM55.3576 57.9017C55.947 57.7529 56.5308 57.6775 57.0936 57.6847L57.1063 56.6848C56.4462 56.6764 55.7755 56.7648 55.1127 56.9322L55.3576 57.9017ZM58.7694 57.9862C59.0312 58.0843 59.2844 58.2074 59.5271 58.3572L60.0524 57.5063C59.7532 57.3216 59.4414 57.1701 59.1202 57.0497L58.7694 57.9862ZM59.5271 58.3572C59.7965 58.5235 60.067 58.6619 60.3385 58.7757L60.725 57.8534C60.5021 57.76 60.2779 57.6455 60.0524 57.5063L59.5271 58.3572ZM62.1083 59.199C62.7145 59.2471 63.3086 59.2067 63.8823 59.1253L63.7417 58.1352C63.2162 58.2098 62.6991 58.2427 62.1874 58.2021L62.1083 59.199ZM65.5602 58.7971C66.1215 58.6699 66.6487 58.5469 67.1629 58.465L67.0055 57.4774C66.4518 57.5657 65.8875 57.6976 65.3392 57.8218L65.5602 58.7971ZM68.6924 58.3937C68.9359 58.4202 69.1714 58.4697 69.4002 58.5472L69.7211 57.6001C69.4165 57.4969 69.1089 57.4331 68.8007 57.3996L68.6924 58.3937ZM69.4002 58.5472C69.7008 58.6491 69.9671 58.7625 70.2055 58.8869L70.6681 58.0003C70.3798 57.8499 70.0655 57.7168 69.7211 57.6001L69.4002 58.5472ZM71.5163 59.9498C71.8606 60.3713 72.1443 60.8721 72.4262 61.4733L73.3316 61.0488C73.0332 60.4123 72.7088 59.829 72.2908 59.3172L71.5163 59.9498ZM73.1671 63.2016C73.2845 63.4837 73.4083 63.7786 73.5413 64.0852L74.4587 63.6872C74.3286 63.3874 74.2071 63.0978 74.0904 62.8175L73.1671 63.2016Z" fill="#2C2C2C"/>
<g clip-path="url(#clip0_317_328)">
<g filter="url(#filter0_d_317_328)">
<path fill-rule="evenodd" clip-rule="evenodd" d="M45.8875 49.9504L34.9001 52.8945C28.8319 54.5205 22.5945 50.9193 20.9686 44.8512C19.3427 38.7831 22.9437 32.5457 29.0119 30.9197L39.9993 27.9756L45.8875 49.9504ZM29.8531 34.059C25.5187 35.2204 22.9465 39.6757 24.1079 44.01C25.2692 48.3443 29.7245 50.9167 34.0589 49.7553L41.9071 47.6524L37.7013 31.9561L29.8531 34.059Z" fill="#FAF3E0"/>
<path d="M45.9263 50.0953L46.0712 50.0565L46.0324 49.9116L40.1442 27.9368L40.1054 27.7919L39.9605 27.8307L28.9731 30.7748C22.8249 32.4222 19.1763 38.7419 20.8237 44.89C22.4711 51.0381 28.7907 54.6868 34.9389 53.0394L45.9263 50.0953ZM24.2528 43.9712C23.1128 39.7169 25.6375 35.3438 29.8919 34.2039L37.5952 32.1398L41.7233 47.5463L34.0201 49.6104C29.7657 50.7503 25.3927 48.2255 24.2528 43.9712Z" stroke="#DED0AB" stroke-width="0.3"/>
</g>
<g filter="url(#filter1_d_317_328)">
<path fill-rule="evenodd" clip-rule="evenodd" d="M41.6817 34.2542L30.6943 37.1982C24.6261 38.8242 18.3887 35.223 16.7628 29.1549C15.1368 23.0867 18.738 16.8494 24.8061 15.2234L35.7935 12.2793L41.6817 34.2542ZM25.6473 18.3627C21.3129 19.5241 18.7406 23.9793 19.9021 28.3137C21.0634 32.6481 25.5187 35.2204 29.8531 34.059L37.7013 31.9561L33.4954 16.2598L25.6473 18.3627Z" fill="#FAF3E0"/>
<path d="M41.7205 34.399L41.8654 34.3602L41.8266 34.2153L35.9384 12.2405L35.8996 12.0956L35.7547 12.1345L24.7673 15.0785C18.6191 16.7259 14.9705 23.0455 16.6179 29.1937C18.2653 35.3418 24.5849 38.9905 30.7331 37.3431L41.7205 34.399ZM20.0469 28.2749C18.907 24.0205 21.4317 19.6475 25.6861 18.5076L33.3894 16.4435L37.5175 31.85L29.8143 33.9141C25.5599 35.054 21.1869 32.5292 20.0469 28.2749Z" stroke="#DED0AB" stroke-width="0.3"/>
</g>
<g filter="url(#filter2_d_317_328)">
<path fill-rule="evenodd" clip-rule="evenodd" d="M32.6543 13.1205L40.5024 11.0176C46.5705 9.39164 52.8079 12.9927 54.4339 19.0609C56.0599 25.129 52.4587 31.3664 46.3906 32.9924L38.5424 35.0953L32.6543 13.1205ZM37.7013 31.956L33.4955 16.2597L41.3436 14.1568C45.6779 12.9955 50.1333 15.5677 51.2947 19.9021C52.456 24.2364 49.8838 28.6918 45.5494 29.8531L37.7013 31.956Z" fill="#FAF3E0"/>
<path d="M32.6155 12.9756L32.4706 13.0144L32.5094 13.1593L33.3117 16.1537L33.3506 16.2986L37.5564 31.9949L37.5952 32.1397L38.3975 35.1341L38.4364 35.279L38.5813 35.2402L46.4294 33.1373C52.5775 31.4899 56.2262 25.1702 54.5788 19.0221C52.9314 12.8739 46.6117 9.22531 40.4636 10.8727L32.6155 12.9756ZM37.8073 31.7723L33.6792 16.3658L41.3824 14.3017C45.6367 13.1618 50.0098 15.6865 51.1498 19.9409C52.2897 24.1952 49.7649 28.5683 45.5106 29.7082L37.8073 31.7723Z" stroke="#DED0AB" stroke-width="0.3"/>
</g>
<g filter="url(#filter3_d_317_328)">
<path fill-rule="evenodd" clip-rule="evenodd" d="M44.2052 43.6719L47.1492 54.6593C48.7752 60.7274 45.174 66.9649 39.1059 68.5908C33.0377 70.2168 26.8004 66.6155 25.1744 60.5475C23.5485 54.4794 27.1496 48.242 33.2178 46.616L44.2052 43.6719ZM34.0589 49.7553C29.7245 50.9167 27.1523 55.372 28.3137 59.7063C29.4751 64.0406 33.9303 66.6129 38.2647 65.4515C42.5991 64.2902 45.1713 59.8348 44.01 55.5005L41.9071 47.6523L34.0589 49.7553Z" fill="#FAF3E0"/>
<path d="M44.35 43.6331L44.3112 43.4882L44.1663 43.527L33.1789 46.4711C27.0307 48.1185 23.3821 54.4382 25.0295 60.5863C26.6769 66.7344 32.9965 70.3831 39.1447 68.7357C45.2928 67.0883 48.9415 60.7686 47.2941 54.6205L44.35 43.6331ZM28.4586 59.6675C27.3186 55.4132 29.8433 51.0401 34.0977 49.9001L41.801 47.8361L43.8651 55.5393C45.005 59.7936 42.4802 64.1667 38.2259 65.3067C33.9715 66.4466 29.5985 63.9218 28.4586 59.6675Z" stroke="#DED0AB" stroke-width="0.3"/>
</g>
<g filter="url(#filter4_d_317_328)">
<path fill-rule="evenodd" clip-rule="evenodd" d="M36.6649 40.6454C35.0389 34.5773 38.6401 28.3398 44.7082 26.7139C50.7763 25.0879 57.0138 28.6891 58.6397 34.7572C60.2656 40.8253 56.6645 47.0628 50.5964 48.6887C44.5283 50.3146 38.2908 46.7135 36.6649 40.6454ZM45.5494 29.8532C41.2151 31.0145 38.6428 35.4699 39.8042 39.8042C40.9655 44.1385 45.4209 46.7108 49.7552 45.5494C54.0895 44.3881 56.6618 39.9327 55.5004 35.5984C54.3391 31.2641 49.8837 28.6918 45.5494 29.8532Z" fill="#FAF3E0"/>
<path d="M44.6694 26.569C38.5213 28.2164 34.8726 34.5361 36.52 40.6842C38.1674 46.8323 44.4871 50.481 50.6352 48.8336C56.7833 47.1862 60.432 40.8665 58.7846 34.7184C57.1372 28.5703 50.8175 24.9216 44.6694 26.569ZM39.949 39.7654C38.8091 35.5111 41.3339 31.138 45.5882 29.998C49.8425 28.8581 54.2156 31.3829 55.3556 35.6372C56.4955 39.8915 53.9707 44.2646 49.7164 45.4046C45.4621 46.5445 41.089 44.0197 39.949 39.7654Z" stroke="#DED0AB" stroke-width="0.3"/>
</g>
<path fill-rule="evenodd" clip-rule="evenodd" d="M39.8042 39.8042C38.6428 35.4699 41.2151 31.0145 45.5494 29.8531C49.8838 28.6918 54.3391 31.2641 55.5005 35.5984C56.6619 39.9327 54.0896 44.3881 49.7553 45.5494C45.4209 46.7108 40.9656 44.1385 39.8042 39.8042Z" fill="#1ABCFE"/>
<path fill-rule="evenodd" clip-rule="evenodd" d="M28.3137 59.7063C27.1523 55.372 29.7245 50.9167 34.059 49.7552L41.9071 47.6523L44.01 55.5005C45.1714 59.8348 42.5991 64.2902 38.2648 65.4515C33.9304 66.6129 29.4751 64.0406 28.3137 59.7063Z" fill="#0ACF83"/>
<path fill-rule="evenodd" clip-rule="evenodd" d="M33.4955 16.2598L37.7013 31.9561L45.5494 29.8532C49.8838 28.6918 52.4561 24.2364 51.2947 19.9021C50.1333 15.5677 45.678 12.9955 41.3436 14.1569L33.4955 16.2598Z" fill="#FF7262"/>
<path fill-rule="evenodd" clip-rule="evenodd" d="M19.9021 28.3137C21.0635 32.6481 25.5187 35.2204 29.8532 34.059L37.7013 31.9561L33.4955 16.2598L25.6473 18.3627C21.3129 19.5241 18.7407 23.9793 19.9021 28.3137Z" fill="#F24E1E"/>
<path fill-rule="evenodd" clip-rule="evenodd" d="M24.1079 44.01C25.2693 48.3443 29.7245 50.9167 34.059 49.7553L41.9071 47.6524L37.7013 31.9561L29.8532 34.059C25.5187 35.2204 22.9465 39.6757 24.1079 44.01Z" fill="#A259FF"/>
</g>
<path d="M58.694 69.59V72.482H61.934V73.322H58.694V77H57.662V68.738H62.528L62.402 69.59H58.694ZM67.5993 70.682V76.202H69.3813V77H64.6413V76.202H66.5913V71.48H64.7013V70.682H67.5993ZM66.7953 67.724C67.0193 67.724 67.1973 67.792 67.3293 67.928C67.4653 68.064 67.5333 68.23 67.5333 68.426C67.5333 68.63 67.4653 68.802 67.3293 68.942C67.1973 69.078 67.0193 69.146 66.7953 69.146C66.5833 69.146 66.4093 69.078 66.2733 68.942C66.1373 68.802 66.0693 68.63 66.0693 68.426C66.0693 68.23 66.1373 68.064 66.2733 67.928C66.4093 67.792 66.5833 67.724 66.7953 67.724ZM76.7326 70.01L77.0446 70.958C76.7766 71.042 76.4906 71.094 76.1866 71.114C75.8826 71.134 75.5526 71.144 75.1966 71.144C75.5606 71.312 75.8346 71.53 76.0186 71.798C76.2026 72.062 76.2946 72.374 76.2946 72.734C76.2946 73.15 76.2006 73.52 76.0126 73.844C75.8246 74.168 75.5526 74.422 75.1966 74.606C74.8446 74.79 74.4186 74.882 73.9186 74.882C73.7066 74.882 73.5286 74.872 73.3846 74.852C73.2446 74.832 73.1086 74.802 72.9766 74.762C72.8806 74.826 72.8006 74.914 72.7366 75.026C72.6766 75.138 72.6466 75.254 72.6466 75.374C72.6466 75.526 72.7066 75.652 72.8266 75.752C72.9466 75.852 73.1686 75.902 73.4926 75.902H74.6326C75.0566 75.902 75.4366 75.978 75.7726 76.13C76.1126 76.282 76.3786 76.486 76.5706 76.742C76.7666 76.998 76.8646 77.29 76.8646 77.618C76.8646 78.238 76.6006 78.714 76.0726 79.046C75.5486 79.378 74.8066 79.544 73.8466 79.544C73.1746 79.544 72.6446 79.474 72.2566 79.334C71.8686 79.198 71.5906 78.988 71.4226 78.704C71.2586 78.424 71.1766 78.07 71.1766 77.642H72.0886C72.0886 77.886 72.1366 78.088 72.2326 78.248C72.3286 78.408 72.5026 78.526 72.7546 78.602C73.0066 78.682 73.3686 78.722 73.8406 78.722C74.3046 78.722 74.6826 78.682 74.9746 78.602C75.2706 78.526 75.4886 78.41 75.6286 78.254C75.7726 78.102 75.8446 77.912 75.8446 77.684C75.8446 77.384 75.7086 77.158 75.4366 77.006C75.1646 76.854 74.8246 76.778 74.4166 76.778H73.2886C72.7446 76.778 72.3426 76.658 72.0826 76.418C71.8266 76.178 71.6986 75.902 71.6986 75.59C71.6986 75.386 71.7566 75.188 71.8726 74.996C71.9926 74.804 72.1666 74.634 72.3946 74.486C72.0306 74.294 71.7626 74.056 71.5906 73.772C71.4186 73.488 71.3326 73.144 71.3326 72.74C71.3326 72.312 71.4386 71.934 71.6506 71.606C71.8626 71.274 72.1586 71.014 72.5386 70.826C72.9186 70.638 73.3566 70.544 73.8526 70.544C74.3846 70.54 74.8166 70.518 75.1486 70.478C75.4806 70.434 75.7646 70.372 76.0006 70.292C76.2406 70.212 76.4846 70.118 76.7326 70.01ZM73.8526 71.282C73.3446 71.282 72.9686 71.42 72.7246 71.696C72.4846 71.968 72.3646 72.316 72.3646 72.74C72.3646 73.168 72.4886 73.52 72.7366 73.796C72.9846 74.072 73.3646 74.21 73.8766 74.21C74.3246 74.21 74.6646 74.08 74.8966 73.82C75.1326 73.56 75.2506 73.198 75.2506 72.734C75.2506 72.258 75.1326 71.898 74.8966 71.654C74.6646 71.406 74.3166 71.282 73.8526 71.282ZM82.9559 70.55C83.1599 70.55 83.3539 70.594 83.5379 70.682C83.7259 70.77 83.8799 70.94 83.9999 71.192C84.1199 71.444 84.1799 71.812 84.1799 72.296V77H83.2439V72.458C83.2439 72.062 83.2199 71.776 83.1719 71.6C83.1239 71.424 82.9859 71.336 82.7579 71.336C82.5699 71.336 82.3819 71.396 82.1939 71.516C82.0099 71.632 81.8299 71.824 81.6539 72.092V77H80.7119V72.458C80.7119 72.062 80.6879 71.776 80.6399 71.6C80.5919 71.424 80.4539 71.336 80.2259 71.336C80.0299 71.336 79.8399 71.396 79.6559 71.516C79.4759 71.632 79.2979 71.824 79.1219 72.092V77H78.1919V70.682H78.9839L79.0439 71.414C79.2159 71.17 79.4079 70.966 79.6199 70.802C79.8359 70.634 80.1019 70.55 80.4179 70.55C80.6579 70.55 80.8839 70.608 81.0959 70.724C81.3079 70.836 81.4639 71.056 81.5639 71.384C81.7359 71.136 81.9299 70.936 82.1459 70.784C82.3619 70.628 82.6319 70.55 82.9559 70.55ZM90.5113 75.62C90.5113 75.872 90.5533 76.056 90.6373 76.172C90.7213 76.288 90.8513 76.374 91.0273 76.43L90.7812 77.138C90.5093 77.102 90.2713 77.016 90.0673 76.88C89.8633 76.74 89.7153 76.53 89.6233 76.25C89.3953 76.542 89.1113 76.764 88.7713 76.916C88.4313 77.064 88.0553 77.138 87.6433 77.138C87.0113 77.138 86.5133 76.96 86.1493 76.604C85.7853 76.248 85.6033 75.776 85.6033 75.188C85.6033 74.536 85.8573 74.036 86.3652 73.688C86.8733 73.34 87.6073 73.166 88.5673 73.166H89.4973V72.638C89.4973 72.182 89.3633 71.86 89.0953 71.672C88.8313 71.48 88.4633 71.384 87.9913 71.384C87.7833 71.384 87.5393 71.41 87.2593 71.462C86.9793 71.51 86.6753 71.592 86.3473 71.708L86.0833 70.946C86.4713 70.802 86.8353 70.7 87.1753 70.64C87.5153 70.58 87.8393 70.55 88.1473 70.55C88.9353 70.55 89.5253 70.734 89.9173 71.102C90.3133 71.466 90.5113 71.962 90.5113 72.59V75.62ZM87.9013 76.37C88.2133 76.37 88.5113 76.292 88.7953 76.136C89.0793 75.976 89.3133 75.756 89.4973 75.476V73.85H88.5853C87.8893 73.85 87.3973 73.97 87.1093 74.21C86.8253 74.45 86.6833 74.772 86.6833 75.176C86.6833 75.568 86.7833 75.866 86.9833 76.07C87.1873 76.27 87.4933 76.37 87.9013 76.37Z" fill="#2C2C2C"/>
<defs>
<filter id="filter0_d_317_328" x="20.2781" y="27.6082" width="26.9768" height="26.9768" filterUnits="userSpaceOnUse" color-interpolation-filters="sRGB">
<feFlood flood-opacity="0" result="BackgroundImageFix"/>
<feColorMatrix in="SourceAlpha" type="matrix" values="0 0 0 0 0 0 0 0 0 0 0 0 0 0 0 0 0 0 127 0" result="hardAlpha"/>
<feOffset dx="1" dy="1"/>
<feComposite in2="hardAlpha" operator="out"/>
<feColorMatrix type="matrix" values="0 0 0 0 0.890196 0 0 0 0 0.85098 0 0 0 0 0.74902 0 0 0 1 0"/>
<feBlend mode="normal" in2="BackgroundImageFix" result="effect1_dropShadow_317_328"/>
<feBlend mode="normal" in="SourceGraphic" in2="effect1_dropShadow_317_328" result="shape"/>
</filter>
<filter id="filter1_d_317_328" x="16.0723" y="11.9119" width="26.9768" height="26.9768" filterUnits="userSpaceOnUse" color-interpolation-filters="sRGB">
<feFlood flood-opacity="0" result="BackgroundImageFix"/>
<feColorMatrix in="SourceAlpha" type="matrix" values="0 0 0 0 0 0 0 0 0 0 0 0 0 0 0 0 0 0 127 0" result="hardAlpha"/>
<feOffset dx="1" dy="1"/>
<feComposite in2="hardAlpha" operator="out"/>
<feColorMatrix type="matrix" values="0 0 0 0 0.890196 0 0 0 0 0.85098 0 0 0 0 0.74902 0 0 0 1 0"/>
<feBlend mode="normal" in2="BackgroundImageFix" result="effect1_dropShadow_317_328"/>
<feBlend mode="normal" in="SourceGraphic" in2="effect1_dropShadow_317_328" result="shape"/>
</filter>
<filter id="filter2_d_317_328" x="32.2869" y="10.3271" width="23.8375" height="26.1356" filterUnits="userSpaceOnUse" color-interpolation-filters="sRGB">
<feFlood flood-opacity="0" result="BackgroundImageFix"/>
<feColorMatrix in="SourceAlpha" type="matrix" values="0 0 0 0 0 0 0 0 0 0 0 0 0 0 0 0 0 0 127 0" result="hardAlpha"/>
<feOffset dx="1" dy="1"/>
<feComposite in2="hardAlpha" operator="out"/>
<feColorMatrix type="matrix" values="0 0 0 0 0.890196 0 0 0 0 0.85098 0 0 0 0 0.74902 0 0 0 1 0"/>
<feBlend mode="normal" in2="BackgroundImageFix" result="effect1_dropShadow_317_328"/>
<feBlend mode="normal" in="SourceGraphic" in2="effect1_dropShadow_317_328" result="shape"/>
</filter>
<filter id="filter3_d_317_328" x="24.4839" y="43.3044" width="24.3558" height="26.9768" filterUnits="userSpaceOnUse" color-interpolation-filters="sRGB">
<feFlood flood-opacity="0" result="BackgroundImageFix"/>
<feColorMatrix in="SourceAlpha" type="matrix" values="0 0 0 0 0 0 0 0 0 0 0 0 0 0 0 0 0 0 127 0" result="hardAlpha"/>
<feOffset dx="1" dy="1"/>
<feComposite in2="hardAlpha" operator="out"/>
<feColorMatrix type="matrix" values="0 0 0 0 0.890196 0 0 0 0 0.85098 0 0 0 0 0.74902 0 0 0 1 0"/>
<feBlend mode="normal" in2="BackgroundImageFix" result="effect1_dropShadow_317_328"/>
<feBlend mode="normal" in="SourceGraphic" in2="effect1_dropShadow_317_328" result="shape"/>
</filter>
<filter id="filter4_d_317_328" x="35.9744" y="26.0234" width="24.3558" height="24.3557" filterUnits="userSpaceOnUse" color-interpolation-filters="sRGB">
<feFlood flood-opacity="0" result="BackgroundImageFix"/>
<feColorMatrix in="SourceAlpha" type="matrix" values="0 0 0 0 0 0 0 0 0 0 0 0 0 0 0 0 0 0 127 0" result="hardAlpha"/>
<feOffset dx="1" dy="1"/>
<feComposite in2="hardAlpha" operator="out"/>
<feColorMatrix type="matrix" values="0 0 0 0 0.890196 0 0 0 0 0.85098 0 0 0 0 0.74902 0 0 0 1 0"/>
<feBlend mode="normal" in2="BackgroundImageFix" result="effect1_dropShadow_317_328"/>
<feBlend mode="normal" in="SourceGraphic" in2="effect1_dropShadow_317_328" result="shape"/>
</filter>
<clipPath id="clip0_317_328">
<rect width="65" height="65" fill="white" transform="translate(0 16.8232) rotate(-15)"/>
</clipPath>
</defs>
</svg>
