<svg width="77" height="90" viewBox="0 0 77 90" fill="none" xmlns="http://www.w3.org/2000/svg">
<path d="M31.0071 59.5C30.7309 59.4962 30.5039 59.7168 30.5 59.9929C30.4962 60.2691 30.7168 60.4961 30.9929 60.5L31.0071 59.5ZM40.0724 62.987L39.6889 63.3077L40.0724 62.987ZM42.385 69.0975H42.885V69.0826L42.8841 69.0677L42.385 69.0975ZM35.3163 78.4381L35.5377 77.9898L35.3163 78.4381ZM34.7555 72.909L34.3763 72.5831L34.7555 72.909ZM44.7898 69.9317L45.0524 69.5063L44.7898 69.9317ZM54.5606 70.0737L54.4002 70.5472L54.4002 70.5472L54.5606 70.0737ZM58.8164 76.3513C59.0732 76.4527 59.3637 76.3267 59.4651 76.0698L61.1175 71.8842C61.2189 71.6273 61.0929 71.3369 60.8361 71.2355C60.5792 71.1341 60.2888 71.2601 60.1874 71.517L58.7185 75.2375L54.998 73.7687C54.7411 73.6673 54.4507 73.7933 54.3493 74.0502C54.2479 74.307 54.3739 74.5974 54.6308 74.6988L58.8164 76.3513ZM32.2327 60.5176C32.5088 60.5228 32.7369 60.3032 32.7421 60.0271C32.7473 59.751 32.5277 59.523 32.2516 59.5177L32.2327 60.5176ZM34.7836 59.6712C34.5096 59.6364 34.2594 59.8304 34.2247 60.1043C34.1899 60.3783 34.3838 60.6285 34.6578 60.6632L34.7836 59.6712ZM36.9319 61.2328C37.1871 61.3382 37.4794 61.2168 37.5849 60.9616C37.6903 60.7063 37.5689 60.414 37.3136 60.3085L36.9319 61.2328ZM39.546 61.7191C39.3405 61.5346 39.0244 61.5515 38.8399 61.757C38.6553 61.9624 38.6723 62.2786 38.8777 62.4631L39.546 61.7191ZM40.184 63.9372C40.3472 64.16 40.6601 64.2083 40.8828 64.0451C41.1056 63.882 41.1539 63.5691 40.9907 63.3463L40.184 63.9372ZM41.8991 64.8492C41.7797 64.6002 41.4811 64.4951 41.2321 64.6145C40.9831 64.7339 40.878 65.0325 40.9974 65.2815L41.8991 64.8492ZM41.5328 66.7556C41.6026 67.0227 41.8758 67.1827 42.143 67.1128C42.4101 67.043 42.5701 66.7698 42.5002 66.5026L41.5328 66.7556ZM42.8109 68.211C42.7798 67.9366 42.5323 67.7393 42.2579 67.7704C41.9835 67.8014 41.7862 68.049 41.8172 68.3234L42.8109 68.211ZM41.92 70.1972C41.9365 70.4729 42.1734 70.6829 42.449 70.6664C42.7247 70.6499 42.9347 70.413 42.9182 70.1374L41.92 70.1972ZM43.0899 72.2657C43.0712 71.9902 42.8328 71.782 42.5572 71.8007C42.2817 71.8193 42.0735 72.0578 42.0922 72.3333L43.0899 72.2657ZM42.0146 74.3279C41.9583 74.5983 42.1318 74.8631 42.4022 74.9194C42.6725 74.9757 42.9373 74.8021 42.9936 74.5318L42.0146 74.3279ZM42.0213 76.6565C42.1863 76.435 42.1404 76.1218 41.919 75.9568C41.6975 75.7919 41.3843 75.8377 41.2193 76.0592L42.0213 76.6565ZM40.0135 77.3231C39.8065 77.5058 39.7868 77.8218 39.9696 78.0288C40.1524 78.2358 40.4684 78.2554 40.6754 78.0727L40.0135 77.3231ZM39.2962 79.0431C39.5424 78.918 39.6405 78.617 39.5154 78.3709C39.3903 78.1247 39.0893 78.0266 38.8432 78.1517L39.2962 79.0431ZM37.5527 78.498C37.2768 78.5081 37.0612 78.7399 37.0712 79.0159C37.0813 79.2918 37.3131 79.5074 37.5891 79.4974L37.5527 78.498ZM35.8715 79.2151C36.1322 79.3062 36.4174 79.1687 36.5085 78.908C36.5996 78.6473 36.4621 78.3622 36.2014 78.2711L35.8715 79.2151ZM34.9152 77.1113C34.8268 76.8497 34.5431 76.7092 34.2815 76.7976C34.0198 76.886 33.8794 77.1697 33.9678 77.4313L34.9152 77.1113ZM33.7741 74.2303C33.7317 74.5031 33.9184 74.7588 34.1913 74.8012C34.4641 74.8437 34.7198 74.6569 34.7622 74.3841L33.7741 74.2303ZM35.7495 72.5788C35.9466 72.3854 35.9497 72.0688 35.7563 71.8717C35.563 71.6746 35.2464 71.6715 35.0492 71.8649L35.7495 72.5788ZM36.5576 70.6083C36.3319 70.7674 36.278 71.0794 36.4371 71.305C36.5962 71.5307 36.9082 71.5847 37.1338 71.4255L36.5576 70.6083ZM38.684 70.5139C38.9331 70.3948 39.0385 70.0963 38.9194 69.8471C38.8003 69.598 38.5017 69.4926 38.2526 69.6117L38.684 70.5139ZM40.1127 68.9322C39.8449 68.9998 39.6827 69.2717 39.7503 69.5394C39.818 69.8072 40.0898 69.9694 40.3576 69.9017L40.1127 68.9322ZM42.0936 69.6847C42.3697 69.6883 42.5964 69.4673 42.5999 69.1912C42.6034 68.915 42.3825 68.6883 42.1063 68.6848L42.0936 69.6847ZM44.1202 69.0497C43.8616 68.9529 43.5734 69.084 43.4765 69.3426C43.3797 69.6012 43.5108 69.8893 43.7694 69.9862L44.1202 69.0497ZM45.3385 70.7757C45.5932 70.8824 45.8862 70.7625 45.9929 70.5078C46.0997 70.2531 45.9797 69.9601 45.725 69.8534L45.3385 70.7757ZM47.1874 70.2021C46.9121 70.1803 46.6712 70.3858 46.6494 70.661C46.6276 70.9363 46.833 71.1772 47.1083 71.199L47.1874 70.2021ZM48.8823 71.1253C49.1557 71.0865 49.3459 70.8334 49.3071 70.56C49.2682 70.2866 49.0151 70.0964 48.7417 70.1352L48.8823 71.1253ZM50.3392 69.8218C50.0699 69.8829 49.9011 70.1507 49.9621 70.42C50.0231 70.6893 50.2909 70.8581 50.5602 70.7971L50.3392 69.8218ZM52.1629 70.465C52.4356 70.4215 52.6214 70.1652 52.578 69.8925C52.5345 69.6198 52.2782 69.434 52.0055 69.4774L52.1629 70.465ZM53.8007 69.3996C53.5262 69.3697 53.2794 69.568 53.2495 69.8425C53.2196 70.117 53.4179 70.3638 53.6924 70.3937L53.8007 69.3996ZM55.2055 70.8869C55.4503 71.0146 55.7523 70.9197 55.8801 70.6749C56.0078 70.4301 55.9129 70.1281 55.6681 70.0003L55.2055 70.8869ZM57.2908 71.3172C57.1161 71.1034 56.8011 71.0716 56.5873 71.2463C56.3734 71.421 56.3416 71.736 56.5163 71.9498L57.2908 71.3172ZM57.4262 73.4733C57.5434 73.7234 57.8411 73.831 58.0911 73.7138C58.3412 73.5966 58.4488 73.2989 58.3316 73.0488L57.4262 73.4733ZM59.0904 74.8175C58.9843 74.5625 58.6916 74.4418 58.4367 74.5479C58.1817 74.654 58.0611 74.9467 58.1671 75.2016L59.0904 74.8175ZM30.9929 60.5C31.4168 60.5059 31.8268 60.5099 32.2327 60.5176L32.2516 59.5177C31.8428 59.51 31.4247 59.5059 31.0071 59.5L30.9929 60.5ZM34.6578 60.6632C35.4619 60.7652 36.2174 60.9377 36.9319 61.2328L37.3136 60.3085C36.4956 59.9706 35.6489 59.7809 34.7836 59.6712L34.6578 60.6632ZM38.8777 62.4631C39.1523 62.7097 39.4228 62.9896 39.6889 63.3077L40.456 62.6662C40.161 62.3135 39.8577 61.9991 39.546 61.7191L38.8777 62.4631ZM39.6889 63.3077C39.8633 63.5162 40.0284 63.7248 40.184 63.9372L40.9907 63.3463C40.8202 63.1135 40.6415 62.888 40.456 62.6662L39.6889 63.3077ZM40.9974 65.2815C41.2091 65.7231 41.3893 66.2069 41.5328 66.7556L42.5002 66.5026C42.341 65.8934 42.139 65.3495 41.8991 64.8492L40.9974 65.2815ZM41.8172 68.3234C41.8461 68.5787 41.8691 68.8463 41.8859 69.1274L42.8841 69.0677C42.8663 68.7701 42.8418 68.4849 42.8109 68.211L41.8172 68.3234ZM41.885 69.0975C41.885 69.4803 41.899 69.8464 41.92 70.1972L42.9182 70.1374C42.8981 69.8016 42.885 69.456 42.885 69.0975H41.885ZM42.0922 72.3333C42.1418 73.0661 42.1431 73.7109 42.0146 74.3279L42.9936 74.5318C43.15 73.7807 43.1415 73.0281 43.0899 72.2657L42.0922 72.3333ZM41.2193 76.0592C41.0387 76.3017 40.8222 76.5503 40.5629 76.8064L41.2656 77.5179C41.5571 77.23 41.8075 76.9436 42.0213 76.6565L41.2193 76.0592ZM40.5629 76.8064C40.3791 76.988 40.1969 77.1611 40.0135 77.3231L40.6754 78.0727C40.877 77.8946 41.0733 77.7078 41.2656 77.5179L40.5629 76.8064ZM38.8432 78.1517C38.4395 78.3568 38.0171 78.4812 37.5527 78.498L37.5891 79.4974C38.2182 79.4745 38.782 79.3045 39.2962 79.0431L38.8432 78.1517ZM36.2014 78.2711C35.9914 78.1977 35.7704 78.1048 35.5377 77.9898L35.0949 78.8864C35.361 79.0179 35.6196 79.127 35.8715 79.2151L36.2014 78.2711ZM35.5377 77.9898C35.2985 77.8717 35.0769 77.5899 34.9152 77.1113L33.9678 77.4313C34.1679 78.0236 34.5129 78.599 35.0949 78.8864L35.5377 77.9898ZM34.7622 74.3841C34.8076 74.0925 34.8693 73.8357 34.9401 73.6301C35.0137 73.4166 35.0859 73.2916 35.1347 73.2349L34.3763 72.5831C34.2089 72.7778 34.0863 73.0385 33.9947 73.3044C33.9003 73.5783 33.8264 73.8949 33.7741 74.2303L34.7622 74.3841ZM35.1347 73.2349C35.3284 73.0094 35.5339 72.7903 35.7495 72.5788L35.0492 71.8649C34.8139 72.0957 34.589 72.3356 34.3763 72.5831L35.1347 73.2349ZM37.1338 71.4255C37.6294 71.0761 38.1505 70.769 38.684 70.5139L38.2526 69.6117C37.6664 69.892 37.097 70.2279 36.5576 70.6083L37.1338 71.4255ZM40.3576 69.9017C40.947 69.7529 41.5308 69.6775 42.0936 69.6847L42.1063 68.6848C41.4462 68.6764 40.7755 68.7648 40.1127 68.9322L40.3576 69.9017ZM43.7694 69.9862C44.0312 70.0843 44.2844 70.2074 44.5271 70.3572L45.0524 69.5063C44.7532 69.3216 44.4414 69.1701 44.1202 69.0497L43.7694 69.9862ZM44.5271 70.3572C44.7965 70.5235 45.067 70.6619 45.3385 70.7757L45.725 69.8534C45.5021 69.76 45.2779 69.6455 45.0524 69.5063L44.5271 70.3572ZM47.1083 71.199C47.7145 71.2471 48.3086 71.2067 48.8823 71.1253L48.7417 70.1352C48.2162 70.2098 47.6991 70.2427 47.1874 70.2021L47.1083 71.199ZM50.5602 70.7971C51.1215 70.6699 51.6487 70.5469 52.1629 70.465L52.0055 69.4774C51.4518 69.5657 50.8875 69.6976 50.3392 69.8218L50.5602 70.7971ZM53.6924 70.3937C53.9359 70.4202 54.1714 70.4697 54.4002 70.5472L54.7211 69.6001C54.4165 69.4969 54.1089 69.4331 53.8007 69.3996L53.6924 70.3937ZM54.4002 70.5472C54.7008 70.6491 54.9671 70.7625 55.2055 70.8869L55.6681 70.0003C55.3798 69.8499 55.0655 69.7168 54.7211 69.6001L54.4002 70.5472ZM56.5163 71.9498C56.8606 72.3713 57.1443 72.8721 57.4262 73.4733L58.3316 73.0488C58.0332 72.4123 57.7088 71.829 57.2908 71.3172L56.5163 71.9498ZM58.1671 75.2016C58.2845 75.4837 58.4083 75.7786 58.5413 76.0852L59.4587 75.6872C59.3286 75.3874 59.2071 75.0978 59.0904 74.8175L58.1671 75.2016Z" fill="#2C2C2C"/>
<path d="M53.16 86V82.082H50.04V86H49.002V77.738H50.04V81.23H53.16V77.738H54.198V86H53.16ZM59.2933 78.632V86H58.2553V78.632H55.6753V77.738H61.9093L61.8013 78.632H59.2933ZM68.7566 77.738L69.2246 86H68.2226L67.9646 81.686C67.9526 81.394 67.9406 81.098 67.9286 80.798C67.9166 80.498 67.9086 80.21 67.9046 79.934C67.9006 79.658 67.8986 79.412 67.8986 79.196C67.8986 78.98 67.8986 78.812 67.8986 78.692L66.5066 84.518H65.4626L63.9686 78.692C63.9726 78.808 63.9766 78.98 63.9806 79.208C63.9846 79.432 63.9866 79.686 63.9866 79.97C63.9906 80.254 63.9886 80.546 63.9806 80.846C63.9766 81.142 63.9686 81.418 63.9566 81.674L63.7346 86H62.7566L63.2246 77.738H64.6766L66.0146 83.396L67.2926 77.738H68.7566ZM71.2119 86V77.738H72.2559V85.07H76.0239L75.9039 86H71.2119Z" fill="#2C2C2C"/>
<g clip-path="url(#clip0_365_223)">
<g filter="url(#filter0_d_365_223)">
<path fill-rule="evenodd" clip-rule="evenodd" d="M18.2721 62.5275L3.70168 21.55C2.72387 18.8001 4.29947 15.8007 7.11863 15.0453L46.4002 4.51985C49.2193 3.76445 52.0835 5.57421 52.6117 8.44464L60.4821 51.2174C60.8551 53.2447 59.9458 55.2932 58.1919 56.3763L43.2107 65.6286C42.3782 66.1428 41.4132 66.4014 40.4352 66.3723L22.8349 65.8502C20.7744 65.7891 18.9627 64.4697 18.2721 62.5275ZM21.0987 61.5225C21.375 62.2993 22.0997 62.8271 22.9238 62.8515L40.5241 63.3737C40.9153 63.3853 41.3013 63.2818 41.6343 63.0762L56.6156 53.8239C57.3171 53.3906 57.6808 52.5712 57.5316 51.7603L49.6612 8.98754C49.45 7.83937 48.3043 7.11547 47.1766 7.41763L7.89509 17.9431C6.76742 18.2452 6.13719 19.445 6.52831 20.545L21.0987 61.5225Z" fill="#FAF3E0"/>
<path d="M18.4134 62.4773L3.84301 21.4998C2.89454 18.8323 4.42286 15.9229 7.15746 15.1902L46.439 4.66474C49.1736 3.93201 51.9518 5.68747 52.4642 8.47179L60.3346 51.2445C60.6964 53.211 59.8143 55.198 58.1131 56.2487L43.1319 65.501C42.3244 65.9997 41.3883 66.2506 40.4396 66.2224L22.8393 65.7003C20.8407 65.641 19.0833 64.3612 18.4134 62.4773ZM20.9574 61.5727C21.2543 62.4079 22.0334 62.9752 22.9194 63.0015L40.5197 63.5236C40.9402 63.5361 41.3552 63.4249 41.7132 63.2038L56.6944 53.9515C57.4485 53.4857 57.8396 52.6049 57.6791 51.7332L49.8087 8.9604C49.5816 7.72611 48.35 6.94792 47.1378 7.27274L7.85627 17.7982C6.64402 18.123 5.96652 19.4127 6.38698 20.5952L20.9574 61.5727Z" stroke="#DED0AB" stroke-width="0.3"/>
</g>
<path d="M6.387 20.5952L20.9574 61.5727C21.2544 62.4078 22.0334 62.9751 22.9194 63.0014L40.5197 63.5235C40.9402 63.536 41.3552 63.4248 41.7132 63.2037L56.6944 53.9514C57.4485 53.4857 57.8396 52.6048 57.6792 51.7331L49.8088 8.96034C49.5817 7.72606 48.35 6.94786 47.1378 7.27268L7.85629 17.7981C6.64404 18.123 5.96654 19.4127 6.387 20.5952Z" fill="#E44D26" stroke="#DED0AB" stroke-width="0.3"/>
<path d="M46.6175 11.4496L28.5064 16.3025L40.3959 60.6747L53.6716 52.2646L46.6175 11.4496Z" fill="#F16529"/>
<path d="M22.8003 42.0958L16.379 25.3755L44.4512 17.8536L45.0015 23.5295L23.2682 29.353L25.8722 35.4492L45.7944 30.1111L48.5935 47.8019L38.6974 54.3358L26.8602 53.6253L23.5282 44.8124L28.9616 43.3566L31.0803 47.6417L36.9989 47.997L41.947 44.73L40.9114 37.2429L22.8003 42.0958Z" fill="white"/>
</g>
<defs>
<filter id="filter0_d_365_223" x="3.41089" y="4.3479" width="58.154" height="63.0266" filterUnits="userSpaceOnUse" color-interpolation-filters="sRGB">
<feFlood flood-opacity="0" result="BackgroundImageFix"/>
<feColorMatrix in="SourceAlpha" type="matrix" values="0 0 0 0 0 0 0 0 0 0 0 0 0 0 0 0 0 0 127 0" result="hardAlpha"/>
<feOffset dx="1" dy="1"/>
<feComposite in2="hardAlpha" operator="out"/>
<feColorMatrix type="matrix" values="0 0 0 0 0.890196 0 0 0 0 0.85098 0 0 0 0 0.74902 0 0 0 1 0"/>
<feBlend mode="normal" in2="BackgroundImageFix" result="effect1_dropShadow_365_223"/>
<feBlend mode="normal" in="SourceGraphic" in2="effect1_dropShadow_365_223" result="shape"/>
</filter>
<clipPath id="clip0_365_223">
<rect width="55" height="65" fill="white" transform="translate(0 14.2351) rotate(-15)"/>
</clipPath>
</defs>
</svg>
