<svg width="93" height="88" viewBox="0 0 93 88" fill="none" xmlns="http://www.w3.org/2000/svg">
<path d="M29.1544 24.5001C29.4305 24.496 29.6576 24.7166 29.6616 24.9927C29.6656 25.2688 29.445 25.4959 29.1689 25.4999L29.1544 24.5001ZM21.6616 30L21.2735 29.6848L21.6616 30ZM14.6616 34.0458H14.1616V34.0313L14.1625 34.0168L14.6616 34.0458ZM18.5409 43.3332L18.1844 43.6838L18.5409 43.3332ZM25.2996 44.3891L25.0729 43.9434L25.2996 44.3891ZM25.5357 36.7797L25.1518 37.1L25.5357 36.7797ZM13.1616 43.3332L12.8689 43.7385L13.1616 43.3332ZM6.47197 34.0458L6.32924 33.5666L6.47197 34.0458ZM6.16076 56.0294C6.14454 56.305 5.90793 56.5154 5.63226 56.4991L1.14003 56.2349C0.864359 56.2187 0.654034 55.9821 0.67025 55.7064C0.686464 55.4307 0.923082 55.2204 1.19875 55.2366L5.19184 55.4715L5.42673 51.4784C5.44295 51.2027 5.67957 50.9924 5.95523 51.0086C6.2309 51.0248 6.44122 51.2615 6.42501 51.5371L6.16076 56.0294ZM28.0764 25.5946C27.804 25.64 27.5465 25.4559 27.5011 25.1835C27.4557 24.9111 27.6398 24.6535 27.9121 24.6082L28.0764 25.5946ZM25.5491 25.4619C25.7874 25.3225 26.0937 25.4027 26.2331 25.641C26.3725 25.8794 26.2923 26.1857 26.054 26.3251L25.5491 25.4619ZM24.3229 27.7026C24.127 27.8973 23.8105 27.8963 23.6158 27.7005C23.4211 27.5046 23.4221 27.188 23.618 26.9934L24.3229 27.7026ZM22.021 28.7728C22.1976 28.5605 22.5129 28.5316 22.7252 28.7082C22.9374 28.8848 22.9664 29.2001 22.7898 29.4124L22.021 28.7728ZM20.9837 31.051C20.7302 31.1605 20.436 31.0437 20.3265 30.7902C20.217 30.5367 20.3338 30.2424 20.5873 30.1329L20.9837 31.051ZM18.6202 30.7258C18.8877 30.6573 19.1601 30.8186 19.2286 31.0862C19.2971 31.3537 19.1357 31.6261 18.8682 31.6946L18.6202 30.7258ZM16.885 32.2906C16.6283 32.3924 16.3377 32.2668 16.2359 32.0101C16.1341 31.7534 16.2596 31.4628 16.5163 31.361L16.885 32.2906ZM14.5678 32.7673C14.7191 32.5363 15.029 32.4717 15.26 32.623C15.491 32.7744 15.5556 33.0843 15.4043 33.3153L14.5678 32.7673ZM15.1906 34.8699C15.2099 35.1454 15.0023 35.3844 14.7268 35.4037C14.4514 35.423 14.2124 35.2154 14.1931 34.9399L15.1906 34.8699ZM14.4389 36.7089C14.3827 36.4385 14.5562 36.1738 14.8266 36.1175C15.0969 36.0612 15.3617 36.2348 15.4179 36.5051L14.4389 36.7089ZM15.8599 38.0985C15.9508 38.3593 15.813 38.6443 15.5523 38.7352C15.2915 38.8261 15.0064 38.6883 14.9156 38.4275L15.8599 38.0985ZM15.6078 40.0697C15.4846 39.8226 15.5852 39.5224 15.8323 39.3992C16.0795 39.2761 16.3797 39.3766 16.5028 39.6238L15.6078 40.0697ZM17.3329 41.0566C17.486 41.2864 17.4239 41.5968 17.1941 41.7499C16.9643 41.9031 16.6539 41.8409 16.5007 41.6112L17.3329 41.0566ZM17.5798 43.0286C17.3991 42.8198 17.4218 42.5041 17.6305 42.3233C17.8393 42.1425 18.1551 42.1652 18.3358 42.374L17.5798 43.0286ZM19.5235 43.507C19.7502 43.6648 19.806 43.9764 19.6482 44.2031C19.4904 44.4297 19.1788 44.4855 18.9522 44.3277L19.5235 43.507ZM20.7201 45.1885C20.4567 45.1056 20.3104 44.8249 20.3934 44.5615C20.4763 44.2981 20.757 44.1518 21.0204 44.2347L20.7201 45.1885ZM22.6681 44.4997C22.9442 44.5026 23.1657 44.7289 23.1627 45.005C23.1598 45.2811 22.9336 45.5026 22.6574 45.4996L22.6681 44.4997ZM24.6087 45.2111C24.3456 45.2947 24.0644 45.1492 23.9808 44.886C23.8972 44.6228 24.0427 44.3417 24.3059 44.258L24.6087 45.2111ZM25.4181 43.433C25.517 43.1752 25.8062 43.0464 26.0641 43.1453C26.3219 43.2443 26.4507 43.5335 26.3517 43.7913L25.4181 43.433ZM26.7245 41.6828C26.7103 41.9586 26.4753 42.1707 26.1995 42.1565C25.9237 42.1423 25.7116 41.9073 25.7258 41.6315L26.7245 41.6828ZM25.6912 39.7074C25.6692 39.4322 25.8745 39.1912 26.1498 39.1692C26.425 39.1472 26.666 39.3525 26.688 39.6278L25.6912 39.7074ZM26.3811 37.5811C26.4466 37.8494 26.2823 38.12 26.014 38.1855C25.7458 38.251 25.4752 38.0867 25.4097 37.8184L26.3811 37.5811ZM24.6629 36.8025C24.3904 36.7579 24.2056 36.5009 24.2501 36.2283C24.2947 35.9558 24.5517 35.771 24.8243 35.8156L24.6629 36.8025ZM22.7174 36.3988C22.9546 36.2575 23.2615 36.3353 23.4028 36.5725C23.5441 36.8098 23.4663 37.1167 23.2291 37.2579L22.7174 36.3988ZM21.7759 38.3183C21.5634 38.4946 21.2482 38.4652 21.0718 38.2527C20.8955 38.0402 20.9249 37.725 21.1374 37.5487L21.7759 38.3183ZM19.7069 38.8095C19.9103 38.6228 20.2266 38.6363 20.4133 38.8398C20.6001 39.0432 20.5865 39.3595 20.383 39.5462L19.7069 38.8095ZM19.0043 40.8241C18.8015 41.0115 18.4852 40.9989 18.2978 40.7961C18.1104 40.5932 18.1229 40.2769 18.3258 40.0895L19.0043 40.8241ZM16.9395 41.3301C17.1497 41.1511 17.4653 41.1764 17.6443 41.3867C17.8234 41.5969 17.798 41.9125 17.5878 42.0915L16.9395 41.3301ZM16.0431 43.2737C15.8119 43.4248 15.502 43.3599 15.351 43.1287C15.1999 42.8976 15.2648 42.5877 15.496 42.4366L16.0431 43.2737ZM14.0157 43.07C14.2911 43.0493 14.5311 43.2558 14.5517 43.5311C14.5724 43.8065 14.3659 44.0465 14.0906 44.0672L14.0157 43.07ZM11.9985 42.9441C11.8166 42.7364 11.8375 42.4205 12.0452 42.2385C12.253 42.0566 12.5689 42.0775 12.7508 42.2853L11.9985 42.9441ZM11.7533 40.6001C11.8572 40.8559 11.734 41.1476 11.4782 41.2515C11.2223 41.3553 10.9307 41.2321 10.8268 40.9763L11.7533 40.6001ZM10.1774 38.8676C10.1123 38.5993 10.277 38.3289 10.5453 38.2637C10.8137 38.1986 11.084 38.3633 11.1492 38.6316L10.1774 38.8676ZM10.6574 36.5452C10.7273 36.8124 10.5673 37.0856 10.3002 37.1555C10.033 37.2254 9.75981 37.0655 9.68993 36.7983L10.6574 36.5452ZM8.9643 35.0006C8.80214 34.7771 8.85188 34.4645 9.0754 34.3023C9.29891 34.1401 9.61156 34.1899 9.77372 34.4134L8.9643 35.0006ZM7.50071 33.3521C7.77655 33.3392 8.01066 33.5523 8.02361 33.8281C8.03655 34.104 7.82344 34.3381 7.5476 34.351L7.50071 33.3521ZM5.97056 34.9069C5.76539 35.0917 5.44923 35.0752 5.26442 34.8701C5.0796 34.6649 5.09611 34.3487 5.30128 34.1639L5.97056 34.9069ZM4.07603 35.9288C4.1937 35.679 4.4916 35.5718 4.74142 35.6895C4.99124 35.8072 5.09838 36.1051 4.98072 36.3549L4.07603 35.9288ZM4.3423 38.1151C4.26754 38.381 3.99143 38.5358 3.7256 38.4611C3.45977 38.3863 3.30489 38.1102 3.37965 37.8444L4.3423 38.1151ZM2.93918 39.8014C2.98722 39.5294 3.24661 39.3479 3.51854 39.396C3.79047 39.444 3.97197 39.7034 3.92393 39.9753L2.93918 39.8014ZM3.66155 41.8809C3.63352 42.1556 3.3881 42.3556 3.11338 42.3276C2.83867 42.2996 2.63869 42.0541 2.66671 41.7794L3.66155 41.8809ZM2.52706 43.7656C2.53806 43.4897 2.77066 43.2749 3.04659 43.2859C3.32251 43.2969 3.53727 43.5295 3.52626 43.8054L2.52706 43.7656ZM3.50551 45.735C3.51054 46.0111 3.2908 46.239 3.0147 46.244C2.7386 46.2491 2.51071 46.0293 2.50567 45.7532L3.50551 45.735ZM2.60087 47.7406C2.57928 47.4653 2.78494 47.2246 3.06024 47.203C3.33553 47.1814 3.57621 47.3871 3.59781 47.6624L2.60087 47.7406ZM3.81178 49.576C3.85207 49.8492 3.66327 50.1033 3.39008 50.1436C3.11689 50.1839 2.86277 49.9951 2.82248 49.7219L3.81178 49.576ZM3.19461 51.6868C3.13116 51.4181 3.29759 51.1488 3.56635 51.0853C3.8351 51.0219 4.1044 51.1883 4.16786 51.457L3.19461 51.6868ZM4.70815 53.2787C4.80378 53.5378 4.67129 53.8253 4.41224 53.921C4.15318 54.0166 3.86565 53.8841 3.77002 53.625L4.70815 53.2787ZM4.65785 55.4816C4.51155 55.2474 4.58282 54.939 4.81703 54.7927C5.05123 54.6464 5.35969 54.7177 5.50598 54.9519L4.65785 55.4816ZM29.1689 25.4999C28.7791 25.5056 28.4166 25.5379 28.0764 25.5946L27.9121 24.6082C28.3054 24.5427 28.7181 24.5064 29.1544 24.5001L29.1689 25.4999ZM26.054 26.3251C25.4543 26.6759 24.8928 27.1363 24.3229 27.7026L23.618 26.9934C24.2272 26.3878 24.8551 25.8679 25.5491 25.4619L26.054 26.3251ZM22.7898 29.4124C22.5503 29.7002 22.3048 30.0012 22.0497 30.3152L21.2735 29.6848C21.5291 29.3701 21.7776 29.0654 22.021 28.7728L22.7898 29.4124ZM22.0497 30.3152C21.7808 30.6463 21.3893 30.8759 20.9837 31.051L20.5873 30.1329C20.935 29.9828 21.1539 29.8321 21.2735 29.6848L22.0497 30.3152ZM18.8682 31.6946C18.171 31.8731 17.4859 32.0522 16.885 32.2906L16.5163 31.361C17.1859 31.0955 17.9324 30.9019 18.6202 30.7258L18.8682 31.6946ZM15.4043 33.3153C15.2661 33.5261 15.1783 33.7724 15.1608 34.0747L14.1625 34.0168C14.1901 33.5408 14.3332 33.1254 14.5678 32.7673L15.4043 33.3153ZM15.1616 34.0458C15.1616 34.3201 15.1713 34.595 15.1906 34.8699L14.1931 34.9399C14.1722 34.642 14.1616 34.3437 14.1616 34.0458H15.1616ZM15.4179 36.5051C15.5297 37.0422 15.6774 37.5748 15.8599 38.0985L14.9156 38.4275C14.719 37.8633 14.5596 37.2889 14.4389 36.7089L15.4179 36.5051ZM16.5028 39.6238C16.7478 40.1155 17.0249 40.5945 17.3329 41.0566L16.5007 41.6112C16.1694 41.114 15.8714 40.5988 15.6078 40.0697L16.5028 39.6238ZM18.3358 42.374C18.516 42.5821 18.7032 42.7851 18.8975 42.9827L18.1844 43.6838C17.9753 43.4711 17.7737 43.2525 17.5798 43.0286L18.3358 42.374ZM18.8975 42.9827C19.0787 43.167 19.2887 43.3435 19.5235 43.507L18.9522 44.3277C18.6702 44.1315 18.4121 43.9154 18.1844 43.6838L18.8975 42.9827ZM21.0204 44.2347C21.54 44.3983 22.0976 44.4936 22.6681 44.4997L22.6574 45.4996C21.9832 45.4925 21.3281 45.3799 20.7201 45.1885L21.0204 44.2347ZM24.3059 44.258C24.5639 44.1761 24.8202 44.0719 25.0729 43.9434L25.5262 44.8347C25.2244 44.9882 24.9177 45.1129 24.6087 45.2111L24.3059 44.258ZM25.0729 43.9434C25.1581 43.9 25.2907 43.7649 25.4181 43.433L26.3517 43.7913C26.1916 44.2085 25.9398 44.6244 25.5262 44.8347L25.0729 43.9434ZM25.7258 41.6315C25.7577 41.0104 25.7419 40.3429 25.6912 39.7074L26.688 39.6278C26.7416 40.2995 26.759 41.0113 26.7245 41.6828L25.7258 41.6315ZM25.4097 37.8184C25.3596 37.6133 25.3079 37.4441 25.2577 37.3145C25.2043 37.1767 25.1646 37.1154 25.1518 37.1L25.9195 36.4593C26.036 36.5988 26.1227 36.779 26.1902 36.9532C26.2608 37.1356 26.3244 37.3491 26.3811 37.5811L25.4097 37.8184ZM25.1518 37.1C24.9963 36.9137 24.835 36.8306 24.6629 36.8025L24.8243 35.8156C25.2493 35.8851 25.6206 36.1011 25.9195 36.4593L25.1518 37.1ZM23.2291 37.2579C22.7818 37.5243 22.2943 37.8882 21.7759 38.3183L21.1374 37.5487C21.6747 37.1029 22.207 36.7027 22.7174 36.3988L23.2291 37.2579ZM20.383 39.5462C19.9243 39.9672 19.4696 40.3944 19.0043 40.8241L18.3258 40.0895C18.7797 39.6703 19.2499 39.2289 19.7069 38.8095L20.383 39.5462ZM17.5878 42.0915C17.0636 42.5378 16.5437 42.9465 16.0431 43.2737L15.496 42.4366C15.947 42.1419 16.431 41.763 16.9395 41.3301L17.5878 42.0915ZM14.0906 44.0672C13.6604 44.0994 13.2398 44.0064 12.8689 43.7385L13.4544 42.9279C13.6076 43.0386 13.7862 43.0872 14.0157 43.07L14.0906 44.0672ZM12.8689 43.7385C12.5405 43.5014 12.2524 43.234 11.9985 42.9441L12.7508 42.2853C12.958 42.5219 13.1908 42.7375 13.4544 42.9279L12.8689 43.7385ZM10.8268 40.9763C10.5468 40.2866 10.3465 39.5636 10.1774 38.8676L11.1492 38.6316C11.314 39.3101 11.5007 39.9778 11.7533 40.6001L10.8268 40.9763ZM9.68993 36.7983C9.48878 36.0293 9.26954 35.4214 8.9643 35.0006L9.77372 34.4134C10.1958 34.9952 10.4519 35.7598 10.6574 36.5452L9.68993 36.7983ZM7.5476 34.351C7.28557 34.3633 6.97751 34.4169 6.6147 34.525L6.32924 33.5666C6.75185 33.4407 7.14115 33.369 7.50071 33.3521L7.5476 34.351ZM6.6147 34.525C6.40217 34.5883 6.18695 34.712 5.97056 34.9069L5.30128 34.1639C5.60611 33.8893 5.94857 33.68 6.32924 33.5666L6.6147 34.525ZM4.98072 36.3549C4.74221 36.8613 4.52838 37.4535 4.3423 38.1151L3.37965 37.8444C3.57704 37.1426 3.80878 36.4962 4.07603 35.9288L4.98072 36.3549ZM3.92393 39.9753C3.81639 40.5841 3.72869 41.2227 3.66155 41.8809L2.66671 41.7794C2.73612 41.099 2.82705 40.4362 2.93918 39.8014L3.92393 39.9753ZM3.52626 43.8054C3.50081 44.4438 3.49375 45.0898 3.50551 45.735L2.50567 45.7532C2.49356 45.0887 2.50083 44.4233 2.52706 43.7656L3.52626 43.8054ZM3.59781 47.6624C3.6489 48.3137 3.72013 48.9545 3.81178 49.576L2.82248 49.7219C2.72729 49.0764 2.65361 48.4129 2.60087 47.7406L3.59781 47.6624ZM4.16786 51.457C4.32168 52.1086 4.50185 52.7199 4.70815 53.2787L3.77002 53.625C3.54751 53.0223 3.35622 52.3713 3.19461 51.6868L4.16786 51.457ZM5.50598 54.9519C5.67422 55.2212 5.85091 55.4604 6.03533 55.6678L5.28792 56.3322C5.06113 56.077 4.85147 55.7916 4.65785 55.4816L5.50598 54.9519Z" fill="#2C2C2C"/>
<path d="M15.0897 60.1525L13.6613 65.4844C13.5723 65.8167 13.4388 66.1371 13.2609 66.4456C13.088 66.7512 12.8609 67.0113 12.5798 67.2259C12.3036 67.4376 11.968 67.5775 11.5729 67.6456C11.1778 67.7137 10.7176 67.6774 10.1921 67.5366C9.80184 67.432 9.43396 67.2672 9.08844 67.0421C8.74678 66.8181 8.4491 66.5458 8.19542 66.2252L8.82024 65.6783C9.11001 65.9878 9.3875 66.2195 9.65272 66.3734C9.91897 66.5234 10.1699 66.63 10.4056 66.6931C10.962 66.8422 11.4366 66.7788 11.8293 66.5031C12.2259 66.2283 12.5075 65.7799 12.6742 65.1579L13.8666 60.7068L11.502 60.0733L11.7225 59.2504L15.0897 60.1525ZM19.1115 68.3546C19.0463 68.598 19.0393 68.7866 19.0904 68.9204C19.1415 69.0542 19.2448 69.1709 19.4003 69.2705L18.9795 69.8908C18.7261 69.7856 18.5185 69.6409 18.3566 69.4568C18.1958 69.2688 18.1072 69.0276 18.0908 68.7333C17.795 68.9564 17.4632 69.0973 17.0954 69.1562C16.7287 69.2112 16.3464 69.1853 15.9484 69.0787C15.3379 68.9152 14.903 68.6144 14.6435 68.1763C14.384 67.7382 14.3303 67.2352 14.4825 66.6672C14.6512 66.0374 15.026 65.6202 15.6067 65.4155C16.1875 65.2108 16.9415 65.2327 17.8688 65.4811L18.7671 65.7218L18.9037 65.2118C19.0217 64.7713 18.9756 64.4256 18.7654 64.1746C18.5601 63.9209 18.2295 63.7329 17.7735 63.6108C17.5726 63.5569 17.3302 63.5189 17.0463 63.4967C16.7634 63.4706 16.4486 63.4711 16.1017 63.4983L16.0439 62.6939C16.4559 62.6553 16.8339 62.6509 17.1779 62.681C17.5218 62.711 17.8425 62.7658 18.1401 62.8455C18.9012 63.0495 19.4235 63.3799 19.7069 63.8368C19.9952 64.2909 20.0581 64.8212 19.8956 65.4278L19.1115 68.3546ZM16.3964 68.4036C16.6977 68.4844 17.0058 68.4862 17.3205 68.409C17.6362 68.3279 17.9191 68.1759 18.1693 67.9531L18.5901 66.3825L17.7092 66.1465C17.0369 65.9664 16.5306 65.955 16.1903 66.1123C15.8539 66.2706 15.6334 66.5449 15.5288 66.9351C15.4274 67.3138 15.4469 67.6275 15.5873 67.8763C15.7326 68.1223 16.0023 68.2981 16.3964 68.4036ZM27.1309 65.3909L23.2763 70.899L22.1461 70.5962L21.5787 63.9034L22.6104 64.1798L22.9806 69.8694L26.1225 65.1207L27.1309 65.3909ZM31.1574 71.5817C31.0922 71.8251 31.0851 72.0137 31.1362 72.1475C31.1874 72.2813 31.2907 72.398 31.4462 72.4976L31.0254 73.1179C30.7719 73.0127 30.5643 72.868 30.4024 72.6839C30.2416 72.4959 30.153 72.2547 30.1366 71.9605C29.8408 72.1835 29.509 72.3244 29.1413 72.3833C28.7746 72.4383 28.3922 72.4124 27.9942 72.3058C27.3838 72.1423 26.9488 71.8415 26.6893 71.4034C26.4298 70.9653 26.3762 70.4623 26.5283 69.8943C26.6971 69.2646 27.0718 68.8473 27.6526 68.6426C28.2333 68.4379 28.9873 68.4598 29.9146 68.7082L30.813 68.9489L30.9496 68.4389C31.0676 67.9984 31.0215 67.6527 30.8113 67.4018C30.6059 67.148 30.2753 66.96 29.8194 66.8379C29.6185 66.7841 29.3761 66.746 29.0921 66.7238C28.8093 66.6977 28.4944 66.6982 28.1475 66.7254L28.0897 65.9211C28.5018 65.8824 28.8798 65.878 29.2237 65.9081C29.5677 65.9381 29.8884 65.993 30.1859 66.0727C30.9471 66.2766 31.4693 66.607 31.7528 67.0639C32.0411 67.518 32.104 68.0483 31.9415 68.6549L31.1574 71.5817ZM28.4422 71.6308C28.7436 71.7115 29.0516 71.7133 29.3663 71.6361C29.682 71.555 29.965 71.4031 30.2152 71.1802L30.6359 69.6096L29.755 69.3736C29.0827 69.1935 28.5764 69.1821 28.2361 69.3394C27.8997 69.4977 27.6792 69.772 27.5747 70.1622C27.4732 70.5409 27.4927 70.8546 27.6331 71.1034C27.7784 71.3494 28.0481 71.5252 28.4422 71.6308ZM38.0986 72.5033C37.9765 72.9593 37.7538 73.3344 37.4306 73.6288C37.1085 73.9193 36.7041 74.1071 36.2175 74.1921C35.732 74.2732 35.1782 74.2304 34.5562 74.0638C33.9727 73.9075 33.4672 73.6768 33.0396 73.3717C32.6158 73.0677 32.2793 72.7084 32.0301 72.2938L32.8072 71.7814C33.016 72.1148 33.2794 72.4069 33.5973 72.6578C33.9163 72.9047 34.3173 73.0929 34.8002 73.2223C35.1248 73.3092 35.4421 73.3383 35.7521 73.3096C36.0631 73.2769 36.3345 73.1757 36.5664 73.0059C36.7992 72.8323 36.9607 72.5774 37.0508 72.2412C37.1201 71.9824 37.1289 71.7487 37.0771 71.5402C37.0253 71.3317 36.8905 71.1237 36.6727 70.9163C36.456 70.705 36.1378 70.4707 35.7181 70.2133C35.2341 69.918 34.8247 69.622 34.4901 69.3253C34.1604 69.0258 33.9276 68.7046 33.7917 68.3617C33.6596 68.0199 33.65 67.6384 33.7628 67.2173C33.8695 66.8193 34.0743 66.4953 34.3773 66.2452C34.6804 65.9951 35.0484 65.8349 35.4813 65.7645C35.9192 65.6913 36.3912 65.7225 36.8973 65.8581C37.4499 66.0061 37.9077 66.2137 38.271 66.4808C38.6391 66.7451 38.95 67.0685 39.2036 67.4512L38.437 67.9477C38.2194 67.6161 37.9614 67.3503 37.663 67.1503C37.3657 66.9464 37.047 66.7989 36.707 66.7078C36.4172 66.6302 36.1387 66.6032 35.8715 66.6268C35.6091 66.6477 35.3813 66.7253 35.1879 66.8599C34.9994 66.9916 34.8694 67.1907 34.798 67.4573C34.7369 67.6853 34.7459 67.8989 34.8251 68.0982C34.9042 68.2974 35.072 68.5059 35.3283 68.7237C35.5858 68.9376 35.9474 69.1877 36.4131 69.474C36.7945 69.7045 37.1366 69.9577 37.4396 70.2335C37.7474 70.5064 37.9681 70.8264 38.1017 71.1935C38.2363 71.5567 38.2353 71.9933 38.0986 72.5033ZM41.4243 75.0031C41.7296 75.0849 42.027 75.1107 42.3167 75.0807C42.6102 75.0516 42.8897 74.9898 43.1552 74.8953L43.4596 75.6602C43.132 75.8167 42.7631 75.9105 42.3532 75.9414C41.9432 75.9724 41.5585 75.9397 41.1992 75.8435C40.5926 75.681 40.1095 75.4128 39.75 75.039C39.3954 74.6624 39.1692 74.2084 39.0713 73.677C38.9746 73.1418 39.0116 72.5554 39.1824 71.9178C39.3459 71.3074 39.6044 70.7907 39.9579 70.3677C40.3163 69.942 40.7453 69.6469 41.2448 69.4826C41.7482 69.3193 42.3051 69.3194 42.9156 69.483C43.3059 69.5875 43.6549 69.7452 43.9629 69.9561C44.2757 70.1641 44.5435 70.4243 44.7663 70.7366L44.1171 71.2584C43.9069 71.0074 43.6823 70.8023 43.4434 70.6431C43.2094 70.481 42.9571 70.3637 42.6867 70.2913C42.1612 70.1505 41.6757 70.2316 41.2301 70.5346C40.7845 70.8376 40.4535 71.3929 40.2372 72.2004C40.0923 72.7413 40.051 73.2044 40.1134 73.5897C40.1808 73.9722 40.3279 74.2808 40.5549 74.5155C40.7868 74.7474 41.0766 74.9099 41.4243 75.0031ZM44.5571 76.6002L44.7574 75.8525L45.7079 76.1072L46.9422 71.4997L45.9917 71.245L46.192 70.4974L47.8844 70.9508L47.6774 72.442C48.0477 72.0029 48.4376 71.6912 48.8472 71.5069C49.2569 71.3226 49.738 71.3045 50.2905 71.4525C50.4605 71.498 50.6075 71.5519 50.7317 71.6142C50.8607 71.6736 50.9896 71.7412 51.1183 71.8171L50.6014 72.6104C50.4832 72.5415 50.3741 72.4853 50.2739 72.4419C50.1747 72.3946 50.0575 72.3529 49.9223 72.3167C49.4548 72.1914 49.0085 72.2499 48.5833 72.4921C48.1581 72.7344 47.755 73.1647 47.374 73.7832L46.6815 76.368L47.9218 76.7003L47.7215 77.4479L44.5571 76.6002ZM49.6267 73.6289L49.9822 72.3017L50.2779 71.592L51.1183 71.8171L50.4265 73.8431L49.6267 73.6289ZM55.2461 72.923L53.8176 78.255L55.5389 78.7161L55.3324 79.4869L50.7539 78.2603L50.9604 77.4895L52.8439 77.9941L54.0659 73.433L52.2403 72.9439L52.4468 72.173L55.2461 72.923ZM55.2349 69.8577C55.4513 69.9157 55.6056 70.0274 55.6979 70.1929C55.7941 70.3595 55.8168 70.5374 55.7661 70.7267C55.7133 70.9238 55.6031 71.0723 55.4355 71.1724C55.2728 71.2696 55.0833 71.2892 54.8669 71.2312C54.6621 71.1764 54.5117 71.0657 54.4155 70.8991C54.3204 70.7287 54.2992 70.545 54.352 70.3479C54.4027 70.1586 54.5113 70.0158 54.6779 69.9197C54.8445 69.8235 55.0301 69.8028 55.2349 69.8577ZM60.9438 74.3128C61.4847 74.4577 61.8803 74.7045 62.1307 75.0531C62.3848 75.4028 62.5192 75.8363 62.5338 76.3537C62.5495 76.8673 62.4719 77.4428 62.3011 78.0803C62.1365 78.6947 61.9026 79.22 61.5993 79.6564C61.301 80.09 60.9412 80.3973 60.5199 80.5785C60.0987 80.7597 59.6234 80.7794 59.0941 80.6375C58.4257 80.4585 57.9517 80.0789 57.6723 79.4988L56.8929 82.4082L55.8866 82.2691L58.1799 73.709L59.0087 73.931L58.8616 74.8047C59.1695 74.5518 59.5008 74.3817 59.8555 74.2945C60.214 74.2083 60.5768 74.2144 60.9438 74.3128ZM60.5024 75.0331C60.1662 74.943 59.8413 74.9657 59.5276 75.1011C59.2187 75.2337 58.9481 75.4014 58.7157 75.6042L57.9052 78.6295C58.0005 78.9076 58.1493 79.1483 58.3516 79.3516C58.5588 79.552 58.8073 79.6911 59.097 79.7687C59.6032 79.9043 60.0355 79.8131 60.394 79.495C60.7526 79.177 61.041 78.6103 61.2594 77.7951C61.4023 77.2619 61.4706 76.806 61.4643 76.4275C61.4591 76.0451 61.3774 75.7396 61.2192 75.5108C61.062 75.2782 60.8231 75.119 60.5024 75.0331ZM67.4953 82.4162C67.2494 82.4994 66.9673 82.5398 66.6491 82.5373C66.3309 82.5349 66.0289 82.4954 65.7429 82.4188C65.0861 82.2428 64.626 81.9353 64.3627 81.4962C64.0993 81.0571 64.0401 80.5671 64.185 80.0261L65.1601 76.3865L63.7576 76.0107L63.9594 75.2573L65.362 75.6331L65.733 74.2479L66.7378 74.3928L66.3356 75.8939L68.4452 76.4591L68.1275 77.1814L66.1338 76.6473L65.1618 80.2754C65.0707 80.6154 65.0902 80.8981 65.2204 81.1234C65.3543 81.3498 65.63 81.5189 66.0473 81.6307C66.2752 81.6918 66.493 81.7211 66.7007 81.7188C66.9084 81.7165 67.1067 81.695 67.2956 81.6545L67.4953 82.4162Z" fill="#2C2C2C"/>
<g clip-path="url(#clip0_317_326)">
<g filter="url(#filter0_d_317_326)">
<path fill-rule="evenodd" clip-rule="evenodd" d="M37.5683 2.21267L84.4157 14.7654C87.083 15.4801 88.6659 18.2218 87.9512 20.8891L75.3985 67.7365C74.6838 70.4039 71.9421 71.9868 69.2748 71.2721L22.4274 58.7193C19.76 58.0046 18.1771 55.2629 18.8918 52.5956L31.4446 5.74821C32.1593 3.08088 34.9009 1.49797 37.5683 2.21267ZM36.7918 5.11045L83.6392 17.6632C84.7062 17.9491 85.3393 19.0457 85.0534 20.1127L72.5007 66.9601C72.2148 68.027 71.1182 68.6602 70.0512 68.3743L23.2038 55.8216C22.1369 55.5357 21.5037 54.439 21.7896 53.3721L34.3423 6.52467C34.6282 5.45773 35.7249 4.82457 36.7918 5.11045Z" fill="#FAF3E0"/>
<path d="M37.5295 2.35756L84.3769 14.9103C86.9642 15.6036 88.4996 18.263 87.8063 20.8503L75.2536 67.6977C74.5603 70.285 71.9009 71.8204 69.3136 71.1272L22.4662 58.5744C19.8789 57.8812 18.3435 55.2217 19.0367 52.6344L31.5894 5.78703C32.2827 3.19972 34.9421 1.6643 37.5295 2.35756ZM83.678 17.5183L36.8306 4.96556C35.6837 4.65824 34.5048 5.33889 34.1974 6.48584L21.6447 53.3332C21.3374 54.4802 22.018 55.6591 23.165 55.9664L70.0124 68.5192C71.1594 68.8265 72.3383 68.1458 72.6456 66.9989L85.1983 20.1515C85.5057 19.0045 84.825 17.8256 83.678 17.5183Z" stroke="#DED0AB" stroke-width="0.3"/>
</g>
<path d="M83.6392 17.6631L36.7918 5.11041C35.7249 4.82453 34.6282 5.45769 34.3423 6.52462L21.7896 53.372C21.5037 54.439 22.1369 55.5356 23.2038 55.8215L70.0512 68.3742C71.1182 68.6601 72.2148 68.027 72.5007 66.96L85.0535 20.1126C85.3393 19.0457 84.7062 17.949 83.6392 17.6631Z" fill="#FFCA28"/>
<path d="M54.3477 55.0196L58.7433 53.5493C58.7896 54.5471 60.0576 57.2268 62.3981 57.854C64.7386 58.4811 66.1677 57.494 66.3949 56.6464C67.0137 54.3369 64.8419 52.8822 63.7988 52.1836C63.6286 52.0697 63.4888 51.9759 63.3956 51.9019C63.3478 51.8638 63.2745 51.8106 63.1804 51.7425C62.0344 50.9127 57.8064 47.8511 59.2042 42.6347C60.7436 36.8893 66.4654 37.7143 67.7194 38.0503C68.5396 38.2701 72.4569 39.4275 73.4322 43.6452L69.1325 45.2028C68.7696 43.3812 67.5926 42.4963 66.7805 42.2787C64.7743 41.7412 63.9623 43.0998 63.7829 43.7693C63.2795 45.6478 65.2336 47.0739 66.8834 48.2778C67.3151 48.5929 67.7259 48.8926 68.0665 49.1814C69.8186 50.6669 72.3565 53.0097 71.048 57.8932C70.3925 60.3393 67.2798 63.7497 62.1149 62.3658C55.1769 60.5068 54.454 55.8486 54.3477 55.0196Z" fill="#3E3E3E"/>
<path d="M36.1051 50.6572L40.6583 49.2306C40.7169 50.2311 41.448 52.2427 43.1671 52.7033C44.8864 53.164 46.2396 51.634 46.4665 50.7869L50.9288 34.1336L55.7146 35.416L51.2524 52.0693C50.7144 54.3871 48.2095 58.6398 42.5871 57.1333C37.4178 55.7482 36.092 52.1002 36.1051 50.6572Z" fill="#3E3E3E"/>
</g>
<defs>
<filter id="filter0_d_317_326" x="18.7202" y="2.04102" width="70.4026" height="70.4027" filterUnits="userSpaceOnUse" color-interpolation-filters="sRGB">
<feFlood flood-opacity="0" result="BackgroundImageFix"/>
<feColorMatrix in="SourceAlpha" type="matrix" values="0 0 0 0 0 0 0 0 0 0 0 0 0 0 0 0 0 0 127 0" result="hardAlpha"/>
<feOffset dx="1" dy="1"/>
<feComposite in2="hardAlpha" operator="out"/>
<feColorMatrix type="matrix" values="0 0 0 0 0.890196 0 0 0 0 0.85098 0 0 0 0 0.74902 0 0 0 1 0"/>
<feBlend mode="normal" in2="BackgroundImageFix" result="effect1_dropShadow_317_326"/>
<feBlend mode="normal" in="SourceGraphic" in2="effect1_dropShadow_317_326" result="shape"/>
</filter>
<clipPath id="clip0_317_326">
<rect width="62" height="62" fill="white" transform="translate(32.2084) rotate(15)"/>
</clipPath>
</defs>
</svg>
