<svg width="78" height="74" viewBox="0 0 78 74" fill="none" xmlns="http://www.w3.org/2000/svg">
<path d="M40.0071 43.5C39.7309 43.4962 39.5039 43.7168 39.5 43.9929C39.4962 44.2691 39.7168 44.4961 39.9929 44.5L40.0071 43.5ZM49.0724 46.987L49.456 46.6662L49.0724 46.987ZM51.385 53.0975H51.885V53.0826L51.8841 53.0677L51.385 53.0975ZM51 62.4381L50.6486 62.0824L51 62.4381ZM44 63.5L44.2214 63.0517L44 63.5ZM43.7555 56.909L44.1347 57.2349L43.7555 56.909ZM55 56L54.7374 56.4255L55 56ZM68.6464 60.3536C68.8417 60.5488 69.1583 60.5488 69.3536 60.3536L72.5355 57.1716C72.7308 56.9763 72.7308 56.6597 72.5355 56.4645C72.3403 56.2692 72.0237 56.2692 71.8284 56.4645L69 59.2929L66.1716 56.4645C65.9763 56.2692 65.6597 56.2692 65.4645 56.4645C65.2692 56.6597 65.2692 56.9763 65.4645 57.1716L68.6464 60.3536ZM41.2327 44.5176C41.5088 44.5228 41.7369 44.3032 41.7421 44.0271C41.7473 43.751 41.5277 43.523 41.2516 43.5177L41.2327 44.5176ZM43.7836 43.6712C43.5096 43.6364 43.2594 43.8304 43.2247 44.1043C43.1899 44.3783 43.3838 44.6285 43.6578 44.6632L43.7836 43.6712ZM45.9319 45.2328C46.1871 45.3382 46.4794 45.2168 46.5849 44.9616C46.6903 44.7063 46.5689 44.414 46.3136 44.3085L45.9319 45.2328ZM48.546 45.7191C48.3405 45.5346 48.0244 45.5515 47.8399 45.757C47.6553 45.9624 47.6723 46.2786 47.8777 46.4631L48.546 45.7191ZM49.184 47.9372C49.3472 48.16 49.6601 48.2083 49.8828 48.0451C50.1056 47.882 50.1539 47.5691 49.9907 47.3463L49.184 47.9372ZM50.8991 48.8492C50.7797 48.6002 50.4811 48.4951 50.2321 48.6145C49.9831 48.7339 49.878 49.0325 49.9974 49.2815L50.8991 48.8492ZM50.5328 50.7556C50.6026 51.0227 50.8758 51.1827 51.143 51.1128C51.4101 51.043 51.5701 50.7698 51.5002 50.5026L50.5328 50.7556ZM51.8109 52.211C51.7798 51.9366 51.5323 51.7393 51.2579 51.7704C50.9835 51.8014 50.7862 52.049 50.8172 52.3234L51.8109 52.211ZM50.9724 54.3762C51.0072 54.6501 51.2575 54.8439 51.5315 54.8091C51.8054 54.7742 51.9992 54.5239 51.9644 54.25L50.9724 54.3762ZM52.4037 56.609C52.3479 56.3386 52.0834 56.1646 51.8129 56.2204C51.5425 56.2762 51.3685 56.5407 51.4243 56.8112L52.4037 56.609ZM51.7553 59.1343C51.7624 59.4104 51.9919 59.6284 52.268 59.6213C52.544 59.6142 52.7621 59.3847 52.755 59.1087L51.7553 59.1343ZM52.1778 61.7169C52.3119 61.4755 52.225 61.1711 51.9836 61.037C51.7422 60.9029 51.4378 60.9898 51.3037 61.2312L52.1778 61.7169ZM49.9925 62.6152C49.7635 62.7696 49.703 63.0803 49.8573 63.3093C50.0117 63.5383 50.3224 63.5988 50.5514 63.4444L49.9925 62.6152ZM48.7225 64.306C48.9867 64.2257 49.1358 63.9464 49.0555 63.6822C48.9752 63.418 48.6959 63.2689 48.4317 63.3492L48.7225 64.306ZM46.7208 63.6142C46.4447 63.6168 46.223 63.8428 46.2256 64.1189C46.2282 64.395 46.4542 64.6167 46.7303 64.6141L46.7208 63.6142ZM44.7252 64.3253C44.9891 64.4067 45.269 64.2588 45.3504 63.995C45.4318 63.7311 45.2838 63.4512 45.02 63.3698L44.7252 64.3253ZM43.8725 62.6415C43.7506 62.3937 43.4509 62.2917 43.2031 62.4136C42.9553 62.5356 42.8533 62.8353 42.9753 63.083L43.8725 62.6415ZM42.5453 61.1994C42.564 61.475 42.8025 61.6832 43.078 61.6645C43.3535 61.6458 43.5617 61.4073 43.5431 61.1318L42.5453 61.1994ZM43.577 59.4668C43.604 59.192 43.4031 58.9474 43.1282 58.9204C42.8534 58.8934 42.6088 59.0943 42.5818 59.3691L43.577 59.4668ZM42.9161 57.5555C42.8371 57.8202 42.9877 58.0987 43.2523 58.1776C43.5169 58.2566 43.7954 58.1061 43.8744 57.8415L42.9161 57.5555ZM44.7935 56.6006C45.0091 56.428 45.044 56.1133 44.8714 55.8978C44.6989 55.6822 44.3842 55.6473 44.1686 55.8199L44.7935 56.6006ZM46.0519 54.7565C45.7942 54.8557 45.6656 55.145 45.7648 55.4027C45.8639 55.6604 46.1532 55.789 46.4109 55.6899L46.0519 54.7565ZM48.2522 55.2249C48.5257 55.1867 48.7165 54.934 48.6783 54.6605C48.6402 54.387 48.3875 54.1963 48.114 54.2345L48.2522 55.2249ZM50.2188 54.1408C49.943 54.1283 49.7092 54.3417 49.6966 54.6176C49.684 54.8934 49.8975 55.1272 50.1733 55.1398L50.2188 54.1408ZM52.0851 55.3934C52.3546 55.4534 52.6218 55.2836 52.6819 55.0141C52.742 54.7446 52.5722 54.4774 52.3026 54.4173L52.0851 55.3934ZM54.3126 55.0743C54.0606 54.9614 53.7648 55.0742 53.6519 55.3262C53.539 55.5782 53.6518 55.8741 53.9038 55.9869L54.3126 55.0743ZM55.9934 56.9493C56.2632 57.008 56.5295 56.8367 56.5881 56.5669C56.6467 56.297 56.4755 56.0308 56.2057 55.9721L55.9934 56.9493ZM58.1485 55.5847C57.9075 55.7195 57.8215 56.0242 57.9564 56.2652C58.0912 56.5061 58.3959 56.5922 58.6369 56.4573L58.1485 55.5847ZM60.6373 55.0121C60.8541 54.841 60.8911 54.5266 60.72 54.3098C60.5489 54.0931 60.2345 54.0561 60.0177 54.2272L60.6373 55.0121ZM62.1503 52.8711C61.8938 52.9734 61.7689 53.2643 61.8712 53.5208C61.9735 53.7773 62.2644 53.9023 62.5209 53.7999L62.1503 52.8711ZM64.3009 53.6339C64.5758 53.6601 64.8199 53.4585 64.8462 53.1836C64.8724 52.9087 64.6708 52.6646 64.3959 52.6384L64.3009 53.6339ZM66.1815 53.0479C65.9248 52.9461 65.6342 53.0716 65.5323 53.3283C65.4305 53.585 65.556 53.8756 65.8127 53.9775L66.1815 53.0479ZM67.0556 54.7832C67.2504 54.9789 67.567 54.9795 67.7627 54.7847C67.9584 54.5898 67.959 54.2732 67.7642 54.0776L67.0556 54.7832ZM68.7994 55.6391C68.69 55.3856 68.3958 55.2687 68.1422 55.3782C67.8887 55.4876 67.7719 55.7818 67.8813 56.0354L68.7994 55.6391ZM68.3161 57.5511C68.3641 57.8231 68.6235 58.0046 68.8954 57.9566C69.1674 57.9086 69.3489 57.6492 69.3009 57.3773L68.3161 57.5511ZM69.4821 59.1295C69.4702 58.8536 69.2369 58.6396 68.961 58.6515C68.6851 58.6634 68.4711 58.8967 68.483 59.1726L69.4821 59.1295ZM39.9929 44.5C40.4168 44.5059 40.8268 44.5099 41.2327 44.5176L41.2516 43.5177C40.8428 43.51 40.4247 43.5059 40.0071 43.5L39.9929 44.5ZM43.6578 44.6632C44.4619 44.7652 45.2173 44.9377 45.9319 45.2328L46.3136 44.3085C45.4956 43.9706 44.6489 43.7809 43.7836 43.6712L43.6578 44.6632ZM47.8777 46.4631C48.1523 46.7097 48.4228 46.9896 48.6889 47.3077L49.456 46.6662C49.161 46.3135 48.8577 45.9991 48.546 45.7191L47.8777 46.4631ZM48.6889 47.3077C48.8633 47.5162 49.0284 47.7248 49.184 47.9372L49.9907 47.3463C49.8202 47.1135 49.6415 46.888 49.456 46.6662L48.6889 47.3077ZM49.9974 49.2815C50.2091 49.7231 50.3893 50.2069 50.5328 50.7556L51.5002 50.5026C51.341 49.8934 51.139 49.3495 50.8991 48.8492L49.9974 49.2815ZM50.8172 52.3234C50.8461 52.5787 50.8691 52.8463 50.8859 53.1274L51.8841 53.0677C51.8663 52.7701 51.8418 52.4849 51.8109 52.211L50.8172 52.3234ZM50.885 53.0975C50.885 53.5283 50.9189 53.9557 50.9724 54.3762L51.9644 54.25C51.9148 53.8605 51.885 53.4765 51.885 53.0975H50.885ZM51.4243 56.8112C51.5949 57.6375 51.7366 58.4071 51.7553 59.1343L52.755 59.1087C52.7337 58.2829 52.5742 57.435 52.4037 56.609L51.4243 56.8112ZM51.3037 61.2312C51.1429 61.5207 50.9295 61.8049 50.6486 62.0824L51.3514 62.7938C51.6964 62.4531 51.9686 62.0935 52.1778 61.7169L51.3037 61.2312ZM50.6486 62.0824C50.459 62.2697 50.2389 62.4491 49.9925 62.6152L50.5514 63.4444C50.8452 63.2464 51.1142 63.0281 51.3514 62.7938L50.6486 62.0824ZM48.4317 63.3492C47.8922 63.5131 47.3132 63.6085 46.7208 63.6142L46.7303 64.6141C47.4232 64.6075 48.0968 64.4961 48.7225 64.306L48.4317 63.3492ZM45.02 63.3698C44.7513 63.2869 44.4843 63.1815 44.2214 63.0517L43.7786 63.9483C44.0901 64.1021 44.4066 64.227 44.7252 64.3253L45.02 63.3698ZM44.2214 63.0517C44.1123 62.9978 43.9887 62.8776 43.8725 62.6415L42.9753 63.083C43.1496 63.4374 43.4052 63.7639 43.7786 63.9483L44.2214 63.0517ZM43.5431 61.1318C43.5068 60.5972 43.5227 60.0193 43.577 59.4668L42.5818 59.3691C42.5231 59.9666 42.5048 60.6007 42.5453 61.1994L43.5431 61.1318ZM43.8744 57.8415C43.9791 57.4905 44.0789 57.2998 44.1347 57.2349L43.3763 56.5831C43.1743 56.8181 43.0269 57.1843 42.9161 57.5555L43.8744 57.8415ZM44.1347 57.2349C44.3336 57.0033 44.5542 56.7921 44.7935 56.6006L44.1686 55.8199C43.8832 56.0483 43.6175 56.3024 43.3763 56.5831L44.1347 57.2349ZM46.4109 55.6899C46.9866 55.4685 47.6079 55.3148 48.2522 55.2249L48.114 54.2345C47.4034 54.3336 46.707 54.5046 46.0519 54.7565L46.4109 55.6899ZM50.1733 55.1398C50.8239 55.1694 51.469 55.256 52.0851 55.3934L52.3026 54.4173C51.6298 54.2673 50.9271 54.1731 50.2188 54.1408L50.1733 55.1398ZM53.9038 55.9869C54.2019 56.1205 54.481 56.2672 54.7374 56.4255L55.2626 55.5745C54.9657 55.3912 54.6473 55.2243 54.3126 55.0743L53.9038 55.9869ZM54.7374 56.4255C55.1625 56.6879 55.5803 56.8596 55.9934 56.9493L56.2057 55.9721C55.9166 55.9093 55.6037 55.785 55.2626 55.5745L54.7374 56.4255ZM58.6369 56.4573C59.3442 56.0614 60.0169 55.5018 60.6373 55.0121L60.0177 54.2272C59.3615 54.7452 58.7681 55.2379 58.1485 55.5847L58.6369 56.4573ZM62.5209 53.7999C62.8476 53.6696 63.1707 53.5975 63.5 53.5975V52.5975C63.0205 52.5975 62.5712 52.7032 62.1503 52.8711L62.5209 53.7999ZM63.5 53.5975C63.7832 53.5975 64.0499 53.6099 64.3009 53.6339L64.3959 52.6384C64.1108 52.6112 63.8123 52.5975 63.5 52.5975V53.5975ZM65.8127 53.9775C66.3158 54.177 66.7233 54.4495 67.0556 54.7832L67.7642 54.0776C67.3314 53.643 66.807 53.2961 66.1815 53.0479L65.8127 53.9775ZM67.8813 56.0354C68.0744 56.4829 68.2169 56.9895 68.3161 57.5511L69.3009 57.3773C69.1914 56.7574 69.0299 56.1731 68.7994 55.6391L67.8813 56.0354ZM68.483 59.1726C68.4946 59.4414 68.5 59.7174 68.5 60H69.5C69.5 59.7047 69.4943 59.4143 69.4821 59.1295L68.483 59.1726Z" fill="#2C2C2C"/>
<path d="M61.568 64.288C61.568 63.86 61.484 63.522 61.316 63.274C61.148 63.022 60.918 62.842 60.626 62.734C60.334 62.622 60 62.566 59.624 62.566H58.43V66.094H59.582C59.97 66.094 60.312 66.042 60.608 65.938C60.904 65.83 61.138 65.646 61.31 65.386C61.482 65.122 61.568 64.756 61.568 64.288ZM62.684 64.276C62.684 64.92 62.546 65.436 62.27 65.824C61.998 66.212 61.622 66.494 61.142 66.67C60.662 66.846 60.11 66.934 59.486 66.934H58.43V70H57.386V61.738H59.498C60.482 61.738 61.258 61.946 61.826 62.362C62.398 62.774 62.684 63.412 62.684 64.276ZM68.3553 70V66.082H65.2353V70H64.1973V61.738H65.2353V65.23H68.3553V61.738H69.3933V70H68.3553ZM75.9586 64.288C75.9586 63.86 75.8746 63.522 75.7066 63.274C75.5386 63.022 75.3086 62.842 75.0166 62.734C74.7246 62.622 74.3906 62.566 74.0146 62.566H72.8206V66.094H73.9726C74.3606 66.094 74.7026 66.042 74.9986 65.938C75.2946 65.83 75.5286 65.646 75.7006 65.386C75.8726 65.122 75.9586 64.756 75.9586 64.288ZM77.0746 64.276C77.0746 64.92 76.9366 65.436 76.6606 65.824C76.3886 66.212 76.0126 66.494 75.5326 66.67C75.0526 66.846 74.5006 66.934 73.8766 66.934H72.8206V70H71.7766V61.738H73.8886C74.8726 61.738 75.6486 61.946 76.2166 62.362C76.7886 62.774 77.0746 63.412 77.0746 64.276Z" fill="#2C2C2C"/>
<g filter="url(#filter0_d_317_329)">
<path fill-rule="evenodd" clip-rule="evenodd" d="M59.25 30.1887C59.25 46.4164 46.172 59.6037 30 59.6037C13.828 59.6037 0.75 46.4164 0.75 30.1887C0.75 13.9609 13.828 0.77356 30 0.77356C46.172 0.77356 59.25 13.9609 59.25 30.1887ZM56.25 30.1887C56.25 44.7773 44.4975 56.6037 30 56.6037C15.5025 56.6037 3.75 44.7773 3.75 30.1887C3.75 15.6 15.5025 3.77356 30 3.77356C44.4975 3.77356 56.25 15.6 56.25 30.1887Z" fill="#FAF3E0"/>
<path d="M30 59.7537C46.2558 59.7537 59.4 46.4983 59.4 30.1887C59.4 13.879 46.2558 0.62356 30 0.62356C13.7442 0.62356 0.6 13.879 0.6 30.1887C0.6 46.4983 13.7442 59.7537 30 59.7537ZM56.1 30.1887C56.1 44.6954 44.4137 56.4537 30 56.4537C15.5863 56.4537 3.9 44.6954 3.9 30.1887C3.9 15.682 15.5863 3.92356 30 3.92356C44.4137 3.92356 56.1 15.682 56.1 30.1887Z" stroke="#DED0AB" stroke-width="0.3"/>
</g>
<path d="M30 56.6037C44.4975 56.6037 56.25 44.7773 56.25 30.1887C56.25 15.6 44.4975 3.77356 30 3.77356C15.5025 3.77356 3.75 15.6 3.75 30.1887C3.75 44.7773 15.5025 56.6037 30 56.6037Z" fill="#8892BF"/>
<path d="M27.0734 18.8679H30.2234L29.3332 23.6306H32.1637C33.716 23.664 34.8723 24.013 35.6334 24.6779C36.4094 25.3426 36.6378 26.6064 36.3183 28.4681L34.7889 36.7715H31.5931L33.0539 28.8421C33.206 28.0107 33.1604 27.4207 32.9171 27.0717C32.6737 26.7226 32.1487 26.5481 31.3421 26.5481L28.8082 26.5232L26.9364 36.7715H23.7864L27.0734 18.8679Z" fill="white"/>
<path fill-rule="evenodd" clip-rule="evenodd" d="M12.6392 23.6307H18.7567C20.5522 23.6472 21.8535 24.2126 22.6601 25.3262C23.4667 26.44 23.733 27.9609 23.4591 29.8894C23.3527 30.7707 23.1167 31.6349 22.7514 32.4828C22.4014 33.3306 21.9146 34.0951 21.2906 34.7768C20.5296 35.6411 19.7154 36.1896 18.8481 36.4226C17.9807 36.6555 17.0827 36.7717 16.1545 36.7717H13.4153L12.5479 41.5094H9.375L12.6392 23.6307ZM13.9403 33.9539L15.3054 26.4983H15.7665C15.934 26.4983 16.1089 26.4898 16.2915 26.4734C17.5091 26.4568 18.5208 26.5815 19.3275 26.8473C20.1491 27.1132 20.4231 28.119 20.1491 29.8645C19.8146 31.9426 19.1599 33.156 18.1861 33.5051C17.2123 33.8377 15.9947 33.9955 14.5338 33.9789H14.2143C14.1229 33.9789 14.0317 33.9704 13.9403 33.9539Z" fill="white"/>
<path fill-rule="evenodd" clip-rule="evenodd" d="M45.8184 23.6307H39.7008L36.4366 41.5094H39.6095L40.4771 36.7717H43.2163C44.1444 36.7717 45.0423 36.6555 45.9097 36.4226C46.7773 36.1896 47.5912 35.6411 48.3523 34.7768C48.9763 34.0951 49.463 33.3306 49.8131 32.4828C50.1783 31.6349 50.4144 30.7707 50.5207 29.8894C50.7946 27.9609 50.5286 26.44 49.7218 25.3262C48.9151 24.2126 47.6141 23.6472 45.8184 23.6307ZM42.3671 26.4983L41.0021 33.9539C41.0934 33.9704 41.1847 33.9789 41.276 33.9789H41.5955C43.0565 33.9955 44.274 33.8377 45.2478 33.5051C46.2215 33.156 46.8763 31.9426 47.211 29.8645C47.4849 28.119 47.211 27.1132 46.3891 26.8473C45.5825 26.5815 44.5708 26.4568 43.3531 26.4734C43.1705 26.4898 42.9958 26.4983 42.8281 26.4983H42.3671Z" fill="white"/>
<defs>
<filter id="filter0_d_317_329" x="0.449951" y="0.473511" width="60.1001" height="60.4303" filterUnits="userSpaceOnUse" color-interpolation-filters="sRGB">
<feFlood flood-opacity="0" result="BackgroundImageFix"/>
<feColorMatrix in="SourceAlpha" type="matrix" values="0 0 0 0 0 0 0 0 0 0 0 0 0 0 0 0 0 0 127 0" result="hardAlpha"/>
<feOffset dx="1" dy="1"/>
<feComposite in2="hardAlpha" operator="out"/>
<feColorMatrix type="matrix" values="0 0 0 0 0.890196 0 0 0 0 0.85098 0 0 0 0 0.74902 0 0 0 1 0"/>
<feBlend mode="normal" in2="BackgroundImageFix" result="effect1_dropShadow_317_329"/>
<feBlend mode="normal" in="SourceGraphic" in2="effect1_dropShadow_317_329" result="shape"/>
</filter>
</defs>
</svg>
