<svg width="125" height="92" viewBox="0 0 125 92" fill="none" xmlns="http://www.w3.org/2000/svg">
<path d="M55.264 50.2896C55.4563 50.0915 55.7729 50.0868 55.971 50.2792C56.1691 50.4716 56.1737 50.7881 55.9813 50.9862L55.264 50.2896ZM50.1406 58.436L49.6434 58.4893L50.1406 58.436ZM52.8846 64.3337L52.531 64.6872L52.5208 64.6771L52.5113 64.6663L52.8846 64.3337ZM59.59 69.0334L59.596 68.5335L59.59 69.0334ZM64.3092 66.1187L63.8333 65.9651L64.3092 66.1187ZM60.7819 61.8266L60.7353 62.3244L60.7819 61.8266ZM51.8347 66.5633L52.3231 66.6704L51.8347 66.5633ZM45.2728 73.3259L45.7236 73.5423L45.2728 73.3259ZM50.0823 81.941C50.191 82.1948 50.0735 82.4887 49.8196 82.5975L45.6835 84.3701C45.4297 84.4789 45.1357 84.3614 45.027 84.1075C44.9182 83.8537 45.0358 83.5598 45.2896 83.451L48.9661 81.8753L47.3905 78.1987C47.2817 77.9449 47.3993 77.651 47.6531 77.5422C47.9069 77.4334 48.2008 77.551 48.3096 77.8048L50.0823 81.941ZM55.0432 51.8696C54.8355 52.0516 54.5196 52.0308 54.3376 51.8231C54.1557 51.6154 54.1765 51.2995 54.3842 51.1175L55.0432 51.8696ZM52.4756 52.7241C52.6843 52.5432 53 52.5657 53.1809 52.7744C53.3618 52.9831 53.3392 53.2989 53.1305 53.4797L52.4756 52.7241ZM51.4862 55.1932C51.3251 55.4175 51.0127 55.4688 50.7884 55.3077C50.5641 55.1467 50.5128 54.8343 50.6739 54.61L51.4862 55.1932ZM49.6516 57.1255C49.6866 56.8516 49.9371 56.658 50.211 56.6931C50.4849 56.7282 50.6785 56.9787 50.6434 57.2526L49.6516 57.1255ZM50.7463 59.1717C50.7933 59.4438 50.6108 59.7025 50.3387 59.7495C50.0666 59.7965 49.8079 59.614 49.7609 59.3419L50.7463 59.1717ZM50.2078 61.0298C50.1121 60.7708 50.2445 60.4832 50.5035 60.3875C50.7625 60.2917 51.0501 60.4241 51.1458 60.6831L50.2078 61.0298ZM51.8252 62.09C51.9671 62.3269 51.8901 62.6339 51.6532 62.7758C51.4162 62.9177 51.1092 62.8406 50.9673 62.6037L51.8252 62.09ZM51.9588 64.0148C51.7858 63.7996 51.8201 63.4849 52.0353 63.3119C52.2505 63.1389 52.5652 63.1731 52.7382 63.3883L51.9588 64.0148ZM53.9885 64.7779C54.1722 64.984 54.154 65.3001 53.9478 65.4838C53.7416 65.6675 53.4256 65.6493 53.2419 65.4431L53.9885 64.7779ZM54.6248 67.0594C54.4427 66.8517 54.4636 66.5358 54.6712 66.3538C54.8789 66.1718 55.1948 66.1926 55.3768 66.4003L54.6248 67.0594ZM56.837 67.7599C57.0663 67.9137 57.1276 68.2243 56.9737 68.4537C56.8199 68.683 56.5093 68.7442 56.28 68.5904L56.837 67.7599ZM58.4455 69.4373C58.1731 69.392 57.9889 69.1345 58.0342 68.8621C58.0795 68.5897 58.337 68.4056 58.6094 68.4508L58.4455 69.4373ZM60.3279 68.5245C60.6037 68.5126 60.8371 68.7265 60.849 69.0024C60.8609 69.2783 60.6469 69.5116 60.371 69.5235L60.3279 68.5245ZM61.9934 69.2734C61.7293 69.3541 61.4498 69.2054 61.3692 68.9413C61.2885 68.6772 61.4372 68.3977 61.7013 68.3171L61.9934 69.2734ZM62.8215 67.6906C63.0246 67.5034 63.3409 67.5163 63.5281 67.7194C63.7152 67.9224 63.7024 68.2387 63.4993 68.4259L62.8215 67.6906ZM64.4861 67.0384C64.369 67.2884 64.0714 67.3962 63.8213 67.2792C63.5712 67.1621 63.4634 66.8644 63.5805 66.6143L64.4861 67.0384ZM63.63 64.914C63.504 64.6683 63.601 64.367 63.8467 64.241C64.0924 64.115 64.3938 64.212 64.5198 64.4577L63.63 64.914ZM62.3995 62.0805C62.6216 62.2446 62.6686 62.5577 62.5045 62.7798C62.3404 63.0019 62.0273 63.0489 61.8052 62.8848L62.3995 62.0805ZM59.8633 62.2798C59.5872 62.2772 59.3655 62.0512 59.3681 61.7751C59.3707 61.4989 59.5967 61.2772 59.8728 61.2799L59.8633 62.2798ZM57.9681 61.4158C58.2411 61.3741 58.4962 61.5615 58.5379 61.8345C58.5797 62.1074 58.3923 62.3626 58.1193 62.4043L57.9681 61.4158ZM56.4236 62.8107C56.1617 62.8981 55.8785 62.7566 55.791 62.4947C55.7036 62.2328 55.8451 61.9496 56.107 61.8621L56.4236 62.8107ZM54.3455 62.6495C54.5843 62.5108 54.8903 62.5919 55.029 62.8307C55.1677 63.0695 55.0866 63.3755 54.8478 63.5142L54.3455 62.6495ZM53.506 64.5425C53.313 64.74 52.9964 64.7436 52.7989 64.5505C52.6015 64.3575 52.5979 64.0409 52.7909 63.8435L53.506 64.5425ZM51.6609 65.4927C51.7722 65.24 52.0673 65.1254 52.32 65.2367C52.5727 65.3481 52.6873 65.6432 52.576 65.8959L51.6609 65.4927ZM51.8866 67.9253C51.7644 68.1729 51.4645 68.2745 51.2169 68.1522C50.9693 68.03 50.8677 67.7302 50.99 67.4826L51.8866 67.9253ZM49.5913 69.1627C49.8054 68.9884 50.1204 69.0206 50.2947 69.2348C50.4691 69.4489 50.4368 69.7638 50.2227 69.9382L49.5913 69.1627ZM48.166 71.3252C47.9314 71.4709 47.6231 71.3989 47.4774 71.1643C47.3317 70.9297 47.4037 70.6215 47.6383 70.4757L48.166 71.3252ZM45.6081 71.9965C45.7995 71.7975 46.116 71.7913 46.315 71.9827C46.5141 72.1741 46.5203 72.4906 46.3289 72.6897L45.6081 71.9965ZM45.5295 74.2297C45.4939 74.5035 45.243 74.6967 44.9692 74.6611C44.6954 74.6255 44.5022 74.3747 44.5378 74.1009L45.5295 74.2297ZM44.6647 76.0168C44.6042 75.7474 44.7735 75.4799 45.0429 75.4193C45.3124 75.3588 45.5799 75.5281 45.6404 75.7975L44.6647 76.0168ZM46.1675 77.3672C46.2783 77.6202 46.1631 77.915 45.9102 78.0258C45.6572 78.1366 45.3623 78.0214 45.2516 77.7684L46.1675 77.3672ZM46.1079 79.3821C45.9611 79.1482 46.0317 78.8396 46.2656 78.6928C46.4994 78.546 46.8081 78.6166 46.9549 78.8504L46.1079 79.3821ZM47.9493 80.198C48.1308 80.4062 48.1092 80.722 47.901 80.9035C47.6929 81.0849 47.377 81.0633 47.1956 80.8552L47.9493 80.198ZM48.5715 82.1235C48.3453 81.9652 48.2902 81.6534 48.4485 81.4272C48.6069 81.2009 48.9186 81.1459 49.1449 81.3042L48.5715 82.1235ZM55.9813 50.9862C55.6808 51.2957 55.3642 51.5884 55.0432 51.8696L54.3842 51.1175C54.6923 50.8476 54.9879 50.5738 55.264 50.2896L55.9813 50.9862ZM53.1305 53.4797C52.491 54.0341 51.9225 54.5855 51.4862 55.1932L50.6739 54.61C51.1785 53.9071 51.8165 53.2953 52.4756 52.7241L53.1305 53.4797ZM50.6434 57.2526C50.599 57.5995 50.594 57.9743 50.6377 58.3828L49.6434 58.4893C49.5918 58.0074 49.5967 57.5542 49.6516 57.1255L50.6434 57.2526ZM50.6377 58.3828C50.6665 58.6512 50.7017 58.9133 50.7463 59.1717L49.7609 59.3419C49.712 59.0587 49.674 58.775 49.6434 58.4893L50.6377 58.3828ZM51.1458 60.6831C51.3144 61.1394 51.5343 61.6042 51.8252 62.09L50.9673 62.6037C50.6454 62.0662 50.3984 61.5455 50.2078 61.0298L51.1458 60.6831ZM52.7382 63.3883C52.8985 63.5877 53.0714 63.7918 53.2579 64.0011L52.5113 64.6663C52.3142 64.4452 52.1304 64.2282 51.9588 64.0148L52.7382 63.3883ZM53.2381 63.9801C53.5074 64.2495 53.7557 64.5166 53.9885 64.7779L53.2419 65.4431C53.0188 65.1927 52.7838 64.9401 52.531 64.6872L53.2381 63.9801ZM55.3768 66.4003C55.8599 66.9514 56.3143 67.4093 56.837 67.7599L56.28 68.5904C55.6486 68.1669 55.1262 67.6315 54.6248 67.0594L55.3768 66.4003ZM58.6094 68.4508C58.9071 68.5003 59.2338 68.5291 59.596 68.5335L59.584 69.5334C59.176 69.5285 58.7982 69.4959 58.4455 69.4373L58.6094 68.4508ZM59.596 68.5335C59.8469 68.5365 60.0909 68.5347 60.3279 68.5245L60.371 69.5235C60.1101 69.5348 59.8467 69.5365 59.584 69.5334L59.596 68.5335ZM61.7013 68.3171C62.1216 68.1886 62.4955 67.9911 62.8215 67.6906L63.4993 68.4259C63.0468 68.843 62.5347 69.1081 61.9934 69.2734L61.7013 68.3171ZM63.5805 66.6143C63.6714 66.4202 63.7561 66.2046 63.8333 65.9651L64.785 66.2722C64.6961 66.5479 64.5964 66.8029 64.4861 67.0384L63.5805 66.6143ZM63.8333 65.9651C63.9113 65.7235 63.8643 65.3709 63.63 64.914L64.5198 64.4577C64.8042 65.0124 64.9822 65.6609 64.785 66.2722L63.8333 65.9651ZM61.8052 62.8848C61.5676 62.7092 61.3433 62.5692 61.1489 62.4718C60.9467 62.3705 60.8084 62.3312 60.7353 62.3244L60.8285 61.3288C61.0805 61.3524 61.3476 61.4528 61.5969 61.5778C61.854 61.7067 62.1274 61.8795 62.3995 62.0805L61.8052 62.8848ZM60.7353 62.3244C60.4473 62.2974 60.156 62.2826 59.8633 62.2798L59.8728 61.2799C60.1929 61.2829 60.5121 61.2991 60.8285 61.3288L60.7353 62.3244ZM58.1193 62.4043C57.5364 62.4935 56.9659 62.6297 56.4236 62.8107L56.107 61.8621C56.7057 61.6623 57.3317 61.5132 57.9681 61.4158L58.1193 62.4043ZM54.8478 63.5142C54.3382 63.8102 53.8854 64.1544 53.506 64.5425L52.7909 63.8435C53.2413 63.3828 53.7682 62.9848 54.3455 62.6495L54.8478 63.5142ZM52.576 65.8959C52.4675 66.1421 52.3824 66.4002 52.3231 66.6704L51.3464 66.4561C51.4201 66.12 51.5261 65.7987 51.6609 65.4927L52.576 65.8959ZM52.3231 66.6704C52.2223 67.1301 52.0738 67.5461 51.8866 67.9253L50.99 67.4826C51.141 67.1766 51.2627 66.8374 51.3464 66.4561L52.3231 66.6704ZM50.2227 69.9382C49.5642 70.4743 48.8284 70.9136 48.166 71.3252L47.6383 70.4757C48.3254 70.0488 48.9945 69.6487 49.5913 69.1627L50.2227 69.9382ZM46.3289 72.6897C46.0779 72.9507 45.8735 73.23 45.7236 73.5423L44.822 73.1095C45.0259 72.6848 45.2973 72.3197 45.6081 71.9965L46.3289 72.6897ZM45.7236 73.5423C45.6285 73.7404 45.5632 73.97 45.5295 74.2297L44.5378 74.1009C44.5829 73.7534 44.6738 73.4184 44.822 73.1095L45.7236 73.5423ZM45.6404 75.7975C45.7542 76.3039 45.9347 76.8356 46.1675 77.3672L45.2516 77.7684C44.9974 77.1882 44.7948 76.5954 44.6647 76.0168L45.6404 75.7975ZM46.9549 78.8504C47.2611 79.3384 47.5983 79.7954 47.9493 80.198L47.1956 80.8552C46.8076 80.4102 46.4397 79.9106 46.1079 79.3821L46.9549 78.8504ZM49.1449 81.3042C49.3775 81.467 49.6002 81.5904 49.8084 81.6737L49.437 82.6022C49.1433 82.4847 48.8532 82.3206 48.5715 82.1235L49.1449 81.3042Z" fill="#2C2C2C"/>
<path d="M57.6908 81.2687C57.6908 80.8407 57.6068 80.5027 57.4388 80.2547C57.2708 80.0027 57.0408 79.8227 56.7488 79.7147C56.4568 79.6027 56.1228 79.5467 55.7468 79.5467H54.5528V83.0747H55.7048C56.0928 83.0747 56.4348 83.0227 56.7308 82.9187C57.0268 82.8107 57.2608 82.6267 57.4328 82.3667C57.6048 82.1027 57.6908 81.7367 57.6908 81.2687ZM58.8068 81.2567C58.8068 81.9007 58.6688 82.4167 58.3928 82.8047C58.1208 83.1927 57.7448 83.4747 57.2648 83.6507C56.7848 83.8267 56.2328 83.9147 55.6088 83.9147H54.5528V86.9807H53.5088V78.7187H55.6208C56.6048 78.7187 57.3808 78.9267 57.9488 79.3427C58.5208 79.7547 58.8068 80.3927 58.8068 81.2567ZM62.9301 80.5307C63.5261 80.5307 64.0241 80.6667 64.4241 80.9387C64.8281 81.2067 65.1301 81.5867 65.3301 82.0787C65.5341 82.5707 65.6361 83.1507 65.6361 83.8187C65.6361 84.4627 65.5321 85.0327 65.3241 85.5287C65.1161 86.0247 64.8101 86.4147 64.4061 86.6987C64.0061 86.9787 63.5101 87.1187 62.9181 87.1187C62.3261 87.1187 61.8281 86.9827 61.4241 86.7107C61.0201 86.4387 60.7141 86.0567 60.5061 85.5647C60.3021 85.0687 60.2001 84.4907 60.2001 83.8307C60.2001 83.1787 60.3041 82.6047 60.5121 82.1087C60.7201 81.6127 61.0261 81.2267 61.4301 80.9507C61.8381 80.6707 62.3381 80.5307 62.9301 80.5307ZM62.9301 81.3527C62.3861 81.3527 61.9741 81.5547 61.6941 81.9587C61.4181 82.3587 61.2801 82.9827 61.2801 83.8307C61.2801 84.6627 61.4161 85.2807 61.6881 85.6847C61.9641 86.0887 62.3741 86.2907 62.9181 86.2907C63.4621 86.2907 63.8701 86.0887 64.1421 85.6847C64.4181 85.2807 64.5561 84.6587 64.5561 83.8187C64.5561 82.9787 64.4201 82.3587 64.1481 81.9587C63.8761 81.5547 63.4701 81.3527 62.9301 81.3527ZM69.8674 86.2847C70.3514 86.2847 70.7334 86.1947 71.0134 86.0147C71.2974 85.8307 71.4394 85.5867 71.4394 85.2827C71.4394 85.0907 71.4034 84.9247 71.3314 84.7847C71.2634 84.6447 71.1214 84.5187 70.9054 84.4067C70.6894 84.2947 70.3574 84.1827 69.9094 84.0707C69.4734 83.9627 69.0934 83.8387 68.7694 83.6987C68.4494 83.5547 68.1994 83.3687 68.0194 83.1407C67.8434 82.9127 67.7554 82.6167 67.7554 82.2527C67.7554 81.8967 67.8554 81.5907 68.0554 81.3347C68.2594 81.0747 68.5414 80.8767 68.9014 80.7407C69.2614 80.6007 69.6794 80.5307 70.1554 80.5307C70.6634 80.5307 71.1054 80.5987 71.4814 80.7347C71.8614 80.8667 72.1834 81.0307 72.4474 81.2267L72.0034 81.9107C71.7634 81.7467 71.4994 81.6127 71.2114 81.5087C70.9234 81.4007 70.5754 81.3467 70.1674 81.3467C69.6714 81.3467 69.3194 81.4247 69.1114 81.5807C68.9034 81.7327 68.7994 81.9307 68.7994 82.1747C68.7994 82.3587 68.8494 82.5127 68.9494 82.6367C69.0534 82.7567 69.2274 82.8667 69.4714 82.9667C69.7154 83.0627 70.0514 83.1687 70.4794 83.2847C70.8914 83.3927 71.2494 83.5227 71.5534 83.6747C71.8614 83.8267 72.1014 84.0267 72.2734 84.2747C72.4454 84.5227 72.5314 84.8427 72.5314 85.2347C72.5314 85.6827 72.4034 86.0467 72.1474 86.3267C71.8914 86.6027 71.5594 86.8047 71.1514 86.9327C70.7474 87.0567 70.3194 87.1187 69.8674 87.1187C69.2954 87.1187 68.8074 87.0367 68.4034 86.8727C68.0034 86.7047 67.6674 86.5027 67.3954 86.2667L67.9714 85.6007C68.2194 85.8047 68.5034 85.9707 68.8234 86.0987C69.1474 86.2227 69.4954 86.2847 69.8674 86.2847ZM79.9307 86.6627C79.7147 86.8067 79.4527 86.9187 79.1447 86.9987C78.8367 87.0787 78.5347 87.1187 78.2387 87.1187C77.5587 87.1187 77.0347 86.9407 76.6667 86.5847C76.2987 86.2287 76.1147 85.7707 76.1147 85.2107V81.4427H74.6627V80.6627H76.1147V79.2287L77.1227 79.1087V80.6627H79.3067L79.1867 81.4427H77.1227V85.1987C77.1227 85.5507 77.2147 85.8187 77.3987 86.0027C77.5867 86.1867 77.8967 86.2787 78.3287 86.2787C78.5647 86.2787 78.7827 86.2507 78.9827 86.1947C79.1827 86.1387 79.3687 86.0667 79.5407 85.9787L79.9307 86.6627ZM87.2461 79.9907L87.5581 80.9387C87.2901 81.0227 87.0041 81.0747 86.7001 81.0947C86.3961 81.1147 86.0661 81.1247 85.7101 81.1247C86.0741 81.2927 86.3481 81.5107 86.5321 81.7787C86.7161 82.0427 86.8081 82.3547 86.8081 82.7147C86.8081 83.1307 86.7141 83.5007 86.5261 83.8247C86.3381 84.1487 86.0661 84.4027 85.7101 84.5867C85.3581 84.7707 84.9321 84.8627 84.4321 84.8627C84.2201 84.8627 84.0421 84.8527 83.8981 84.8327C83.7581 84.8127 83.6221 84.7827 83.4901 84.7427C83.3941 84.8067 83.3141 84.8947 83.2501 85.0067C83.1901 85.1187 83.1601 85.2347 83.1601 85.3547C83.1601 85.5067 83.2201 85.6327 83.3401 85.7327C83.4601 85.8327 83.6821 85.8827 84.0061 85.8827H85.1461C85.5701 85.8827 85.9501 85.9587 86.2861 86.1107C86.6261 86.2627 86.8921 86.4667 87.0841 86.7227C87.2801 86.9787 87.3781 87.2707 87.3781 87.5987C87.3781 88.2187 87.1141 88.6947 86.5861 89.0267C86.0621 89.3587 85.3201 89.5247 84.3601 89.5247C83.6881 89.5247 83.1581 89.4547 82.7701 89.3147C82.3821 89.1787 82.1041 88.9687 81.9361 88.6847C81.7721 88.4047 81.6901 88.0507 81.6901 87.6227H82.6021C82.6021 87.8667 82.6501 88.0687 82.7461 88.2287C82.8421 88.3887 83.0161 88.5067 83.2681 88.5827C83.5201 88.6627 83.8821 88.7027 84.3541 88.7027C84.8181 88.7027 85.1961 88.6627 85.4881 88.5827C85.7841 88.5067 86.0021 88.3907 86.1421 88.2347C86.2861 88.0827 86.3581 87.8927 86.3581 87.6647C86.3581 87.3647 86.2221 87.1387 85.9501 86.9867C85.6781 86.8347 85.3381 86.7587 84.9301 86.7587H83.8021C83.2581 86.7587 82.8561 86.6387 82.5961 86.3987C82.3401 86.1587 82.2121 85.8827 82.2121 85.5707C82.2121 85.3667 82.2701 85.1687 82.3861 84.9767C82.5061 84.7847 82.6801 84.6147 82.9081 84.4667C82.5441 84.2747 82.2761 84.0367 82.1041 83.7527C81.9321 83.4687 81.8461 83.1247 81.8461 82.7207C81.8461 82.2927 81.9521 81.9147 82.1641 81.5867C82.3761 81.2547 82.6721 80.9947 83.0521 80.8067C83.4321 80.6187 83.8701 80.5247 84.3661 80.5247C84.8981 80.5207 85.3301 80.4987 85.6621 80.4587C85.9941 80.4147 86.2781 80.3527 86.5141 80.2727C86.7541 80.1927 86.9981 80.0987 87.2461 79.9907ZM84.3661 81.2627C83.8581 81.2627 83.4821 81.4007 83.2381 81.6767C82.9981 81.9487 82.8781 82.2967 82.8781 82.7207C82.8781 83.1487 83.0021 83.5007 83.2501 83.7767C83.4981 84.0527 83.8781 84.1907 84.3901 84.1907C84.8381 84.1907 85.1781 84.0607 85.4101 83.8007C85.6461 83.5407 85.7641 83.1787 85.7641 82.7147C85.7641 82.2387 85.6461 81.8787 85.4101 81.6347C85.1781 81.3867 84.8301 81.2627 84.3661 81.2627ZM89.3654 86.9807V86.2067H90.3494V81.4367H89.3654V80.6627H91.1174L91.3034 82.1567C91.5474 81.6367 91.8434 81.2347 92.1914 80.9507C92.5394 80.6667 92.9994 80.5247 93.5714 80.5247C93.7474 80.5247 93.9034 80.5387 94.0394 80.5667C94.1794 80.5907 94.3214 80.6227 94.4654 80.6627L94.1714 81.5627C94.0394 81.5267 93.9194 81.5007 93.8114 81.4847C93.7034 81.4647 93.5794 81.4547 93.4394 81.4547C92.9554 81.4547 92.5394 81.6267 92.1914 81.9707C91.8434 82.3147 91.5654 82.8347 91.3574 83.5307V86.2067H92.6414V86.9807H89.3654ZM93.4934 82.7987V81.4247L93.5954 80.6627H94.4654L94.3214 82.7987H93.4934ZM97.2927 84.1787C97.3127 84.6667 97.4067 85.0667 97.5747 85.3787C97.7427 85.6867 97.9647 85.9147 98.2407 86.0627C98.5167 86.2067 98.8167 86.2787 99.1407 86.2787C99.4647 86.2787 99.7567 86.2307 100.017 86.1347C100.281 86.0387 100.551 85.8967 100.827 85.7087L101.301 86.3747C101.005 86.6067 100.667 86.7887 100.287 86.9207C99.9107 87.0527 99.5247 87.1187 99.1287 87.1187C98.5167 87.1187 97.9947 86.9807 97.5627 86.7047C97.1307 86.4287 96.8007 86.0447 96.5727 85.5527C96.3487 85.0567 96.2367 84.4827 96.2367 83.8307C96.2367 83.1907 96.3507 82.6227 96.5787 82.1267C96.8067 81.6307 97.1267 81.2407 97.5387 80.9567C97.9507 80.6727 98.4367 80.5307 98.9967 80.5307C99.5287 80.5307 99.9867 80.6567 100.371 80.9087C100.755 81.1567 101.049 81.5127 101.253 81.9767C101.461 82.4367 101.565 82.9867 101.565 83.6267C101.565 83.7347 101.563 83.8367 101.559 83.9327C101.555 84.0247 101.549 84.1067 101.541 84.1787H97.2927ZM99.0087 81.3587C98.5407 81.3587 98.1487 81.5247 97.8327 81.8567C97.5207 82.1887 97.3427 82.7027 97.2987 83.3987H100.593C100.581 82.7227 100.433 82.2147 100.149 81.8747C99.8647 81.5307 99.4847 81.3587 99.0087 81.3587ZM105.844 86.2847C106.328 86.2847 106.71 86.1947 106.99 86.0147C107.274 85.8307 107.416 85.5867 107.416 85.2827C107.416 85.0907 107.38 84.9247 107.308 84.7847C107.24 84.6447 107.098 84.5187 106.882 84.4067C106.666 84.2947 106.334 84.1827 105.886 84.0707C105.45 83.9627 105.07 83.8387 104.746 83.6987C104.426 83.5547 104.176 83.3687 103.996 83.1407C103.82 82.9127 103.732 82.6167 103.732 82.2527C103.732 81.8967 103.832 81.5907 104.032 81.3347C104.236 81.0747 104.518 80.8767 104.878 80.7407C105.238 80.6007 105.656 80.5307 106.132 80.5307C106.64 80.5307 107.082 80.5987 107.458 80.7347C107.838 80.8667 108.16 81.0307 108.424 81.2267L107.98 81.9107C107.74 81.7467 107.476 81.6127 107.188 81.5087C106.9 81.4007 106.552 81.3467 106.144 81.3467C105.648 81.3467 105.296 81.4247 105.088 81.5807C104.88 81.7327 104.776 81.9307 104.776 82.1747C104.776 82.3587 104.826 82.5127 104.926 82.6367C105.03 82.7567 105.204 82.8667 105.448 82.9667C105.692 83.0627 106.028 83.1687 106.456 83.2847C106.868 83.3927 107.226 83.5227 107.53 83.6747C107.838 83.8267 108.078 84.0267 108.25 84.2747C108.422 84.5227 108.508 84.8427 108.508 85.2347C108.508 85.6827 108.38 86.0467 108.124 86.3267C107.868 86.6027 107.536 86.8047 107.128 86.9327C106.724 87.0567 106.296 87.1187 105.844 87.1187C105.272 87.1187 104.784 87.0367 104.38 86.8727C103.98 86.7047 103.644 86.5027 103.372 86.2667L103.948 85.6007C104.196 85.8047 104.48 85.9707 104.8 86.0987C105.124 86.2227 105.472 86.2847 105.844 86.2847ZM112.973 80.5307C113.353 80.5307 113.687 80.6007 113.975 80.7407C114.267 80.8807 114.521 81.0847 114.737 81.3527L114.821 80.6627H115.679V89.5247L114.671 89.3987V86.1827C114.443 86.5067 114.175 86.7447 113.867 86.8967C113.563 87.0447 113.239 87.1187 112.895 87.1187C112.331 87.1187 111.877 86.9827 111.533 86.7107C111.193 86.4387 110.947 86.0567 110.795 85.5647C110.643 85.0687 110.567 84.4907 110.567 83.8307C110.567 83.1987 110.657 82.6347 110.837 82.1387C111.021 81.6387 111.293 81.2467 111.653 80.9627C112.013 80.6747 112.453 80.5307 112.973 80.5307ZM113.225 81.3407C112.701 81.3407 112.307 81.5467 112.043 81.9587C111.779 82.3707 111.647 82.9947 111.647 83.8307C111.647 84.3747 111.701 84.8287 111.809 85.1927C111.917 85.5567 112.077 85.8287 112.289 86.0087C112.505 86.1887 112.777 86.2787 113.105 86.2787C113.457 86.2787 113.763 86.1807 114.023 85.9847C114.283 85.7887 114.499 85.5627 114.671 85.3067V82.1507C114.507 81.8947 114.299 81.6967 114.047 81.5567C113.799 81.4127 113.525 81.3407 113.225 81.3407ZM120.547 78.1187V85.4207C120.547 85.7327 120.643 85.9547 120.835 86.0867C121.031 86.2147 121.283 86.2787 121.591 86.2787C121.783 86.2787 121.965 86.2587 122.137 86.2187C122.309 86.1787 122.481 86.1247 122.653 86.0567L122.923 86.7947C122.751 86.8787 122.537 86.9527 122.281 87.0167C122.029 87.0847 121.743 87.1187 121.423 87.1187C120.863 87.1187 120.409 86.9647 120.061 86.6567C119.713 86.3447 119.539 85.9147 119.539 85.3667V78.9167H117.601V78.1187H120.547Z" fill="#2C2C2C"/>
<g clip-path="url(#clip0_317_331)">
<g filter="url(#filter0_d_317_331)">
<mask id="path-3-inside-1_317_331" fill="white">
<path d="M78.1884 44.0123C77.8481 43.5071 77.372 43.1084 76.8148 42.8623C76.2577 42.6162 75.6424 42.5326 75.0398 42.6212C74.3271 42.7231 73.638 42.9497 73.0038 43.2905C72.0188 43.8022 70.9914 44.2277 69.933 44.5622C71.5025 38.9622 72.2961 33.1734 72.2918 27.3576C72.2115 18.4281 70.04 14.9335 68.2314 13.5716C65.8362 11.7878 63.0599 10.5839 60.1208 10.0545C57.1816 9.52503 54.1597 9.68454 51.2927 10.5204C48.6403 11.2046 46.1047 12.2798 43.7691 13.7108C42.1886 13.8566 40.6222 14.127 39.0844 14.5196C36.2697 15.1604 33.692 16.5801 31.646 18.6164C29.646 18.4877 27.6389 18.5192 25.6439 18.7106C23.2753 18.773 20.9422 19.3016 18.778 20.2662C16.6137 21.2308 14.6608 22.6125 13.0309 24.3322C9.84778 28.1551 9.31847 33.4604 11.4592 40.1005C13.4086 44.9598 15.8017 49.629 18.6083 54.0489C20.2876 56.8295 22.2193 59.4496 24.3791 61.8759C26.1046 64.1549 28.6352 65.6891 31.4538 66.1652C32.4553 66.2219 33.4539 66.0096 34.3458 65.5505C35.2377 65.0913 35.9907 64.402 36.5265 63.554C36.9522 63.85 37.4224 64.0762 37.9193 64.2241C38.6906 64.4574 39.4934 64.5697 40.2991 64.557C42.9544 64.5832 45.5419 63.719 47.6486 62.1025C47.7659 62.4859 47.8767 62.8542 47.9696 63.1738C48.1221 63.6886 48.2745 64.1938 48.4206 64.6666C49.0703 67.199 50.0807 69.625 51.4208 71.8699C51.4831 71.9576 51.5694 72.0897 51.6611 72.2326C52.4572 73.613 53.5941 74.7662 54.9631 75.5819C56.5667 76.4188 58.4341 76.5951 60.166 76.0731C60.9086 75.8691 61.6278 75.5878 62.3117 75.2337C63.6428 74.6917 64.8518 73.8886 65.8675 72.8717C66.8832 71.8548 67.6849 70.6449 68.2254 69.3131C69.3607 66.2064 69.2001 62.0299 67.6981 55.7815C67.6712 55.5994 67.6467 55.4264 67.6223 55.2631L67.5728 54.9245L68.0156 54.8472L68.1265 54.8174C70.6024 54.2652 72.931 53.1878 74.9547 51.6581C76.2055 50.612 80.1375 46.967 78.1847 43.9987"/>
</mask>
<path d="M78.1884 44.0123C77.8481 43.5071 77.372 43.1084 76.8148 42.8623C76.2577 42.6162 75.6424 42.5326 75.0398 42.6212C74.3271 42.7231 73.638 42.9497 73.0038 43.2905C72.0188 43.8022 70.9914 44.2277 69.933 44.5622C71.5025 38.9622 72.2961 33.1734 72.2918 27.3576C72.2115 18.4281 70.04 14.9335 68.2314 13.5716C65.8362 11.7878 63.0599 10.5839 60.1208 10.0545C57.1816 9.52503 54.1597 9.68454 51.2927 10.5204C48.6403 11.2046 46.1047 12.2798 43.7691 13.7108C42.1886 13.8566 40.6222 14.127 39.0844 14.5196C36.2697 15.1604 33.692 16.5801 31.646 18.6164C29.646 18.4877 27.6389 18.5192 25.6439 18.7106C23.2753 18.773 20.9422 19.3016 18.778 20.2662C16.6137 21.2308 14.6608 22.6125 13.0309 24.3322C9.84778 28.1551 9.31847 33.4604 11.4592 40.1005C13.4086 44.9598 15.8017 49.629 18.6083 54.0489C20.2876 56.8295 22.2193 59.4496 24.3791 61.8759C26.1046 64.1549 28.6352 65.6891 31.4538 66.1652C32.4553 66.2219 33.4539 66.0096 34.3458 65.5505C35.2377 65.0913 35.9907 64.402 36.5265 63.554C36.9522 63.85 37.4224 64.0762 37.9193 64.2241C38.6906 64.4574 39.4934 64.5697 40.2991 64.557C42.9544 64.5832 45.5419 63.719 47.6486 62.1025C47.7659 62.4859 47.8767 62.8542 47.9696 63.1738C48.1221 63.6886 48.2745 64.1938 48.4206 64.6666C49.0703 67.199 50.0807 69.625 51.4208 71.8699C51.4831 71.9576 51.5694 72.0897 51.6611 72.2326C52.4572 73.613 53.5941 74.7662 54.9631 75.5819C56.5667 76.4188 58.4341 76.5951 60.166 76.0731C60.9086 75.8691 61.6278 75.5878 62.3117 75.2337C63.6428 74.6917 64.8518 73.8886 65.8675 72.8717C66.8832 71.8548 67.6849 70.6449 68.2254 69.3131C69.3607 66.2064 69.2001 62.0299 67.6981 55.7815C67.6712 55.5994 67.6467 55.4264 67.6223 55.2631L67.5728 54.9245L68.0156 54.8472L68.1265 54.8174C70.6024 54.2652 72.931 53.1878 74.9547 51.6581C76.2055 50.612 80.1375 46.967 78.1847 43.9987" fill="#FAF3E0"/>
<path d="M75.0398 42.6212L75.0823 42.9181L75.0834 42.918L75.0398 42.6212ZM73.0038 43.2905L73.1421 43.5567L73.1458 43.5547L73.0038 43.2905ZM69.933 44.5622L69.6441 44.4812L69.4944 45.0154L70.0234 44.8482L69.933 44.5622ZM72.2918 27.3576L72.5918 27.3574L72.5917 27.3549L72.2918 27.3576ZM68.2314 13.5716L68.4119 13.3319L68.4106 13.331L68.2314 13.5716ZM51.2927 10.5204L51.3676 10.8111L51.3766 10.8085L51.2927 10.5204ZM43.7691 13.7108L43.7966 14.0095L43.8662 14.0031L43.9258 13.9666L43.7691 13.7108ZM39.0844 14.5196L39.151 14.8122L39.1586 14.8103L39.0844 14.5196ZM31.646 18.6164L31.6267 18.9158L31.7617 18.9245L31.8576 18.829L31.646 18.6164ZM25.6439 18.7106L25.6518 19.0105L25.6622 19.0102L25.6726 19.0092L25.6439 18.7106ZM13.0309 24.3322L12.8131 24.1259L12.8065 24.1329L12.8003 24.1403L13.0309 24.3322ZM11.4592 40.1005L11.1737 40.1926L11.1769 40.2025L11.1808 40.2122L11.4592 40.1005ZM18.6083 54.0489L18.8651 53.8938L18.8615 53.8881L18.6083 54.0489ZM24.3791 61.8759L24.6183 61.6948L24.6111 61.6854L24.6032 61.6765L24.3791 61.8759ZM31.4538 66.1652L31.4038 66.4611L31.4202 66.4638L31.4368 66.4648L31.4538 66.1652ZM36.5265 63.554L36.6978 63.3077L36.4404 63.1286L36.2729 63.3937L36.5265 63.554ZM37.9193 64.2241L38.0062 63.937L38.0049 63.9366L37.9193 64.2241ZM40.2991 64.557L40.302 64.257L40.2944 64.2571L40.2991 64.557ZM47.6486 62.1025L47.9355 62.0147L47.809 61.6012L47.466 61.8645L47.6486 62.1025ZM47.9696 63.1738L47.6816 63.2576L47.682 63.2591L47.9696 63.1738ZM48.4206 64.6666L48.7112 64.592L48.7094 64.585L48.7072 64.578L48.4206 64.6666ZM51.4208 71.8699L51.1632 72.0237L51.1693 72.034L51.1762 72.0437L51.4208 71.8699ZM51.6611 72.2326L51.921 72.0827L51.9174 72.0765L51.9136 72.0706L51.6611 72.2326ZM54.9631 75.5819L54.8096 75.8396L54.8168 75.844L54.8243 75.8479L54.9631 75.5819ZM60.166 76.0731L60.0865 75.7838L60.0794 75.7859L60.166 76.0731ZM62.3117 75.2337L62.1985 74.9559L62.1859 74.961L62.1738 74.9673L62.3117 75.2337ZM65.8675 72.8717L65.6553 72.6597L65.8675 72.8717ZM68.2254 69.3131L68.5035 69.426L68.5071 69.4161L68.2254 69.3131ZM67.6981 55.7815L67.4014 55.8254L67.4033 55.8386L67.4064 55.8516L67.6981 55.7815ZM67.6223 55.2631L67.3255 55.3065L67.3256 55.3074L67.6223 55.2631ZM67.5728 54.9245L67.5212 54.629L67.2338 54.6793L67.276 54.9679L67.5728 54.9245ZM68.0156 54.8472L68.0672 55.1427L68.0803 55.1404L68.0932 55.1369L68.0156 54.8472ZM68.1265 54.8174L68.0611 54.5244L68.0488 54.5277L68.1265 54.8174ZM74.9547 51.6581L75.1356 51.8975L75.1415 51.893L75.1472 51.8883L74.9547 51.6581ZM78.4372 43.8447C78.0653 43.2926 77.5449 42.8569 76.9361 42.5879L76.6936 43.1367C77.199 43.36 77.6309 43.7216 77.9395 44.1798L78.4372 43.8447ZM76.9361 42.5879C76.3272 42.3189 75.6547 42.2275 74.9962 42.3244L75.0834 42.918C75.63 42.8376 76.1882 42.9134 76.6936 43.1367L76.9361 42.5879ZM74.9973 42.3242C74.2498 42.4312 73.527 42.6688 72.8618 43.0262L73.1458 43.5547C73.749 43.2306 74.4045 43.0151 75.0823 42.9181L74.9973 42.3242ZM72.8655 43.0242C71.8959 43.528 70.8845 43.9469 69.8426 44.2761L70.0234 44.8482C71.0983 44.5086 72.1418 44.0764 73.1421 43.5567L72.8655 43.0242ZM70.2219 44.6431C71.7988 39.0167 72.5962 33.2006 72.5918 27.3574L71.9918 27.3579C71.9961 33.1462 71.2062 38.9077 69.6441 44.4812L70.2219 44.6431ZM72.5917 27.3549C72.5112 18.3926 70.3328 14.7784 68.4119 13.3319L68.0509 13.8112C69.7473 15.0886 71.9118 18.4635 71.9918 27.3603L72.5917 27.3549ZM68.4106 13.331C65.9782 11.5195 63.1588 10.2969 60.174 9.75921L60.0676 10.3497C62.9611 10.8709 65.6942 12.0561 68.0522 13.8122L68.4106 13.331ZM60.174 9.75921C57.1892 9.22156 54.1203 9.38355 51.2087 10.2324L51.3766 10.8085C54.1992 9.98554 57.1741 9.82851 60.0676 10.3497L60.174 9.75921ZM51.2177 10.23C48.5366 10.9215 45.9733 12.0084 43.6123 13.455L43.9258 13.9666C46.236 12.5512 48.7441 11.4876 51.3676 10.8109L51.2177 10.23ZM43.7415 13.4121C42.1453 13.5593 40.5633 13.8324 39.0102 14.2289L39.1586 14.8103C40.6811 14.4216 42.2319 14.1539 43.7966 14.0095L43.7415 13.4121ZM39.0178 14.2271C36.1482 14.8804 33.5203 16.3277 31.4343 18.4038L31.8576 18.829C33.8638 16.8324 36.3912 15.4404 39.151 14.8121L39.0178 14.2271ZM31.6652 18.317C29.6493 18.1873 27.6262 18.2191 25.6153 18.4119L25.6726 19.0092C27.6516 18.8194 29.6427 18.7882 31.6267 18.9158L31.6652 18.317ZM25.636 18.4107C23.228 18.4741 20.8561 19.0116 18.6558 19.9922L18.9001 20.5402C21.0283 19.5917 23.3226 19.0718 25.6518 19.0105L25.636 18.4107ZM18.6558 19.9922C16.4556 20.9729 14.4702 22.3775 12.8131 24.1259L13.2486 24.5386C14.8515 22.8475 16.7719 21.4888 18.9001 20.5402L18.6558 19.9922ZM12.8003 24.1403C9.52689 28.0716 9.01532 33.4978 11.1737 40.1926L11.7448 40.0085C9.62162 33.423 10.1687 28.2386 13.2614 24.5242L12.8003 24.1403ZM11.1808 40.2122C13.137 45.0886 15.5386 49.7742 18.355 54.2097L18.8615 53.8881C16.0649 49.4838 13.6802 44.831 11.7377 39.9888L11.1808 40.2122ZM18.3515 54.204C20.0403 57.0004 21.983 59.6353 24.155 62.0754L24.6032 61.6765C22.4557 59.2639 20.5349 56.6587 18.8651 53.8938L18.3515 54.204ZM24.1399 62.057C25.9116 64.397 28.5098 65.9722 31.4038 66.4611L31.5037 65.8694C28.7605 65.4061 26.2977 63.9129 24.6183 61.6948L24.1399 62.057ZM31.4368 66.4648C32.4918 66.5244 33.5436 66.3008 34.4831 65.8172L34.2085 65.2837C33.3641 65.7184 32.4189 65.9193 31.4707 65.8657L31.4368 66.4648ZM34.4831 65.8172C35.4226 65.3336 36.2157 64.6075 36.7802 63.7142L36.2729 63.3937C35.7656 64.1965 35.0529 64.8491 34.2085 65.2837L34.4831 65.8172ZM36.3553 63.8002C36.8071 64.1145 37.3062 64.3547 37.8338 64.5117L38.0049 63.9366C37.5385 63.7978 37.0973 63.5855 36.6978 63.3077L36.3553 63.8002ZM37.8325 64.5113C38.6335 64.7535 39.4671 64.8701 40.3038 64.857L40.2944 64.2571C39.5197 64.2692 38.7478 64.1612 38.0062 63.937L37.8325 64.5113ZM40.2961 64.857C43.0185 64.8838 45.6714 63.9978 47.8312 62.3405L47.466 61.8645C45.4125 63.4402 42.8903 64.2826 40.302 64.2571L40.2961 64.857ZM47.3617 62.1902C47.4788 62.573 47.5892 62.9398 47.6816 63.2576L48.2577 63.0901C48.1642 62.7686 48.053 62.3989 47.9355 62.0147L47.3617 62.1902ZM47.682 63.2591C47.8348 63.7747 47.9874 64.281 48.1339 64.7552L48.7072 64.578C48.5615 64.1065 48.4095 63.6025 48.2573 63.0886L47.682 63.2591ZM48.13 64.7411C48.7869 67.3014 49.8084 69.754 51.1632 72.0237L51.6784 71.7162C50.3531 69.4959 49.3538 67.0966 48.7112 64.592L48.13 64.7411ZM51.1762 72.0437C51.2339 72.1248 51.3167 72.2513 51.4086 72.3946L51.9136 72.0706C51.8222 71.9281 51.7322 71.7903 51.6653 71.6961L51.1762 72.0437ZM51.4012 72.3824C52.223 73.8074 53.3965 74.9977 54.8096 75.8396L55.1167 75.3242C53.7917 74.5348 52.6914 73.4187 51.921 72.0827L51.4012 72.3824ZM54.8243 75.8479C56.4974 76.721 58.4456 76.905 60.2526 76.3604L60.0794 75.7859C58.4225 76.2853 56.6361 76.1166 55.1019 75.3159L54.8243 75.8479ZM60.2455 76.3624C61.0083 76.1528 61.7471 75.8638 62.4496 75.5001L62.1738 74.9673C61.5085 75.3117 60.8089 75.5854 60.0865 75.7839L60.2455 76.3624ZM62.4248 75.5116C63.793 74.9544 65.0358 74.1289 66.0798 73.0837L65.6553 72.6597C64.6679 73.6482 63.4925 74.429 62.1985 74.9559L62.4248 75.5116ZM66.0798 73.0837C67.1237 72.0385 67.9478 70.7948 68.5033 69.4259L67.9474 69.2003C67.422 70.4949 66.6426 71.6712 65.6553 72.6597L66.0798 73.0837ZM68.5071 69.4161C69.6744 66.2222 69.4947 61.972 67.9898 55.7114L67.4064 55.8516C68.9055 62.0877 69.0471 66.1905 67.9436 69.2102L68.5071 69.4161ZM67.9949 55.7376C67.9687 55.5608 67.943 55.3795 67.919 55.2189L67.3256 55.3074C67.3503 55.4734 67.3736 55.638 67.4014 55.8254L67.9949 55.7376ZM67.9192 55.2197L67.8697 54.8812L67.276 54.9679L67.3255 55.3065L67.9192 55.2197ZM67.6245 55.2201L68.0672 55.1427L67.9639 54.5516L67.5212 54.629L67.6245 55.2201ZM68.0932 55.1369L68.2041 55.1072L68.0488 54.5277L67.9379 54.5574L68.0932 55.1369ZM68.1918 55.1103C70.7097 54.5486 73.0776 53.453 75.1356 51.8975L74.7738 51.4188C72.7843 52.9226 70.4952 53.9817 68.0612 54.5246L68.1918 55.1103ZM75.1472 51.8883C75.7801 51.3589 77.1042 50.1624 78.0245 48.7098C78.9391 47.2662 79.5119 45.4702 78.4354 43.8338L77.9341 44.1635C78.8104 45.4955 78.3935 47.0062 77.5176 48.3887C76.6474 49.7622 75.3801 50.9113 74.7623 51.428L75.1472 51.8883Z" fill="#DED0AB" mask="url(#path-3-inside-1_317_331)"/>
</g>
<path d="M74.2425 45.749C67.4774 49.1437 66.337 46.853 66.337 46.853C70.8904 33.61 70.2352 18.5233 66.5737 15.7701C56.5868 8.25509 44.9129 16.2044 44.7287 16.3775L44.6622 16.4099C43.0045 16.5157 41.3605 16.7775 39.7519 17.1918C37.0099 17.781 34.5542 19.2958 32.7972 21.4817C32.7972 21.4817 7.28698 18.1723 14.0813 39.2548C15.5258 43.74 29.8136 71.9065 34.8977 60.8798C36.7561 56.8489 38.6575 53.3501 38.6575 53.3501C40.2327 53.893 41.9475 53.8726 43.5094 53.2923L43.6093 53.1491C43.6862 53.5876 43.8193 54.0143 44.0054 54.4188C42.6507 57.0966 43.327 57.3206 39.671 59.1519C35.9794 61.0048 38.659 61.8228 40.2584 61.797C41.9888 61.8854 43.7028 61.425 45.1559 60.4813C46.609 59.5377 47.7269 58.1592 48.3499 56.5425L48.358 57.0256C49.2768 57.4297 50.7029 60.6241 51.4257 63.6746C51.7819 65.9919 52.5454 68.2279 53.6807 70.2793C54.7133 71.7423 56.2843 75.2328 61.071 72.7855C62.8289 72.1233 64.2865 70.8452 65.1727 69.1889C66.0589 67.5326 66.3134 65.6108 65.889 63.7809C65.3668 60.9266 65.9594 61.2094 65.3198 58.7045L65.397 57.4172C64.8349 53.5084 64.127 52.3878 66.8918 52.256L67.5432 52.1421C69.5872 51.6855 71.5129 50.8058 73.1963 49.5597C75.9838 47.2308 77.2085 44.2579 74.2448 45.7484" fill="#336791"/>
<path d="M37.8761 35.0578C37.3275 35.0877 36.8077 35.3131 36.4109 35.6931C36.362 35.7529 36.3256 35.822 36.3038 35.8962C36.282 35.9704 36.2752 36.0482 36.284 36.125C36.354 36.3861 36.5156 36.6132 36.7394 36.7649C37.1549 37.1007 37.6844 37.2623 38.2166 37.2159C38.2866 37.2072 38.3559 37.1934 38.424 37.1749C38.7615 37.0892 39.0645 36.9018 39.292 36.6381C39.5195 36.3745 39.6605 36.0473 39.696 35.7009C39.6248 35.1182 38.7068 34.9614 37.8847 35.0628M59.2652 29.3533C59.0858 28.9283 58.2669 29.0142 57.5592 29.3252C56.8515 29.6361 56.2121 30.1569 56.3915 30.5819C56.5808 30.828 56.8392 31.0122 57.1335 31.1109C57.4279 31.2097 57.745 31.2185 58.0445 31.1363C58.1073 31.1193 58.1689 31.098 58.2287 31.0724C58.6028 30.8982 58.9091 30.6055 59.0999 30.2396C59.2722 29.9813 59.335 29.6651 59.2744 29.3606" fill="white"/>
<path d="M76.5793 44.9433C76.0839 44.1903 75.1345 44.1608 73.755 44.8532C69.6623 46.9204 67.9423 46.7043 67.3306 46.4679C69.3515 40.2779 70.38 33.807 70.3777 27.2954C70.3917 24.7158 70.1094 22.143 69.5363 19.6277C69.2441 17.8392 68.37 16.1971 67.0495 14.9559C64.8676 13.3396 62.3402 12.2521 59.6664 11.779C56.9927 11.306 54.2455 11.4603 51.6416 12.2298C48.937 12.9093 46.3697 14.0495 44.0522 15.6003C42.4973 15.6313 40.951 15.8396 39.4434 16.2214C36.7092 16.8267 34.2352 18.2784 32.3731 20.37C30.164 20.1735 27.9413 20.1858 25.7345 20.4066C21.431 20.5115 17.3424 22.3089 14.3555 25.4089C11.6051 28.7276 11.1742 33.4581 13.1188 39.4569C15.0198 44.1729 17.3492 48.7046 20.0779 52.9952C24.6264 60.281 28.4634 64.0694 31.4831 64.2551C31.8736 64.2798 32.2656 64.2411 32.6438 64.1406C33.3356 63.9086 33.9653 63.5219 34.4853 63.0101C35.0053 62.4983 35.4019 61.8747 35.6448 61.1867C36.7119 58.8787 37.8452 56.6032 39.0446 54.3601C40.2811 54.6552 41.5695 54.6565 42.8066 54.3639L42.832 54.459C42.6879 54.7661 42.5502 55.0764 42.419 55.3898C41.8582 56.6926 41.7439 56.9634 39.1647 58.2587C38.4313 58.6275 36.4829 59.6057 36.8423 61.0648C37.2353 62.658 39.8817 62.655 40.179 62.6505C41.1666 62.6406 42.1492 62.5093 43.1048 62.2596C45.2016 61.7391 47.0222 60.4411 48.198 58.6286C49.1209 62.9991 50.5682 67.242 52.5085 71.2655C53.2438 72.5229 54.3695 73.506 55.7145 74.0653C57.0595 74.6246 58.5504 74.7296 59.9605 74.3642C60.658 74.175 61.3335 73.9127 61.9758 73.5816C63.7951 72.9217 65.3187 71.6333 66.2716 69.9488C67.2245 68.2643 67.5439 66.2948 67.1722 64.3955C66.9506 61.9654 66.1532 56.2367 65.6799 53.1752C66.5582 53.1808 67.4328 53.0585 68.2759 52.812C70.2333 52.3026 72.0719 51.4143 73.6874 50.1973C75.0985 49.0161 77.5231 46.401 76.5589 44.9487L76.5793 44.9433ZM60.5756 27.6872C60.7717 28.5354 60.9084 29.3964 60.9845 30.2637C61.0769 31.282 61.2345 32.2934 61.4561 33.2917C61.7468 34.4071 62.1205 35.4992 62.5742 36.5589C63.6676 38.6836 64.117 41.0813 63.8671 43.4578C63.6079 43.1932 63.3651 42.9131 63.1401 42.6189C62.9232 42.3349 62.498 41.8981 61.9142 41.295C59.6347 38.9456 54.2924 33.4423 55.4324 30.3076C55.7721 29.3746 56.9547 28.2012 60.5733 27.6878L60.5756 27.6872ZM52.3414 13.9543C54.646 13.286 57.0743 13.1616 59.4351 13.5909C61.796 14.0201 64.025 14.9914 65.9469 16.4282C68.9094 18.6553 69.9134 32.1368 65.8491 45.0863L65.5641 44.8739L65.4461 44.7866C66.1355 41.7735 65.7242 38.6131 64.2865 35.8769C63.8637 34.9042 63.5138 33.9014 63.24 32.8768C63.0357 31.9503 62.8904 31.0119 62.805 30.067C62.71 28.8977 62.4999 27.7406 62.1778 26.6124C62.1729 26.4469 62.1398 26.2835 62.0798 26.1291C60.5174 23.2986 58.2804 20.8976 55.5675 19.139C53.0946 17.4279 50.2707 16.2911 47.302 15.8117C48.9042 15.0031 50.5921 14.3767 52.3339 13.9442L52.3414 13.9543ZM33.9883 60.4197C33.0262 62.5071 31.9563 62.4443 31.6126 62.42C29.3236 62.2811 25.693 58.4933 21.6568 52.0237C19.0117 47.8584 16.7461 43.4639 14.8871 38.8933C13.1596 33.5327 13.4617 29.39 15.7863 26.5833C19.5693 22.0198 27.782 21.9447 31.1371 22.1231C31.1033 22.1782 31.0689 22.2311 31.0381 22.2879C27.3441 28.759 29.8056 37.4655 29.9623 37.9961C30.0175 38.2021 30.1116 38.4899 30.2457 38.8908C31.0836 41.2754 31.6778 43.7388 32.0192 46.2432C32.1804 47.6864 32.668 49.0739 33.4453 50.3005C34.2226 51.5272 35.269 52.5606 36.5052 53.3226C36.7617 53.4771 37.0245 53.6186 37.2934 53.7471C36.6751 54.9076 35.3401 57.4685 33.986 60.4203L33.9883 60.4197ZM37.4639 51.7481C36.462 51.1319 35.6138 50.2953 34.984 49.3019C34.3541 48.3085 33.9591 47.1845 33.829 46.0155C33.4734 43.3904 32.8522 40.8081 31.975 38.3085C31.9038 38.0971 31.8421 37.9122 31.7959 37.7669C33.3094 35.8294 35.4788 34.512 37.8958 34.0626C38.4736 34.0401 39.0441 34.1981 39.528 34.5145C40.012 34.831 40.3854 35.2902 40.5965 35.8285C43.8721 42.2034 43.3573 45.3623 42.9457 47.9014C42.8601 48.4242 42.7786 48.9168 42.7324 49.4144L42.6957 49.8028C42.5902 50.7103 42.5366 51.623 42.5353 52.5367C41.681 52.7526 40.7918 52.7935 39.9212 52.6569C39.0506 52.5203 38.2167 52.209 37.4695 51.7418L37.4639 51.7481ZM40.1644 60.8031C39.7166 60.8123 39.2704 60.7473 38.8439 60.6109C39.2022 60.3297 39.5915 60.0902 40.0042 59.8973C43.0372 58.376 43.4068 57.7723 44.1242 56.1121C44.2889 55.7307 44.472 55.291 44.7467 54.7588C45.1522 53.9537 45.4491 53.9931 45.9824 54.0637C46.2432 54.1263 46.4882 54.2423 46.7019 54.4042C46.9157 54.5662 47.0936 54.7707 47.2245 55.0048C47.3367 55.1701 47.4113 55.358 47.4432 55.5553C47.4751 55.7525 47.4635 55.9544 47.4092 56.1467C46.8563 57.5937 45.8554 58.8261 44.5526 59.6641C43.2498 60.502 41.7132 60.9017 40.1672 60.8047L40.1644 60.8031ZM61.1607 71.934C60.5845 72.3252 59.9324 72.5904 59.2468 72.7124C58.5612 72.8344 57.8575 72.8104 57.1818 72.6421C56.5061 72.4737 55.8735 72.1647 55.3253 71.7353C54.777 71.3059 54.3256 70.7657 54.0003 70.1499C51.8283 65.2329 50.2064 60.0909 49.164 54.8175C49.1408 54.7218 49.1025 54.6305 49.0503 54.5471C48.9794 54.3775 48.8965 54.2132 48.8021 54.0555C48.5316 53.5822 48.1604 53.1741 47.7148 52.8599C47.2692 52.5458 46.7601 52.3333 46.2234 52.2375C45.5938 52.1109 44.9398 52.2006 44.3675 52.4922C44.3716 51.6496 44.4231 50.8079 44.5218 49.971L44.5579 49.5804C44.5999 49.1397 44.6745 48.6756 44.7538 48.1837C45.185 45.5277 45.777 41.8871 42.2246 34.9774C41.957 34.3803 41.5699 33.8445 41.0872 33.4028C40.6046 32.9611 40.0365 32.6229 39.4182 32.4092C38.7998 32.1954 38.1442 32.1106 37.4918 32.1599C36.8395 32.2093 36.2041 32.3917 35.6249 32.696C34.1856 33.289 32.8611 34.1292 31.7114 35.1787C31.5591 35.3165 31.4192 35.4462 31.2922 35.57C30.3612 31.4106 30.8317 27.06 32.6304 23.1958C33.414 21.8718 34.4656 20.7262 35.7179 19.8324C36.9701 18.9386 38.3953 18.3164 39.9021 18.0056C42.4141 17.3559 45.0382 17.2652 47.5891 17.7401C50.14 18.2149 52.5557 19.2438 54.6657 20.754C56.7043 22.1511 58.4744 23.9043 59.891 25.9295C56.4886 26.4796 54.4113 27.7374 53.7077 29.6754C52.1686 33.8925 57.8637 39.7525 60.5985 42.5696C61.1007 43.0853 61.5334 43.5323 61.6846 43.7344C62.4777 44.7426 63.4185 45.6251 64.4752 46.3521C64.7102 46.5318 64.934 46.6878 65.1105 46.8395C64.1852 47.398 62.5621 48.5487 63.6234 51.8482C63.9409 53.5586 65.1011 61.6554 65.3642 64.5572C65.7135 68.3872 64.7322 70.1132 61.1603 71.9414L61.1607 71.934ZM72.5282 48.7779C71.2827 49.7042 69.8856 50.407 68.3993 50.8548C67.4415 51.2688 66.3882 51.4109 65.3549 51.2653C64.6956 49.2121 65.4184 48.7855 66.1715 48.3362C66.2909 48.2654 66.4057 48.1958 66.517 48.1223C66.6142 48.1654 66.7135 48.2036 66.8146 48.2367C68.5172 48.8044 71.1276 48.2142 74.571 46.4859L74.6118 46.475C74.0379 47.3468 73.333 48.1249 72.522 48.782L72.5282 48.7779Z" fill="white"/>
</g>
<defs>
<filter id="filter0_d_317_331" x="10.1709" y="9.74866" width="69.5485" height="67.6191" filterUnits="userSpaceOnUse" color-interpolation-filters="sRGB">
<feFlood flood-opacity="0" result="BackgroundImageFix"/>
<feColorMatrix in="SourceAlpha" type="matrix" values="0 0 0 0 0 0 0 0 0 0 0 0 0 0 0 0 0 0 127 0" result="hardAlpha"/>
<feOffset dx="1" dy="1"/>
<feComposite in2="hardAlpha" operator="out"/>
<feColorMatrix type="matrix" values="0 0 0 0 0.890196 0 0 0 0 0.85098 0 0 0 0 0.74902 0 0 0 1 0"/>
<feBlend mode="normal" in2="BackgroundImageFix" result="effect1_dropShadow_317_331"/>
<feBlend mode="normal" in="SourceGraphic" in2="effect1_dropShadow_317_331" result="shape"/>
</filter>
<clipPath id="clip0_317_331">
<rect width="75" height="75" fill="white" transform="translate(0 19.4114) rotate(-15)"/>
</clipPath>
</defs>
</svg>
