<svg width="78" height="70" viewBox="0 0 78 70" fill="none" xmlns="http://www.w3.org/2000/svg">
<path d="M26.8013 17.6603C27.0385 17.5188 27.3454 17.5965 27.4868 17.8337C27.6282 18.0709 27.5506 18.3778 27.3134 18.5192L26.8013 17.6603ZM20.6854 25.198L20.1931 25.1106L20.6854 25.198ZM21.7206 31.6161L21.2875 31.8661L21.28 31.8531L21.2733 31.8397L21.7206 31.6161ZM26.6977 39.4668L26.8227 38.9826L26.6977 39.4668ZM33.2878 36.8811L32.8725 36.6027L33.2878 36.8811ZM30.2228 31.0834L30.0587 31.5556L30.2228 31.0834ZM20.0329 35.9229L20.4724 36.1612L20.0329 35.9229ZM10.3801 46.4967C10.3086 46.7634 10.0345 46.9217 9.76772 46.8503L5.42105 45.6856C5.15432 45.6141 4.99603 45.3399 5.0675 45.0732C5.13897 44.8065 5.41314 44.6482 5.67987 44.7197L9.54357 45.7549L10.5788 41.8912C10.6503 41.6245 10.9245 41.4662 11.1912 41.5377C11.458 41.6091 11.6162 41.8833 11.5448 42.15L10.3801 46.4967ZM26.2494 19.1537C26.0129 19.2962 25.7056 19.2201 25.5631 18.9835C25.4205 18.747 25.4967 18.4397 25.7332 18.2972L26.2494 19.1537ZM23.6187 19.6937C23.8388 19.5268 24.1524 19.57 24.3193 19.79C24.4861 20.01 24.443 20.3237 24.2229 20.4905L23.6187 19.6937ZM22.5364 22.117C22.3675 22.3354 22.0535 22.3756 21.835 22.2068C21.6165 22.0379 21.5763 21.7238 21.7452 21.5054L22.5364 22.117ZM20.5113 23.8373C20.5977 23.575 20.8805 23.4325 21.1427 23.519C21.4049 23.6055 21.5474 23.8882 21.4609 24.1504L20.5113 23.8373ZM21.062 26.0739C21.0313 26.3483 20.7839 26.5459 20.5095 26.5152C20.2351 26.4845 20.0375 26.2371 20.0682 25.9627L21.062 26.0739ZM20.0284 27.7105C20.008 27.4351 20.2147 27.1953 20.49 27.1748C20.7654 27.1544 21.0052 27.3611 21.0257 27.6365L20.0284 27.7105ZM21.2944 29.1729C21.367 29.4393 21.21 29.7142 20.9436 29.7869C20.6772 29.8595 20.4023 29.7025 20.3296 29.4361L21.2944 29.1729ZM20.9104 31.0644C20.8003 30.8112 20.9163 30.5166 21.1695 30.4065C21.4227 30.2963 21.7173 30.4123 21.8274 30.6655L20.9104 31.0644ZM22.7141 32.5119C22.8207 32.7667 22.7006 33.0596 22.4459 33.1662C22.1912 33.2728 21.8982 33.1527 21.7916 32.898L22.7141 32.5119ZM22.584 35.1492C22.4974 34.887 22.6398 34.6042 22.902 34.5177C23.1642 34.4311 23.447 34.5734 23.5336 34.8356L22.584 35.1492ZM24.402 37.0012C24.5339 37.2438 24.4442 37.5474 24.2016 37.6793C23.959 37.8112 23.6554 37.7215 23.5235 37.4789L24.402 37.0012ZM25.3228 39.4376C25.0855 39.2963 25.0078 38.9894 25.1491 38.7522C25.2904 38.5149 25.5972 38.4371 25.8345 38.5784L25.3228 39.4376ZM27.6571 39.1135C27.9327 39.1319 28.1411 39.3701 28.1227 39.6457C28.1043 39.9212 27.8661 40.1296 27.5905 40.1112L27.6571 39.1135ZM29.603 39.9381C29.3342 40.0011 29.0651 39.8343 29.002 39.5655C28.9389 39.2966 29.1057 39.0276 29.3746 38.9645L29.603 39.9381ZM30.9876 38.337C31.228 38.2011 31.5331 38.2859 31.6689 38.5263C31.8047 38.7667 31.72 39.0717 31.4796 39.2076L30.9876 38.337ZM33.0709 37.9574C32.8827 38.1596 32.5664 38.1709 32.3642 37.9827C32.1621 37.7946 32.1508 37.4782 32.3389 37.2761L33.0709 37.9574ZM32.9708 36.0772C32.9533 35.8016 33.1626 35.5641 33.4382 35.5466C33.7138 35.5292 33.9513 35.7384 33.9688 36.014L32.9708 36.0772ZM33.4046 34.1744C33.5261 34.4224 33.4235 34.7219 33.1755 34.8433C32.9275 34.9648 32.628 34.8622 32.5065 34.6142L33.4046 34.1744ZM31.6495 33.1974C31.4886 32.973 31.5401 32.6606 31.7645 32.4997C31.9889 32.3388 32.3013 32.3903 32.4622 32.6147L31.6495 33.1974ZM31.2699 31.2189C31.4709 31.4083 31.4803 31.7247 31.291 31.9257C31.1016 32.1267 30.7852 32.1361 30.5842 31.9468L31.2699 31.2189ZM29.1712 31.3387C28.8981 31.2979 28.7097 31.0434 28.7505 30.7703C28.7913 30.4972 29.0458 30.3088 29.3189 30.3496L29.1712 31.3387ZM27.1582 30.3765C27.4308 30.3329 27.6873 30.5185 27.7309 30.7912C27.7746 31.0639 27.5889 31.3203 27.3162 31.364L27.1582 30.3765ZM25.4907 31.8848C25.2349 31.9887 24.9432 31.8656 24.8393 31.6098C24.7353 31.3539 24.8585 31.0623 25.1143 30.9583L25.4907 31.8848ZM23.2469 31.9295C23.4795 31.7807 23.7887 31.8487 23.9375 32.0814C24.0863 32.314 24.0183 32.6232 23.7856 32.772L23.2469 31.9295ZM22.2567 33.9458C22.0531 34.1323 21.7368 34.1185 21.5503 33.9149C21.3637 33.7113 21.3776 33.395 21.5812 33.2085L22.2567 33.9458ZM20.1676 34.7786C20.3299 34.5551 20.6426 34.5056 20.866 34.6679C21.0894 34.8302 21.139 35.1429 20.9767 35.3663L20.1676 34.7786ZM19.6458 37.2396C19.4412 37.4251 19.125 37.4096 18.9395 37.205C18.7541 37.0004 18.7696 36.6842 18.9741 36.4988L19.6458 37.2396ZM17.0991 37.1374C17.3752 37.1329 17.6027 37.3531 17.6071 37.6292C17.6116 37.9053 17.3914 38.1328 17.1153 38.1372L17.0991 37.1374ZM14.6623 37.893C14.3889 37.854 14.199 37.6007 14.238 37.3274C14.2771 37.054 14.5303 36.864 14.8037 36.9031L14.6623 37.893ZM12.2815 36.8018C12.5547 36.7616 12.8088 36.9504 12.849 37.2236C12.8893 37.4968 12.7004 37.7509 12.4272 37.7911L12.2815 36.8018ZM10.805 38.537C10.5799 38.697 10.2678 38.6442 10.1078 38.4191C9.94788 38.194 10.0007 37.8818 10.2258 37.7219L10.805 38.537ZM8.88648 38.9618C9.05863 38.7459 9.37322 38.7104 9.58913 38.8825C9.80505 39.0547 9.84052 39.3693 9.66837 39.5852L8.88648 38.9618ZM8.9905 40.8972C8.91811 41.1637 8.6434 41.321 8.37691 41.2487C8.11043 41.1763 7.95308 40.9016 8.02546 40.6351L8.9905 40.8972ZM7.90097 42.4998C7.86999 42.2254 8.06732 41.9778 8.34172 41.9469C8.61612 41.9159 8.86368 42.1132 8.89466 42.3876L7.90097 42.4998ZM9.27041 43.9121C9.36438 44.1718 9.23005 44.4585 8.97039 44.5524C8.71073 44.6464 8.42405 44.5121 8.33009 44.2524L9.27041 43.9121ZM9.04576 45.8566C8.91822 45.6117 9.01337 45.3098 9.2583 45.1822C9.50322 45.0547 9.80516 45.1498 9.93271 45.3947L9.04576 45.8566ZM27.3134 18.5192C26.9497 18.7361 26.5968 18.9443 26.2494 19.1537L25.7332 18.2972C26.0831 18.0863 26.4429 17.874 26.8013 17.6603L27.3134 18.5192ZM24.2229 20.4905C23.5773 20.9801 23.0086 21.5061 22.5364 22.117L21.7452 21.5054C22.2856 20.8063 22.9242 20.2203 23.6187 19.6937L24.2229 20.4905ZM21.4609 24.1504C21.3454 24.5007 21.2501 24.8776 21.1777 25.2854L20.1931 25.1106C20.2734 24.6583 20.3801 24.235 20.5113 23.8373L21.4609 24.1504ZM21.1777 25.2854C21.1304 25.5518 21.0911 25.8135 21.062 26.0739L20.0682 25.9627C20.1001 25.6773 20.1428 25.394 20.1931 25.1106L21.1777 25.2854ZM21.0257 27.6365C21.0617 28.1224 21.146 28.6289 21.2944 29.1729L20.3296 29.4361C20.1647 28.8314 20.0693 28.2616 20.0284 27.7105L21.0257 27.6365ZM21.8274 30.6655C21.9294 30.8999 22.0425 31.1419 22.1678 31.3925L21.2733 31.8397C21.1406 31.5742 21.0199 31.316 20.9104 31.0644L21.8274 30.6655ZM22.1536 31.3661C22.368 31.7374 22.5513 32.1228 22.7141 32.5119L21.7916 32.898C21.6409 32.5378 21.4759 32.1923 21.2875 31.8661L22.1536 31.3661ZM23.5336 34.8356C23.7968 35.6327 24.0566 36.366 24.402 37.0012L23.5235 37.4789C23.1307 36.7566 22.8471 35.946 22.584 35.1492L23.5336 34.8356ZM25.8345 38.5784C26.117 38.7467 26.4423 38.8844 26.8227 38.9826L26.5727 39.9509C26.1052 39.8301 25.6911 39.657 25.3228 39.4376L25.8345 38.5784ZM26.8227 38.9826C27.0804 39.0492 27.3607 39.0937 27.6571 39.1135L27.5905 40.1112C27.2372 40.0877 26.8951 40.0342 26.5727 39.9509L26.8227 38.9826ZM29.3746 38.9645C29.9232 38.8358 30.4719 38.6284 30.9876 38.337L31.4796 39.2076C30.8769 39.5481 30.2388 39.7889 29.603 39.9381L29.3746 38.9645ZM32.3389 37.2761C32.5305 37.0703 32.7093 36.846 32.8725 36.6027L33.7031 37.1596C33.5098 37.4478 33.2979 37.7135 33.0709 37.9574L32.3389 37.2761ZM32.8725 36.6027C32.9402 36.5017 32.9872 36.3371 32.9708 36.0772L33.9688 36.014C33.9936 36.4064 33.9343 36.8148 33.7031 37.1596L32.8725 36.6027ZM32.5065 34.6142C32.2723 34.1358 31.9712 33.646 31.6495 33.1974L32.4622 32.6147C32.8104 33.1004 33.1419 33.6378 33.4046 34.1744L32.5065 34.6142ZM30.5842 31.9468C30.3193 31.6972 30.1387 31.5834 30.0587 31.5556L30.3869 30.6111C30.6792 30.7126 30.9893 30.9546 31.2699 31.2189L30.5842 31.9468ZM30.0587 31.5556C29.7708 31.4556 29.4743 31.3839 29.1712 31.3387L29.3189 30.3496C29.6805 30.4036 30.0376 30.4897 30.3869 30.6111L30.0587 31.5556ZM27.3162 31.364C26.7077 31.4614 26.0934 31.6399 25.4907 31.8848L25.1143 30.9583C25.7785 30.6884 26.4661 30.4873 27.1582 30.3765L27.3162 31.364ZM23.7856 32.772C23.2372 33.1227 22.7218 33.5197 22.2567 33.9458L21.5812 33.2085C22.0889 32.7433 22.65 32.3112 23.2469 31.9295L23.7856 32.772ZM20.9767 35.3663C20.7847 35.6305 20.6158 35.8966 20.4724 36.1612L19.5933 35.6846C19.7594 35.3782 19.9522 35.0751 20.1676 34.7786L20.9767 35.3663ZM20.4724 36.1612C20.2348 36.5996 19.9586 36.9561 19.6458 37.2396L18.9741 36.4988C19.1934 36.3 19.4027 36.0363 19.5933 35.6846L20.4724 36.1612ZM17.1153 38.1372C16.3053 38.1503 15.4437 38.0046 14.6623 37.893L14.8037 36.9031C15.6302 37.0211 16.3896 37.1488 17.0991 37.1374L17.1153 38.1372ZM12.4272 37.7911C12.0797 37.8423 11.764 37.9419 11.4787 38.1066L10.9787 37.2406C11.3932 37.0013 11.8341 36.8677 12.2815 36.8018L12.4272 37.7911ZM11.4787 38.1066C11.2342 38.2478 11.0101 38.3913 10.805 38.537L10.2258 37.7219C10.4584 37.5566 10.7092 37.3962 10.9787 37.2406L11.4787 38.1066ZM9.66837 39.5852C9.33142 40.0078 9.11328 40.4452 8.9905 40.8972L8.02546 40.6351C8.18549 40.0459 8.46806 39.4866 8.88648 38.9618L9.66837 39.5852ZM8.89466 42.3876C8.94911 42.87 9.07715 43.3781 9.27041 43.9121L8.33009 44.2524C8.1165 43.6622 7.96608 43.0766 7.90097 42.4998L8.89466 42.3876ZM9.93271 45.3947C10.0565 45.6325 10.1893 45.8734 10.3301 46.1173L9.46411 46.6173C9.31691 46.3623 9.17703 46.1087 9.04576 45.8566L9.93271 45.3947Z" fill="#2C2C2C"/>
<g clip-path="url(#clip0_317_324)">
<path d="M30.0229 14.5612L36.5502 38.2919C37.3909 41.3487 41.21 42.372 43.4666 40.1452L60.9847 22.8574C63.2672 20.6048 62.2414 16.7249 59.1438 15.8949L54.5813 14.6724C53.1426 14.2869 51.6076 14.702 50.5592 15.76L44.8377 21.5342L42.6035 13.568C42.2078 12.1571 41.0973 11.0594 39.6818 10.6801L35.0984 9.45201C32.0008 8.62201 29.1725 11.4691 30.0229 14.5612ZM32.2406 13.9512C31.8614 12.5728 33.1223 11.3036 34.5032 11.6736L39.0865 12.9017C39.7175 13.0708 40.2126 13.5601 40.389 14.1891L42.6928 22.4035C43.1379 23.9906 45.1299 24.5071 46.2901 23.3362L52.193 17.3789C52.6604 16.9072 53.3446 16.7222 53.986 16.894L58.5485 18.1166C59.9293 18.4866 60.3867 20.2162 59.3691 21.2203L41.851 38.5081C40.8451 39.5008 39.1426 39.0446 38.7678 37.682L32.2406 13.9512Z" fill="#FAF3E0" stroke="#DED0AB" stroke-width="0.3"/>
<g filter="url(#filter0_d_317_324)">
<path fill-rule="evenodd" clip-rule="evenodd" d="M31.1213 55.6985L19.231 12.1049C18.2156 8.38199 21.6215 4.96085 25.3489 5.95962L30.8398 7.43088C32.5538 7.89016 33.896 9.22352 34.3666 10.9345L41.0633 35.2813L59.0362 17.5447C60.2992 16.2982 62.1283 15.8146 63.8423 16.2739L69.3332 17.7452C73.0606 18.7439 74.2996 23.4097 71.5588 26.1261L39.4647 57.9341C36.745 60.6296 32.1289 59.3927 31.1213 55.6985ZM22.1253 11.3155C21.7191 9.82634 23.0815 8.45789 24.5725 8.8574L30.0633 10.3287C30.7489 10.5124 31.2858 11.0457 31.4741 11.7301L38.6231 37.7217C39.0283 39.1948 40.8689 39.688 41.9563 38.6148L61.1434 19.68C61.6486 19.1814 62.3803 18.988 63.0659 19.1717L68.5567 20.6429C70.0477 21.0424 70.5433 22.9087 69.447 23.9953L37.3529 55.8033C36.2651 56.8815 34.4186 56.3868 34.0155 54.9091L22.1253 11.3155Z" fill="#FAF3E0"/>
<path d="M19.0863 12.1444L30.9766 55.738C32.0144 59.543 36.769 60.817 39.5703 58.0407L71.6644 26.2327C74.4875 23.4347 73.2113 18.629 69.372 17.6003L63.8812 16.129C62.1157 15.656 60.2318 16.1541 58.9308 17.4379L41.1401 34.9948L34.5113 10.8947C34.0265 9.13241 32.6441 7.75905 30.8786 7.28599L25.3877 5.81473C21.5485 4.786 18.0404 8.30977 19.0863 12.1444ZM22.27 11.2761C21.8943 9.89856 23.1545 8.63274 24.5336 9.00228L30.0245 10.4735C30.6587 10.6435 31.1553 11.1368 31.3294 11.7699L38.4785 37.7615C38.9141 39.3451 40.8927 39.8753 42.0617 38.7216L61.2488 19.7868C61.7161 19.3256 62.3929 19.1466 63.0271 19.3166L68.5179 20.7878C69.8971 21.1574 70.3555 22.8837 69.3414 23.8888L37.2473 55.6968C36.2411 56.6941 34.5331 56.2365 34.1603 54.8696L22.27 11.2761Z" stroke="#DED0AB" stroke-width="0.3"/>
</g>
<path d="M34.5419 11.5287C33.0491 11.1287 31.686 12.5008 32.0959 13.9909L38.6231 37.7217C39.0283 39.1948 40.8688 39.688 41.9563 38.6148L59.4744 21.327C60.5744 20.2414 60.08 18.3716 58.5872 17.9716L54.0247 16.7491C53.3314 16.5633 52.5916 16.7633 52.0864 17.2732L46.1835 23.2305C45.1042 24.3197 43.2512 23.8393 42.8371 22.3629L40.5333 14.1486C40.3426 13.4686 39.8074 12.9396 39.1252 12.7568L34.5419 11.5287Z" fill="#35495E"/>
<path d="M24.5725 8.85741C23.0815 8.4579 21.7191 9.82636 22.1253 11.3155L34.0155 54.9091C34.4186 56.3868 36.265 56.8815 37.3529 55.8033L69.4469 23.9953C70.5433 22.9088 70.0477 21.0425 68.5567 20.643L63.0659 19.1717C62.3803 18.988 61.6486 19.1814 61.1434 19.68L41.9563 38.6148C40.8688 39.688 39.0283 39.1948 38.6231 37.7217L31.474 11.7301C31.2858 11.0457 30.7489 10.5124 30.0633 10.3287L24.5725 8.85741Z" fill="#41B883"/>
</g>
<path d="M3.624 55.818L5.856 48.738H6.906L4.14 57H3.06L0.294 48.738H1.416L3.624 55.818ZM9.40931 50.682V55.158C9.40931 55.574 9.49531 55.874 9.66731 56.058C9.83931 56.242 10.1073 56.334 10.4713 56.334C10.8193 56.334 11.1473 56.236 11.4553 56.04C11.7673 55.84 12.0093 55.604 12.1813 55.332V50.682H13.1893V57H12.3313L12.2473 56.148C11.9993 56.468 11.6933 56.714 11.3293 56.886C10.9653 57.054 10.5973 57.138 10.2253 57.138C9.61331 57.138 9.15531 56.976 8.85131 56.652C8.55131 56.324 8.40131 55.866 8.40131 55.278V50.682H9.40931ZM16.3886 54.198C16.4086 54.686 16.5026 55.086 16.6706 55.398C16.8386 55.706 17.0606 55.934 17.3366 56.082C17.6126 56.226 17.9126 56.298 18.2366 56.298C18.5606 56.298 18.8526 56.25 19.1126 56.154C19.3766 56.058 19.6466 55.916 19.9226 55.728L20.3966 56.394C20.1006 56.626 19.7626 56.808 19.3826 56.94C19.0066 57.072 18.6206 57.138 18.2246 57.138C17.6126 57.138 17.0906 57 16.6586 56.724C16.2266 56.448 15.8966 56.064 15.6686 55.572C15.4446 55.076 15.3326 54.502 15.3326 53.85C15.3326 53.21 15.4466 52.642 15.6746 52.146C15.9026 51.65 16.2226 51.26 16.6346 50.976C17.0466 50.692 17.5326 50.55 18.0926 50.55C18.6246 50.55 19.0826 50.676 19.4666 50.928C19.8506 51.176 20.1446 51.532 20.3486 51.996C20.5566 52.456 20.6606 53.006 20.6606 53.646C20.6606 53.754 20.6586 53.856 20.6546 53.952C20.6506 54.044 20.6446 54.126 20.6366 54.198H16.3886ZM18.1046 51.378C17.6366 51.378 17.2446 51.544 16.9286 51.876C16.6166 52.208 16.4386 52.722 16.3946 53.418H19.6886C19.6766 52.742 19.5286 52.234 19.2446 51.894C18.9606 51.55 18.5806 51.378 18.1046 51.378Z" fill="#2C2C2C"/>
<defs>
<filter id="filter0_d_317_324" x="18.749" y="5.48352" width="55.5933" height="55.2025" filterUnits="userSpaceOnUse" color-interpolation-filters="sRGB">
<feFlood flood-opacity="0" result="BackgroundImageFix"/>
<feColorMatrix in="SourceAlpha" type="matrix" values="0 0 0 0 0 0 0 0 0 0 0 0 0 0 0 0 0 0 127 0" result="hardAlpha"/>
<feOffset dx="1" dy="1"/>
<feComposite in2="hardAlpha" operator="out"/>
<feColorMatrix type="matrix" values="0 0 0 0 0.890196 0 0 0 0 0.85098 0 0 0 0 0.74902 0 0 0 1 0"/>
<feBlend mode="normal" in2="BackgroundImageFix" result="effect1_dropShadow_317_324"/>
<feBlend mode="normal" in="SourceGraphic" in2="effect1_dropShadow_317_324" result="shape"/>
</filter>
<clipPath id="clip0_317_324">
<rect width="59" height="56" fill="white" transform="translate(20.4939) rotate(15)"/>
</clipPath>
</defs>
</svg>
