<svg width="89" height="84" viewBox="0 0 89 84" fill="none" xmlns="http://www.w3.org/2000/svg">
<path d="M18.8361 43.1516C19.0285 42.9535 19.345 42.9489 19.5431 43.1413C19.7412 43.3337 19.7459 43.6502 19.5535 43.8483L18.8361 43.1516ZM13.7127 51.2981L13.2156 51.3513L13.7127 51.2981ZM16.4567 57.1958L16.1032 57.5493L16.093 57.5391L16.0834 57.5284L16.4567 57.1958ZM23.1621 61.8955L23.1681 61.3955L23.1621 61.8955ZM27.8813 58.9807L27.4055 58.8272L27.8813 58.9807ZM24.354 54.6886L24.3074 55.1865L24.354 54.6886ZM15.4069 59.4253L15.8953 59.5325L15.4069 59.4253ZM8.84495 66.188L9.29571 66.4043L8.84495 66.188ZM13.6544 74.803C13.7632 75.0569 13.6456 75.3508 13.3918 75.4596L9.25563 77.2322C9.00182 77.341 8.70788 77.2234 8.5991 76.9696C8.49032 76.7158 8.6079 76.4218 8.86171 76.3131L12.5383 74.7374L10.9626 71.0608C10.8538 70.807 10.9714 70.5131 11.2252 70.4043C11.479 70.2955 11.773 70.4131 11.8818 70.6669L13.6544 74.803ZM18.6154 44.7317C18.4077 44.9137 18.0918 44.8928 17.9098 44.6851C17.7278 44.4774 17.7486 44.1615 17.9563 43.9796L18.6154 44.7317ZM16.0477 45.5861C16.2564 45.4053 16.5722 45.4278 16.753 45.6365C16.9339 45.8452 16.9114 46.1609 16.7027 46.3418L16.0477 45.5861ZM15.0583 48.0552C14.8973 48.2795 14.5849 48.3308 14.3606 48.1698C14.1362 48.0087 14.085 47.6963 14.246 47.472L15.0583 48.0552ZM13.2237 49.9876C13.2588 49.7137 13.5093 49.5201 13.7832 49.5552C14.0571 49.5903 14.2507 49.8407 14.2156 50.1146L13.2237 49.9876ZM14.3185 52.0337C14.3655 52.3059 14.183 52.5646 13.9109 52.6116C13.6388 52.6586 13.3801 52.4761 13.3331 52.204L14.3185 52.0337ZM13.7799 53.8918C13.6842 53.6328 13.8166 53.3452 14.0756 53.2495C14.3346 53.1538 14.6222 53.2862 14.7179 53.5452L13.7799 53.8918ZM15.3974 54.952C15.5392 55.1889 15.4622 55.496 15.2253 55.6379C14.9884 55.7797 14.6813 55.7027 14.5394 55.4658L15.3974 54.952ZM15.531 56.8769C15.358 56.6617 15.3922 56.3469 15.6074 56.1739C15.8227 56.0009 16.1374 56.0351 16.3104 56.2504L15.531 56.8769ZM17.5606 57.6399C17.7443 57.8461 17.7261 58.1622 17.5199 58.3459C17.3138 58.5296 16.9977 58.5113 16.814 58.3052L17.5606 57.6399ZM18.1969 59.9214C18.0149 59.7138 18.0357 59.3979 18.2434 59.2159C18.451 59.0339 18.7669 59.0547 18.9489 59.2623L18.1969 59.9214ZM20.4092 60.622C20.6385 60.7758 20.6997 61.0864 20.5459 61.3157C20.3921 61.5451 20.0815 61.6063 19.8521 61.4525L20.4092 60.622ZM22.0176 62.2994C21.7452 62.2541 21.5611 61.9966 21.6063 61.7242C21.6516 61.4518 21.9092 61.2676 22.1816 61.3129L22.0176 62.2994ZM23.9 61.3865C24.1759 61.3746 24.4092 61.5886 24.4211 61.8645C24.4331 62.1404 24.2191 62.3737 23.9432 62.3856L23.9 61.3865ZM25.5656 62.1355C25.3015 62.2162 25.022 62.0675 24.9413 61.8034C24.8606 61.5393 25.0093 61.2598 25.2734 61.1791L25.5656 62.1355ZM26.3937 60.5527C26.5967 60.3655 26.9131 60.3784 27.1002 60.5814C27.2874 60.7845 27.2745 61.1008 27.0715 61.2879L26.3937 60.5527ZM28.0583 59.9004C27.9412 60.1505 27.6435 60.2583 27.3934 60.1412C27.1433 60.0241 27.0355 59.7265 27.1526 59.4764L28.0583 59.9004ZM27.2021 57.7761C27.0761 57.5304 27.1732 57.229 27.4189 57.103C27.6646 56.977 27.9659 57.0741 28.0919 57.3198L27.2021 57.7761ZM25.9716 54.9426C26.1937 55.1067 26.2407 55.4198 26.0766 55.6418C25.9125 55.8639 25.5995 55.911 25.3774 55.7469L25.9716 54.9426ZM23.4355 55.1419C23.1593 55.1392 22.9376 54.9133 22.9402 54.6371C22.9429 54.361 23.1689 54.1393 23.445 54.1419L23.4355 55.1419ZM21.5402 54.2779C21.8132 54.2361 22.0683 54.4236 22.1101 54.6965C22.1518 54.9695 21.9644 55.2246 21.6914 55.2664L21.5402 54.2779ZM19.9958 55.6727C19.7338 55.7602 19.4506 55.6187 19.3632 55.3568C19.2757 55.0948 19.4172 54.8116 19.6791 54.7242L19.9958 55.6727ZM17.9176 55.5116C18.1564 55.3729 18.4624 55.454 18.6011 55.6928C18.7398 55.9316 18.6587 56.2376 18.4199 56.3763L17.9176 55.5116ZM17.0781 57.4046C16.8851 57.602 16.5685 57.6056 16.3711 57.4126C16.1736 57.2195 16.17 56.903 16.3631 56.7055L17.0781 57.4046ZM15.233 58.3548C15.3443 58.1021 15.6394 57.9875 15.8921 58.0988C16.1449 58.2101 16.2595 58.5052 16.1481 58.7579L15.233 58.3548ZM15.4588 60.7873C15.3365 61.0349 15.0367 61.1366 14.7891 61.0143C14.5415 60.892 14.4398 60.5922 14.5621 60.3446L15.4588 60.7873ZM13.1635 62.0248C13.3776 61.8504 13.6925 61.8827 13.8669 62.0968C14.0412 62.311 14.009 62.6259 13.7948 62.8002L13.1635 62.0248ZM11.7381 64.1872C11.5036 64.3329 11.1953 64.2609 11.0496 64.0264C10.9038 63.7918 10.9759 63.4835 11.2104 63.3378L11.7381 64.1872ZM9.18021 64.8586C9.37162 64.6595 9.68814 64.6533 9.88718 64.8448C10.0862 65.0362 10.0924 65.3527 9.901 65.5517L9.18021 64.8586ZM9.10159 67.0918C9.06602 67.3656 8.81518 67.5588 8.54134 67.5232C8.2675 67.4876 8.07435 67.2368 8.10993 66.9629L9.10159 67.0918ZM8.23689 68.8788C8.17633 68.6094 8.34565 68.3419 8.61508 68.2814C8.8845 68.2208 9.15199 68.3901 9.21255 68.6596L8.23689 68.8788ZM9.73968 70.2293C9.85048 70.4822 9.73524 70.7771 9.4823 70.8879C9.22935 70.9987 8.93449 70.8834 8.8237 70.6305L9.73968 70.2293ZM9.68004 72.2441C9.53323 72.0103 9.60382 71.7017 9.8377 71.5548C10.0716 71.408 10.3802 71.4786 10.527 71.7125L9.68004 72.2441ZM11.5215 73.0601C11.7029 73.2682 11.6813 73.5841 11.4732 73.7655C11.265 73.947 10.9492 73.9254 10.7677 73.7172L11.5215 73.0601ZM12.1436 74.9856C11.9174 74.8272 11.8623 74.5155 12.0207 74.2892C12.179 74.063 12.4908 74.0079 12.717 74.1663L12.1436 74.9856ZM19.5535 43.8483C19.253 44.1577 18.9363 44.4505 18.6154 44.7317L17.9563 43.9796C18.2644 43.7096 18.56 43.4359 18.8361 43.1516L19.5535 43.8483ZM16.7027 46.3418C16.0631 46.8961 15.4946 47.4475 15.0583 48.0552L14.246 47.472C14.7507 46.7691 15.3887 46.1573 16.0477 45.5861L16.7027 46.3418ZM14.2156 50.1146C14.1712 50.4616 14.1661 50.8363 14.2099 51.2448L13.2156 51.3513C13.164 50.8695 13.1688 50.4162 13.2237 49.9876L14.2156 50.1146ZM14.2099 51.2448C14.2386 51.5133 14.2738 51.7754 14.3185 52.0337L13.3331 52.204C13.2841 51.9208 13.2462 51.6371 13.2156 51.3513L14.2099 51.2448ZM14.7179 53.5452C14.8865 54.0014 15.1065 54.4662 15.3974 54.952L14.5394 55.4658C14.2175 54.9282 13.9705 54.4076 13.7799 53.8918L14.7179 53.5452ZM16.3104 56.2504C16.4707 56.4498 16.6435 56.6538 16.83 56.8631L16.0834 57.5284C15.8863 57.3072 15.7025 57.0903 15.531 56.8769L16.3104 56.2504ZM16.8103 56.8422C17.0796 57.1115 17.3278 57.3786 17.5606 57.6399L16.814 58.3052C16.5909 58.0548 16.356 57.8021 16.1032 57.5493L16.8103 56.8422ZM18.9489 59.2623C19.432 59.8135 19.8865 60.2714 20.4092 60.622L19.8521 61.4525C19.2208 61.029 18.6984 60.4936 18.1969 59.9214L18.9489 59.2623ZM22.1816 61.3129C22.4792 61.3624 22.806 61.3912 23.1681 61.3955L23.1561 62.3954C22.7482 62.3905 22.3703 62.358 22.0176 62.2994L22.1816 61.3129ZM23.1681 61.3955C23.4191 61.3985 23.6631 61.3968 23.9 61.3865L23.9432 62.3856C23.6822 62.3969 23.4188 62.3986 23.1561 62.3954L23.1681 61.3955ZM25.2734 61.1791C25.6938 61.0507 26.0677 60.8532 26.3937 60.5527L27.0715 61.2879C26.619 61.7051 26.1068 61.9701 25.5656 62.1355L25.2734 61.1791ZM27.1526 59.4764C27.2435 59.2822 27.3282 59.0667 27.4055 58.8272L28.3572 59.1342C28.2682 59.41 28.1685 59.6649 28.0583 59.9004L27.1526 59.4764ZM27.4055 58.8272C27.4834 58.5856 27.4364 58.233 27.2021 57.7761L28.0919 57.3198C28.3764 57.8745 28.5544 58.523 28.3572 59.1342L27.4055 58.8272ZM25.3774 55.7469C25.1397 55.5713 24.9154 55.4313 24.721 55.3339C24.5188 55.2326 24.3805 55.1933 24.3074 55.1865L24.4007 54.1908C24.6526 54.2144 24.9197 54.3149 25.169 54.4399C25.4262 54.5687 25.6995 54.7416 25.9716 54.9426L25.3774 55.7469ZM24.3074 55.1865C24.0195 55.1595 23.7282 55.1447 23.4355 55.1419L23.445 54.1419C23.7651 54.145 24.0843 54.1612 24.4007 54.1908L24.3074 55.1865ZM21.6914 55.2664C21.1085 55.3556 20.5381 55.4917 19.9958 55.6727L19.6791 54.7242C20.2778 54.5244 20.9038 54.3752 21.5402 54.2779L21.6914 55.2664ZM18.4199 56.3763C17.9104 56.6722 17.4576 57.0165 17.0781 57.4046L16.3631 56.7055C16.8134 56.2449 17.3403 55.8469 17.9176 55.5116L18.4199 56.3763ZM16.1481 58.7579C16.0397 59.0041 15.9546 59.2623 15.8953 59.5325L14.9185 59.3182C14.9922 58.9821 15.0982 58.6607 15.233 58.3548L16.1481 58.7579ZM15.8953 59.5325C15.7944 59.9921 15.646 60.4081 15.4588 60.7873L14.5621 60.3446C14.7132 60.0387 14.8349 59.6994 14.9185 59.3182L15.8953 59.5325ZM13.7948 62.8002C13.1364 63.3364 12.4006 63.7757 11.7381 64.1872L11.2104 63.3378C11.8976 62.9109 12.5666 62.5107 13.1635 62.0248L13.7948 62.8002ZM9.901 65.5517C9.65001 65.8127 9.44559 66.0921 9.29571 66.4043L8.39419 65.9716C8.59805 65.5469 8.86946 65.1817 9.18021 64.8586L9.901 65.5517ZM9.29571 66.4043C9.20061 66.6025 9.13534 66.832 9.10159 67.0918L8.10993 66.9629C8.15508 66.6154 8.24594 66.2805 8.39419 65.9716L9.29571 66.4043ZM9.21255 68.6596C9.32635 69.1659 9.50683 69.6977 9.73968 70.2293L8.8237 70.6305C8.56957 70.0503 8.36693 69.4575 8.23689 68.8788L9.21255 68.6596ZM10.527 71.7125C10.8333 72.2004 11.1704 72.6574 11.5215 73.0601L10.7677 73.7172C10.3797 73.2722 10.0118 72.7727 9.68004 72.2441L10.527 71.7125ZM12.717 74.1663C12.9496 74.3291 13.1724 74.4525 13.3805 74.5358L13.0091 75.4642C12.7155 75.3468 12.4253 75.1827 12.1436 74.9856L12.717 74.1663Z" fill="#2C2C2C"/>
<g clip-path="url(#clip0_317_327)">
<g filter="url(#filter0_d_317_327)">
<path fill-rule="evenodd" clip-rule="evenodd" d="M77.9493 44.3128C73.7683 59.9167 57.7294 69.1767 42.1255 64.9957C26.5217 60.8146 17.2616 44.7758 21.4427 29.1719C25.6237 13.568 41.6626 4.30799 57.2665 8.48904C72.8703 12.6701 82.1304 28.7089 77.9493 44.3128ZM75.0515 43.5364C71.2993 57.5399 56.9055 65.8501 42.902 62.0979C28.8985 58.3457 20.5882 43.9519 24.3404 29.9484C28.0927 15.9449 42.4865 7.63459 56.49 11.3868C70.4935 15.139 78.8038 29.5329 75.0515 43.5364Z" fill="#FAF3E0"/>
<path d="M42.0867 65.1406C57.7706 69.3431 73.8917 60.0355 78.0942 44.3516C82.2967 28.6677 72.9892 12.5466 57.3053 8.34415C41.6214 4.14166 25.5003 13.4492 21.2978 29.1331C17.0953 44.817 26.4028 60.9381 42.0867 65.1406ZM74.9067 43.4975C71.1759 57.421 56.8643 65.6838 42.9408 61.953C29.0174 58.2222 20.7546 43.9107 24.4853 29.9872C28.2161 16.0637 42.5277 7.80092 56.4512 11.5317C70.3746 15.2625 78.6374 29.5741 74.9067 43.4975Z" stroke="#DED0AB" stroke-width="0.3"/>
</g>
<path d="M42.902 62.0979C56.9055 65.8501 71.2993 57.5398 75.0516 43.5363C78.8038 29.5328 70.4935 15.139 56.49 11.3868C42.4865 7.63455 28.0927 15.9448 24.3405 29.9483C20.5882 43.9518 28.8985 58.3457 42.902 62.0979Z" fill="#028CB0"/>
<path d="M32.4097 32.1104C30.5742 38.9606 32.9777 45.9283 37.9883 50.2767L35.7962 25.4789C34.2133 27.4264 33.0593 29.6863 32.4097 32.1104ZM45.0642 54.0286C47.0718 54.5666 49.097 54.7315 51.0738 54.5878L51.0127 54.3251L49.5959 38.3416L40.3797 52.0179C41.7891 52.8882 43.3632 53.5728 45.0642 54.0286ZM54.2435 29.2719L55.5151 49.5363L58.7908 44.2382C60.1671 42.0447 61.1938 40.4802 61.5922 38.9936C62.167 36.8482 61.7951 35.1718 61.4554 33.8652C60.9525 32.1864 60.4645 30.7582 60.8423 29.3483C61.2694 27.7545 62.8589 26.6036 64.5753 27.0635L64.7899 27.1211C62.3882 23.3435 58.6537 20.6073 54.3279 19.4559C51.465 18.6883 48.4564 18.6443 45.5723 19.328C42.6883 20.0118 40.0195 21.4017 37.806 23.3727L38.9011 23.6992C40.7094 24.1837 43.5601 24.701 43.5601 24.701C44.5225 24.9098 44.2645 26.3023 43.3008 26.1592C43.3008 26.1592 42.3333 26.0314 41.2635 25.7939L42.5595 46.2125L49.3834 35.8865L48.6653 27.7772C48.0702 27.582 47.4808 27.3693 46.8981 27.1394C45.9797 26.8277 46.4689 25.4313 47.3914 25.7276C47.3914 25.7276 50.1802 26.7214 51.8812 27.1772C53.6894 27.6617 56.5402 28.179 56.5402 28.179C57.4874 28.3837 57.2446 29.7803 56.2809 29.6372C56.2809 29.6372 55.3174 29.494 54.2435 29.2719ZM54.3816 54.0122C57.4041 53.1923 60.1585 51.5936 62.3697 49.3759C64.5809 47.1582 66.1714 44.3992 66.9823 41.3742C67.7872 38.3704 67.7765 35.3454 67.089 32.5168C66.6355 35.3046 65.4904 37.9344 63.7584 40.1654L54.3816 54.0122ZM44.3579 56.6645C39.0741 55.2487 34.5692 51.7921 31.8342 47.0548C29.0992 42.3176 28.358 36.6879 29.7738 31.4042C31.1896 26.1204 34.6463 21.6155 39.3835 18.8805C44.1207 16.1455 49.7504 15.4043 55.0342 16.8201C60.3179 18.2358 64.8228 21.6926 67.5578 26.4298C70.2929 31.167 71.034 36.7967 69.6182 42.0804C68.2025 47.3642 64.7458 51.8691 60.0085 54.6041C55.2713 57.3392 49.6416 58.0803 44.3579 56.6645Z" fill="white"/>
</g>
<path d="M22.8408 71.5808L21.5808 79.8428H20.2128L19.2648 73.6088L18.3108 79.8428H16.9128L15.7488 71.5808H16.7928L17.6748 78.6968L18.6648 72.5408H19.9428L20.8848 78.6968L21.8748 71.5808H22.8408ZM26.5021 73.3928C27.0981 73.3928 27.5961 73.5288 27.9961 73.8008C28.4001 74.0688 28.7021 74.4488 28.9021 74.9408C29.1061 75.4328 29.2081 76.0128 29.2081 76.6808C29.2081 77.3248 29.1041 77.8948 28.8961 78.3908C28.6881 78.8868 28.3821 79.2768 27.9781 79.5608C27.5781 79.8408 27.0821 79.9808 26.4901 79.9808C25.8981 79.9808 25.4001 79.8448 24.9961 79.5728C24.5921 79.3008 24.2861 78.9188 24.0781 78.4268C23.8741 77.9308 23.7721 77.3528 23.7721 76.6928C23.7721 76.0408 23.8761 75.4668 24.0841 74.9708C24.2921 74.4748 24.5981 74.0888 25.0021 73.8128C25.4101 73.5328 25.9101 73.3928 26.5021 73.3928ZM26.5021 74.2148C25.9581 74.2148 25.5461 74.4168 25.2661 74.8208C24.9901 75.2208 24.8521 75.8448 24.8521 76.6928C24.8521 77.5248 24.9881 78.1428 25.2601 78.5468C25.5361 78.9508 25.9461 79.1528 26.4901 79.1528C27.0341 79.1528 27.4421 78.9508 27.7141 78.5468C27.9901 78.1428 28.1281 77.5208 28.1281 76.6808C28.1281 75.8408 27.9921 75.2208 27.7201 74.8208C27.4481 74.4168 27.0421 74.2148 26.5021 74.2148ZM31.3514 79.8428V79.0688H32.3354V74.2988H31.3514V73.5248H33.1034L33.2894 75.0188C33.5334 74.4988 33.8294 74.0968 34.1774 73.8128C34.5254 73.5288 34.9854 73.3868 35.5574 73.3868C35.7334 73.3868 35.8894 73.4008 36.0254 73.4288C36.1654 73.4528 36.3074 73.4848 36.4514 73.5248L36.1574 74.4248C36.0254 74.3888 35.9054 74.3628 35.7974 74.3468C35.6894 74.3268 35.5654 74.3168 35.4254 74.3168C34.9414 74.3168 34.5254 74.4888 34.1774 74.8328C33.8294 75.1768 33.5514 75.6968 33.3434 76.3928V79.0688H34.6274V79.8428H31.3514ZM35.4794 75.6608V74.2868L35.5814 73.5248H36.4514L36.3074 75.6608H35.4794ZM42.2668 70.8548L43.2748 70.9808V79.8428H42.3928L42.2968 79.0088C42.0608 79.3448 41.7888 79.5908 41.4808 79.7468C41.1768 79.9028 40.8508 79.9808 40.5028 79.9808C39.9548 79.9808 39.5028 79.8428 39.1468 79.5668C38.7908 79.2908 38.5268 78.9068 38.3548 78.4148C38.1828 77.9188 38.0968 77.3448 38.0968 76.6928C38.0968 76.0608 38.1948 75.4968 38.3908 75.0008C38.5868 74.5008 38.8688 74.1088 39.2368 73.8248C39.6088 73.5368 40.0548 73.3928 40.5748 73.3928C40.9388 73.3928 41.2588 73.4568 41.5348 73.5848C41.8108 73.7088 42.0548 73.8928 42.2668 74.1368V70.8548ZM40.8388 74.2028C40.3108 74.2028 39.9048 74.4088 39.6208 74.8208C39.3368 75.2328 39.1948 75.8568 39.1948 76.6928C39.1948 77.2368 39.2528 77.6928 39.3688 78.0608C39.4848 78.4288 39.6548 78.7048 39.8788 78.8888C40.1068 79.0728 40.3848 79.1648 40.7128 79.1648C41.0728 79.1648 41.3788 79.0628 41.6308 78.8588C41.8868 78.6548 42.0988 78.4248 42.2668 78.1688V75.0128C42.0948 74.7568 41.8868 74.5588 41.6428 74.4188C41.3988 74.2748 41.1308 74.2028 40.8388 74.2028ZM50.0441 74.1308C50.0441 73.7028 49.9601 73.3648 49.7921 73.1168C49.6241 72.8648 49.3941 72.6848 49.1021 72.5768C48.8101 72.4648 48.4761 72.4088 48.1001 72.4088H46.9061V75.9368H48.0581C48.4461 75.9368 48.7881 75.8848 49.0841 75.7808C49.3801 75.6728 49.6141 75.4888 49.7861 75.2288C49.9581 74.9648 50.0441 74.5988 50.0441 74.1308ZM51.1601 74.1188C51.1601 74.7628 51.0221 75.2788 50.7461 75.6668C50.4741 76.0548 50.0981 76.3368 49.6181 76.5128C49.1381 76.6888 48.5861 76.7768 47.9621 76.7768H46.9061V79.8428H45.8621V71.5808H47.9741C48.9581 71.5808 49.7341 71.7888 50.3021 72.2048C50.8741 72.6168 51.1601 73.2548 51.1601 74.1188ZM52.9374 79.8428V79.0688H53.9214V74.2988H52.9374V73.5248H54.6894L54.8754 75.0188C55.1194 74.4988 55.4154 74.0968 55.7634 73.8128C56.1114 73.5288 56.5714 73.3868 57.1434 73.3868C57.3194 73.3868 57.4754 73.4008 57.6114 73.4288C57.7514 73.4528 57.8934 73.4848 58.0374 73.5248L57.7434 74.4248C57.6114 74.3888 57.4914 74.3628 57.3834 74.3468C57.2754 74.3268 57.1514 74.3168 57.0114 74.3168C56.5274 74.3168 56.1114 74.4888 55.7634 74.8328C55.4154 75.1768 55.1374 75.6968 54.9294 76.3928V79.0688H56.2134V79.8428H52.9374ZM57.0654 75.6608V74.2868L57.1674 73.5248H58.0374L57.8934 75.6608H57.0654ZM60.8647 77.0408C60.8847 77.5288 60.9787 77.9288 61.1467 78.2408C61.3147 78.5488 61.5367 78.7768 61.8127 78.9248C62.0887 79.0688 62.3887 79.1408 62.7127 79.1408C63.0367 79.1408 63.3287 79.0928 63.5887 78.9968C63.8527 78.9008 64.1227 78.7588 64.3987 78.5708L64.8727 79.2368C64.5767 79.4688 64.2387 79.6508 63.8587 79.7828C63.4827 79.9148 63.0967 79.9808 62.7007 79.9808C62.0887 79.9808 61.5667 79.8428 61.1347 79.5668C60.7027 79.2908 60.3727 78.9068 60.1447 78.4148C59.9207 77.9188 59.8087 77.3448 59.8087 76.6928C59.8087 76.0528 59.9227 75.4848 60.1507 74.9888C60.3787 74.4928 60.6987 74.1028 61.1107 73.8188C61.5227 73.5348 62.0087 73.3928 62.5687 73.3928C63.1007 73.3928 63.5587 73.5188 63.9427 73.7708C64.3267 74.0188 64.6207 74.3748 64.8247 74.8388C65.0327 75.2988 65.1367 75.8488 65.1367 76.4888C65.1367 76.5968 65.1347 76.6988 65.1307 76.7948C65.1267 76.8868 65.1207 76.9688 65.1127 77.0408H60.8647ZM62.5807 74.2208C62.1127 74.2208 61.7207 74.3868 61.4047 74.7188C61.0927 75.0508 60.9147 75.5648 60.8707 76.2608H64.1647C64.1527 75.5848 64.0047 75.0768 63.7207 74.7368C63.4367 74.3928 63.0567 74.2208 62.5807 74.2208ZM69.416 79.1468C69.9 79.1468 70.282 79.0568 70.562 78.8768C70.846 78.6928 70.988 78.4488 70.988 78.1448C70.988 77.9528 70.952 77.7868 70.88 77.6468C70.812 77.5068 70.67 77.3808 70.454 77.2688C70.238 77.1568 69.906 77.0448 69.458 76.9328C69.022 76.8248 68.642 76.7008 68.318 76.5608C67.998 76.4168 67.748 76.2308 67.568 76.0028C67.392 75.7748 67.304 75.4788 67.304 75.1148C67.304 74.7588 67.404 74.4528 67.604 74.1968C67.808 73.9368 68.09 73.7388 68.45 73.6028C68.81 73.4628 69.228 73.3928 69.704 73.3928C70.212 73.3928 70.654 73.4608 71.03 73.5968C71.41 73.7288 71.732 73.8928 71.996 74.0888L71.552 74.7728C71.312 74.6088 71.048 74.4748 70.76 74.3708C70.472 74.2628 70.124 74.2088 69.716 74.2088C69.22 74.2088 68.868 74.2868 68.66 74.4428C68.452 74.5948 68.348 74.7928 68.348 75.0368C68.348 75.2208 68.398 75.3748 68.498 75.4988C68.602 75.6188 68.776 75.7288 69.02 75.8288C69.264 75.9248 69.6 76.0308 70.028 76.1468C70.44 76.2548 70.798 76.3848 71.102 76.5368C71.41 76.6888 71.65 76.8888 71.822 77.1368C71.994 77.3848 72.08 77.7048 72.08 78.0968C72.08 78.5448 71.952 78.9088 71.696 79.1888C71.44 79.4648 71.108 79.6668 70.7 79.7948C70.296 79.9188 69.868 79.9808 69.416 79.9808C68.844 79.9808 68.356 79.8988 67.952 79.7348C67.552 79.5668 67.216 79.3648 66.944 79.1288L67.52 78.4628C67.768 78.6668 68.052 78.8328 68.372 78.9608C68.696 79.0848 69.044 79.1468 69.416 79.1468ZM76.6113 79.1468C77.0953 79.1468 77.4773 79.0568 77.7573 78.8768C78.0413 78.6928 78.1833 78.4488 78.1833 78.1448C78.1833 77.9528 78.1473 77.7868 78.0753 77.6468C78.0073 77.5068 77.8653 77.3808 77.6493 77.2688C77.4333 77.1568 77.1013 77.0448 76.6533 76.9328C76.2173 76.8248 75.8373 76.7008 75.5133 76.5608C75.1933 76.4168 74.9433 76.2308 74.7633 76.0028C74.5873 75.7748 74.4993 75.4788 74.4993 75.1148C74.4993 74.7588 74.5993 74.4528 74.7993 74.1968C75.0033 73.9368 75.2853 73.7388 75.6453 73.6028C76.0053 73.4628 76.4233 73.3928 76.8993 73.3928C77.4073 73.3928 77.8493 73.4608 78.2253 73.5968C78.6053 73.7288 78.9273 73.8928 79.1913 74.0888L78.7473 74.7728C78.5073 74.6088 78.2433 74.4748 77.9553 74.3708C77.6673 74.2628 77.3193 74.2088 76.9113 74.2088C76.4153 74.2088 76.0633 74.2868 75.8553 74.4428C75.6473 74.5948 75.5433 74.7928 75.5433 75.0368C75.5433 75.2208 75.5933 75.3748 75.6933 75.4988C75.7973 75.6188 75.9713 75.7288 76.2153 75.8288C76.4593 75.9248 76.7953 76.0308 77.2233 76.1468C77.6353 76.2548 77.9933 76.3848 78.2973 76.5368C78.6053 76.6888 78.8453 76.8888 79.0173 77.1368C79.1893 77.3848 79.2753 77.7048 79.2753 78.0968C79.2753 78.5448 79.1473 78.9088 78.8913 79.1888C78.6353 79.4648 78.3033 79.6668 77.8953 79.7948C77.4913 79.9188 77.0633 79.9808 76.6113 79.9808C76.0393 79.9808 75.5513 79.8988 75.1473 79.7348C74.7473 79.5668 74.4113 79.3648 74.1393 79.1288L74.7153 78.4628C74.9633 78.6668 75.2473 78.8328 75.5673 78.9608C75.8913 79.0848 76.2393 79.1468 76.6113 79.1468Z" fill="#2C2C2C"/>
<defs>
<filter id="filter0_d_317_327" x="20.1387" y="7.18506" width="60.1146" height="60.1146" filterUnits="userSpaceOnUse" color-interpolation-filters="sRGB">
<feFlood flood-opacity="0" result="BackgroundImageFix"/>
<feColorMatrix in="SourceAlpha" type="matrix" values="0 0 0 0 0 0 0 0 0 0 0 0 0 0 0 0 0 0 127 0" result="hardAlpha"/>
<feOffset dx="1" dy="1"/>
<feComposite in2="hardAlpha" operator="out"/>
<feColorMatrix type="matrix" values="0 0 0 0 0.890196 0 0 0 0 0.85098 0 0 0 0 0.74902 0 0 0 1 0"/>
<feBlend mode="normal" in2="BackgroundImageFix" result="effect1_dropShadow_317_327"/>
<feBlend mode="normal" in="SourceGraphic" in2="effect1_dropShadow_317_327" result="shape"/>
</filter>
<clipPath id="clip0_317_327">
<rect width="62" height="61" fill="white" transform="translate(28.4828) rotate(15)"/>
</clipPath>
</defs>
</svg>
