<svg width="390" height="101" viewBox="0 0 390 101" fill="none" xmlns="http://www.w3.org/2000/svg">
<path d="M0 1H390V101H0V1Z" fill="#2C2C2C"/>
<path d="M30.5938 46.4062C26.5143 46.4062 23.569 45.3906 21.7578 43.3594C19.9635 41.3281 19.0664 38.0951 19.0664 33.6602V29.293H27.9023V34.8789C27.9023 35.9115 28.0547 36.724 28.3594 37.3164C28.681 37.8919 29.2311 38.1797 30.0098 38.1797C30.8223 38.1797 31.3809 37.9427 31.6855 37.4688C32.0072 36.9948 32.168 36.2161 32.168 35.1328C32.168 33.7617 32.0326 32.6191 31.7617 31.7051C31.4909 30.7741 31.0169 29.8939 30.3398 29.0645C29.6797 28.2181 28.7572 27.2363 27.5723 26.1191L23.5605 22.3105C20.5645 19.4837 19.0664 16.2507 19.0664 12.6113C19.0664 8.80273 19.9466 5.89974 21.707 3.90234C23.4844 1.90495 26.0488 0.90625 29.4004 0.90625C33.4967 0.90625 36.3997 1.99805 38.1094 4.18164C39.8359 6.36523 40.6992 9.68294 40.6992 14.1348H31.6094V11.0625C31.6094 10.4531 31.4316 9.97917 31.0762 9.64062C30.7376 9.30208 30.2721 9.13281 29.6797 9.13281C28.9688 9.13281 28.444 9.33594 28.1055 9.74219C27.7839 10.1315 27.623 10.6393 27.623 11.2656C27.623 11.8919 27.7923 12.569 28.1309 13.2969C28.4694 14.0247 29.138 14.8626 30.1367 15.8105L35.291 20.7617C36.3236 21.7435 37.2715 22.7845 38.1348 23.8848C38.998 24.9681 39.6921 26.2376 40.2168 27.6934C40.7415 29.1322 41.0039 30.8926 41.0039 32.9746C41.0039 37.1725 40.2253 40.4648 38.668 42.8516C37.1276 45.2214 34.4362 46.4062 30.5938 46.4062Z" fill="#FAF3E0"/>
<path d="M54.918 46.4062C47.3346 46.4062 43.543 42.4707 43.543 34.5996V19.3145C43.543 15.7259 44.5501 12.8652 46.5645 10.7324C48.5788 8.58268 51.3633 7.50781 54.918 7.50781C58.4896 7.50781 61.2826 8.58268 63.2969 10.7324C65.3112 12.8652 66.3184 15.7259 66.3184 19.3145V34.5996C66.3184 42.4707 62.5182 46.4062 54.918 46.4062ZM54.918 39.3984C55.6797 39.3984 56.2214 39.1276 56.543 38.5859C56.8815 38.0273 57.0508 37.3249 57.0508 36.4785V17.8672C57.0508 15.6497 56.3398 14.541 54.918 14.541C53.4961 14.541 52.7852 15.6497 52.7852 17.8672V36.4785C52.7852 37.3249 52.946 38.0273 53.2676 38.5859C53.6061 39.1276 54.1562 39.3984 54.918 39.3984Z" fill="#FAF3E0"/>
<path d="M84.9043 46.4062C83.4147 46.4062 82.2044 46.0423 81.2734 45.3145C80.3424 44.5697 79.5977 43.444 79.0391 41.9375V46H69.7969V1.3125H79.0391V11.9766C79.5977 10.5716 80.3678 9.47982 81.3496 8.70117C82.3483 7.9056 83.7702 7.50781 85.6152 7.50781C88.1035 7.50781 89.8555 8.41341 90.8711 10.2246C91.9036 12.0358 92.4199 14.4056 92.4199 17.334V36.0723C92.4199 38.0189 92.1491 39.7793 91.6074 41.3535C91.0827 42.9108 90.2617 44.1465 89.1445 45.0605C88.0443 45.9577 86.6309 46.4062 84.9043 46.4062ZM81.1465 39.3223C82.1113 39.3223 82.6953 38.8483 82.8984 37.9004C83.1016 36.9525 83.2031 35.7845 83.2031 34.3965V19.5176C83.2031 18.1126 83.1016 16.9447 82.8984 16.0137C82.6953 15.0658 82.1198 14.5918 81.1719 14.5918C80.1901 14.5918 79.5892 15.0742 79.3691 16.0391C79.1491 16.987 79.0391 18.1465 79.0391 19.5176V34.3965C79.0391 35.7676 79.1491 36.9355 79.3691 37.9004C79.5892 38.8483 80.1816 39.3223 81.1465 39.3223Z" fill="#FAF3E0"/>
<path d="M95.7969 46V7.91406H105.039V12.1543C105.479 10.6816 106.258 9.5306 107.375 8.70117C108.492 7.87174 109.897 7.45703 111.59 7.45703V15.0488C110.845 15.0488 109.956 15.1335 108.924 15.3027C107.891 15.4551 106.986 15.6751 106.207 15.9629C105.428 16.2337 105.039 16.5384 105.039 16.877V46H95.7969Z" fill="#FAF3E0"/>
<path d="M124.488 46.4062C121.78 46.4062 119.622 45.8984 118.014 44.8828C116.406 43.8672 115.255 42.403 114.561 40.4902C113.867 38.5775 113.52 36.2754 113.52 33.584V18.2734C113.52 14.7357 114.535 12.0612 116.566 10.25C118.598 8.42188 121.391 7.50781 124.945 7.50781C132.258 7.50781 135.914 11.0964 135.914 18.2734V21.041C135.914 24.3926 135.88 26.6439 135.812 27.7949H122.609V35.1582C122.609 35.8353 122.652 36.5039 122.736 37.1641C122.821 37.8073 123.007 38.3405 123.295 38.7637C123.6 39.1868 124.082 39.3984 124.742 39.3984C125.69 39.3984 126.283 38.9922 126.52 38.1797C126.757 37.3503 126.875 36.2754 126.875 34.9551V31.2988H135.914V33.457C135.914 36.3008 135.559 38.6875 134.848 40.6172C134.154 42.5299 132.969 43.9772 131.293 44.959C129.634 45.9238 127.366 46.4062 124.488 46.4062ZM122.559 23.2754H126.875V18.1465C126.875 16.7754 126.706 15.7936 126.367 15.2012C126.029 14.5918 125.521 14.2871 124.844 14.2871C124.116 14.2871 123.549 14.5749 123.143 15.1504C122.753 15.7259 122.559 16.7246 122.559 18.1465V23.2754Z" fill="#FAF3E0"/>
<path d="M69.3232 101V48.5781H85.2881L89.6963 80.5376L94.0747 48.5781H110.188V101H100.598V63.2324L94.5811 101H85.1689L78.7949 63.2324V101H69.3232Z" fill="#FAF3E0"/>
<path d="M114.597 53.582V44.7061H125.26V53.582H114.597ZM114.597 101V56.3223H125.26V101H114.597Z" fill="#FAF3E0"/>
<path d="M129.489 101V56.3223H139.914V61.5049C140.391 59.6781 141.205 58.2782 142.356 57.3052C143.508 56.3322 145.196 55.8457 147.42 55.8457C149.207 55.8457 150.726 56.2627 151.977 57.0967C153.248 57.9108 154.141 58.993 154.658 60.3433C155.472 58.8739 156.425 57.7619 157.517 57.0073C158.629 56.2329 160.208 55.8457 162.253 55.8457C164.735 55.8457 166.641 56.3818 167.972 57.4541C169.322 58.5065 170.255 59.9759 170.771 61.8623C171.308 63.7288 171.576 65.8932 171.576 68.3555V101H160.942V68.1768C160.942 65.2975 160.208 63.8579 158.738 63.8579C157.964 63.8579 157.368 64.126 156.951 64.6621C156.534 65.1784 156.246 65.8237 156.087 66.5981C155.929 67.3726 155.849 68.147 155.849 68.9214V101H145.216V68.1768C145.216 67.2435 145.097 66.3102 144.858 65.377C144.64 64.4437 144.064 63.9771 143.131 63.9771C142.337 63.9771 141.721 64.265 141.284 64.8408C140.847 65.4167 140.549 66.1315 140.391 66.9854C140.232 67.8193 140.152 68.6434 140.152 69.4575V101H129.489Z" fill="#FAF3E0"/>
</svg>
