<svg width="24" height="24" viewBox="0 0 24 24" fill="none" xmlns="http://www.w3.org/2000/svg">
<path d="M18.9419 5.25623C17.6473 4.66937 16.2629 4.24284 14.8157 4C14.638 4.31133 14.4304 4.73008 14.2872 5.0632C12.7487 4.83904 11.2245 4.83904 9.71427 5.0632C9.57118 4.73008 9.35873 4.31133 9.17946 4C7.73064 4.24284 6.34479 4.67092 5.05017 5.25934C2.43887 9.08247 1.73099 12.8107 2.08493 16.486C3.81687 17.7392 5.49534 18.5003 7.14546 18.9984C7.55291 18.4552 7.91627 17.8777 8.22937 17.269C7.63309 17.0495 7.06209 16.7787 6.52255 16.4642C6.66573 16.3615 6.80573 16.2541 6.941 16.1435C10.2319 17.6348 13.8074 17.6348 17.059 16.1435C17.1958 16.2541 17.3358 16.3615 17.4774 16.4642C16.9363 16.7802 16.3636 17.051 15.7675 17.2706C16.0805 17.8777 16.4423 18.4567 16.8513 19C18.503 18.5019 20.183 17.7407 21.915 16.486C22.3303 12.2254 21.2055 8.53141 18.9419 5.25623ZM8.67764 14.2258C7.68973 14.2258 6.87964 13.3322 6.87964 12.2441C6.87964 11.156 7.67246 10.2609 8.67764 10.2609C9.68282 10.2609 10.4929 11.1544 10.4756 12.2441C10.4773 13.3322 9.68282 14.2258 8.67764 14.2258ZM15.3223 14.2258C14.3344 14.2258 13.5243 13.3322 13.5243 12.2441C13.5243 11.156 14.3171 10.2609 15.3223 10.2609C16.3275 10.2609 17.1376 11.1544 17.1203 12.2441C17.1203 13.3322 16.3275 14.2258 15.3223 14.2258Z" fill="#5865F2"/>
</svg>
