<svg width="392" height="102" viewBox="0 0 392 102" fill="none" xmlns="http://www.w3.org/2000/svg">
<g clip-path="url(#clip0_241_820)" filter="url(#filter0_d_241_820)">
<rect x="1" width="390" height="100" fill="#008CBA"/>
<path d="M49 109.774V-9.77387H59.9561V32.6809H65.1524V-9.77387H76.1084V109.774H65.1524V58.1998H59.9561V109.774H49Z" fill="#FAF3E0"/>
<path d="M79.4892 109.774L84.8107 -9.77387H103.499L108.726 109.774H98.3023L97.5823 88.01H90.8209L90.1948 109.774H79.4892ZM93.7634 11.6834L91.7287 66.4761H96.5493L94.2642 11.6834H93.7634Z" fill="#FAF3E0"/>
<path d="M112.107 109.774V-9.77387H127.039C131.045 -9.77387 133.956 -7.3727 135.772 -2.57035C137.609 2.18091 138.527 10.0486 138.527 21.0327V23.6382C138.527 29.9732 138.057 35.1076 137.118 39.0415C136.2 42.9753 134.791 45.5553 132.892 46.7814C134.541 47.8032 135.814 49.7446 136.711 52.6055C137.629 55.4154 138.266 58.8639 138.621 62.951C138.975 67.0381 139.153 71.4828 139.153 76.2852C139.153 80.3212 138.965 84.3317 138.589 88.3166C138.235 92.2504 137.609 95.8522 136.711 99.1219C135.835 102.34 134.603 104.92 133.017 106.862C131.452 108.803 129.459 109.774 127.039 109.774H112.107ZM122.875 37.2023H125.129C126.152 37.2023 126.809 36.2316 127.101 34.2902C127.393 32.3488 127.539 30.0243 127.539 27.3166V19.1168C127.539 14.7743 126.757 12.603 125.192 12.603H122.875V37.2023ZM123.971 87.5503C126.83 87.5503 128.259 84.2295 128.259 77.5879V70.691C128.259 66.8593 128.019 63.8451 127.539 61.6482C127.08 59.4003 126.204 58.2764 124.91 58.2764H122.875V87.397C123.042 87.4481 123.22 87.4992 123.407 87.5503C123.616 87.5503 123.804 87.5503 123.971 87.5503Z" fill="#FAF3E0"/>
<path d="M142.283 109.774V-9.77387H152.926V109.774H142.283Z" fill="#FAF3E0"/>
<path d="M157.309 109.774V-9.77387H168.327V86.7839H179.659V109.774H157.309Z" fill="#FAF3E0"/>
<path d="M182.288 109.774V-9.77387H192.931V109.774H182.288Z" fill="#FAF3E0"/>
<path d="M197.314 109.774V-9.77387H212.496C216.461 -9.77387 219.435 -7.06616 221.417 -1.65075C223.421 3.71357 224.422 11.5812 224.422 21.9523V69.7714C224.422 82.5436 223.515 92.4037 221.699 99.3518C219.883 106.3 216.69 109.774 212.12 109.774H197.314ZM208.395 85.941H210.305C212.329 85.941 213.341 83.5398 213.341 78.7374V24.4812C213.341 19.9853 213.091 17.0988 212.59 15.8216C212.11 14.4933 211.119 13.8291 209.616 13.8291H208.395V85.941Z" fill="#FAF3E0"/>
<path d="M227.427 109.774L232.749 -9.77387H251.437L256.664 109.774H246.241L245.521 88.01H238.759L238.133 109.774H227.427ZM241.702 11.6834L239.667 66.4761H244.488L242.202 11.6834H241.702Z" fill="#FAF3E0"/>
<path d="M260.045 109.774V-9.77387H275.227C279.192 -9.77387 282.166 -7.06616 284.149 -1.65075C286.152 3.71357 287.154 11.5812 287.154 21.9523V69.7714C287.154 82.5436 286.246 92.4037 284.43 99.3518C282.615 106.3 279.422 109.774 274.852 109.774H260.045ZM271.126 85.941H273.036C275.06 85.941 276.072 83.5398 276.072 78.7374V24.4812C276.072 19.9853 275.822 17.0988 275.321 15.8216C274.841 14.4933 273.85 13.8291 272.347 13.8291H271.126V85.941Z" fill="#FAF3E0"/>
<path d="M291.661 109.774V-9.77387H313.699V16.2814H302.868V36.0528H313.26V61.4183H302.868V83.4887H314.419V109.774H291.661Z" fill="#FAF3E0"/>
<path d="M331.166 111C326.136 111 322.505 107.935 320.272 101.804C318.06 95.6734 316.954 85.9154 316.954 72.5302V68.1621H327.848V76.2085C327.848 79.325 328.035 81.7772 328.411 83.5653C328.808 85.3024 329.486 86.1709 330.446 86.1709C331.447 86.1709 332.136 85.5322 332.512 84.255C332.908 82.9267 333.107 81.0109 333.107 78.5075C333.107 75.1868 332.647 72.3769 331.729 70.0779C330.832 67.7789 329.34 64.6625 327.253 60.7286L322.495 51.6859C320.471 47.8543 319.041 43.6139 318.206 38.9648C317.372 34.3157 316.954 28.6704 316.954 22.0289C316.954 11.6579 318.039 3.5603 320.21 -2.26382C322.401 -8.08794 325.562 -11 329.694 -11C334.745 -11 338.324 -7.78141 340.431 -1.34422C342.56 5.09297 343.624 14.5444 343.624 27.0101H332.449V20.4196C332.449 16.026 331.614 13.8291 329.945 13.8291C329.11 13.8291 328.495 14.4422 328.098 15.6683C327.702 16.8434 327.503 18.376 327.503 20.2663C327.503 22.1566 327.681 23.9447 328.035 25.6307C328.411 27.2655 329.267 29.4112 330.602 32.0678L336.957 44.7123C339.273 49.3103 341.026 54.1382 342.216 59.196C343.405 64.2538 344 70.8187 344 78.8907C344 84.5105 343.583 89.7726 342.748 94.6771C341.934 99.5817 340.588 103.541 338.71 106.555C336.832 109.518 334.317 111 331.166 111Z" fill="#FAF3E0"/>
</g>
<defs>
<filter id="filter0_d_241_820" x="0" y="0" width="392" height="102" filterUnits="userSpaceOnUse" color-interpolation-filters="sRGB">
<feFlood flood-opacity="0" result="BackgroundImageFix"/>
<feColorMatrix in="SourceAlpha" type="matrix" values="0 0 0 0 0 0 0 0 0 0 0 0 0 0 0 0 0 0 127 0" result="hardAlpha"/>
<feOffset dy="1"/>
<feGaussianBlur stdDeviation="0.5"/>
<feComposite in2="hardAlpha" operator="out"/>
<feColorMatrix type="matrix" values="0 0 0 0 0.890196 0 0 0 0 0.85098 0 0 0 0 0.74902 0 0 0 1 0"/>
<feBlend mode="normal" in2="BackgroundImageFix" result="effect1_dropShadow_241_820"/>
<feBlend mode="normal" in="SourceGraphic" in2="effect1_dropShadow_241_820" result="shape"/>
</filter>
<clipPath id="clip0_241_820">
<rect width="390" height="100" fill="white" transform="translate(1)"/>
</clipPath>
</defs>
</svg>
