<svg width="295" height="100" viewBox="0 0 295 100" fill="none" xmlns="http://www.w3.org/2000/svg">
<path d="M0 103.915V-1.91457H10.9561V35.6683H16.1524V-1.91457H27.1084V103.915H16.1524V58.2588H10.9561V103.915H0Z" fill="#FAF3E0"/>
<path d="M30.4892 103.915L35.8107 -1.91457H54.4986L59.7262 103.915H49.3023L48.5823 84.6482H41.8209L41.1948 103.915H30.4892ZM44.7634 17.0804L42.7287 65.5854H47.5493L45.2642 17.0804H44.7634Z" fill="#FAF3E0"/>
<path d="M63.107 103.915V-1.91457H78.0385C82.0453 -1.91457 84.9565 0.211055 86.7721 4.46231C88.6085 8.66834 89.5267 15.6332 89.5267 25.3568V27.6633C89.5267 33.2714 89.0572 37.8166 88.1181 41.299C87.1999 44.7814 85.7912 47.0653 83.8922 48.1508C85.5408 49.0553 86.8138 50.7739 87.7112 53.3065C88.6294 55.794 89.2659 58.8467 89.6207 62.4648C89.9754 66.0829 90.1528 70.0176 90.1528 74.2688C90.1528 77.8417 89.965 81.392 89.5893 84.9196C89.2346 88.402 88.6085 91.5905 87.7112 94.4849C86.8347 97.3342 85.6034 99.6181 84.0174 101.337C82.4522 103.055 80.4593 103.915 78.0385 103.915H63.107ZM73.8752 39.6709H76.129C77.1516 39.6709 77.809 38.8116 78.1011 37.093C78.3933 35.3744 78.5394 33.3166 78.5394 30.9196V23.6608C78.5394 19.8166 77.7568 17.8945 76.1916 17.8945H73.8752V39.6709ZM74.9708 84.2412C77.8298 84.2412 79.2593 81.3015 79.2593 75.4221V69.3166C79.2593 65.9246 79.0193 63.2563 78.5394 61.3116C78.0803 59.3216 77.2038 58.3266 75.9099 58.3266H73.8752V84.1055C74.0422 84.1508 74.2195 84.196 74.4074 84.2412C74.6161 84.2412 74.8039 84.2412 74.9708 84.2412Z" fill="#FAF3E0"/>
<path d="M93.2831 103.915V-1.91457H103.926V103.915H93.2831Z" fill="#FAF3E0"/>
<path d="M108.309 103.915V-1.91457H119.327V83.5628H130.659V103.915H108.309Z" fill="#FAF3E0"/>
<path d="M133.288 103.915V-1.91457H143.931V103.915H133.288Z" fill="#FAF3E0"/>
<path d="M148.314 103.915V-1.91457H163.496C167.461 -1.91457 170.435 0.482412 172.417 5.27638C174.421 10.0251 175.422 16.99 175.422 26.1709V68.5025C175.422 79.809 174.515 88.5377 172.699 94.6884C170.883 100.839 167.69 103.915 163.12 103.915H148.314ZM159.395 82.8166H161.305C163.329 82.8166 164.341 80.6909 164.341 76.4397V28.4095C164.341 24.4296 164.091 21.8744 163.59 20.7437C163.11 19.5678 162.119 18.9799 160.616 18.9799H159.395V82.8166Z" fill="#FAF3E0"/>
<path d="M178.427 103.915L183.749 -1.91457H202.437L207.664 103.915H197.241L196.521 84.6482H189.759L189.133 103.915H178.427ZM192.702 17.0804L190.667 65.5854H195.488L193.202 17.0804H192.702Z" fill="#FAF3E0"/>
<path d="M211.045 103.915V-1.91457H226.227C230.192 -1.91457 233.166 0.482412 235.149 5.27638C237.152 10.0251 238.154 16.99 238.154 26.1709V68.5025C238.154 79.809 237.246 88.5377 235.43 94.6884C233.615 100.839 230.422 103.915 225.852 103.915H211.045ZM222.126 82.8166H224.036C226.06 82.8166 227.072 80.6909 227.072 76.4397V28.4095C227.072 24.4296 226.822 21.8744 226.321 20.7437C225.841 19.5678 224.85 18.9799 223.347 18.9799H222.126V82.8166Z" fill="#FAF3E0"/>
<path d="M242.661 103.915V-1.91457H264.699V21.1508H253.868V38.6533H264.26V61.108H253.868V80.6457H265.419V103.915H242.661Z" fill="#FAF3E0"/>
<path d="M282.166 105C277.136 105 273.505 102.286 271.272 96.8593C269.06 91.4322 267.954 82.794 267.954 70.9447V67.0779H278.848V74.201C278.848 76.9598 279.035 79.1307 279.411 80.7136C279.808 82.2513 280.486 83.0201 281.446 83.0201C282.447 83.0201 283.136 82.4548 283.512 81.3241C283.908 80.1482 284.107 78.4523 284.107 76.2362C284.107 73.2965 283.647 70.8091 282.729 68.7739C281.832 66.7387 280.34 63.9799 278.253 60.4975L273.495 52.4925C271.471 49.1005 270.041 45.3467 269.206 41.2312C268.372 37.1156 267.954 32.1181 267.954 26.2387C267.954 17.0578 269.039 9.88945 271.21 4.73367C273.401 -0.422111 276.562 -3 280.694 -3C285.745 -3 289.324 -0.150754 291.431 5.54774C293.56 11.2462 294.624 19.6131 294.624 30.6482H283.449V24.8141C283.449 20.9246 282.614 18.9799 280.945 18.9799C280.11 18.9799 279.495 19.5226 279.098 20.608C278.702 21.6482 278.503 23.005 278.503 24.6784C278.503 26.3518 278.681 27.9347 279.035 29.4271C279.411 30.8744 280.267 32.7739 281.602 35.1256L287.957 46.3191C290.273 50.3894 292.026 54.6633 293.216 59.1407C294.405 63.6181 295 69.4297 295 76.5754C295 81.5503 294.583 86.2085 293.748 90.5502C292.934 94.892 291.588 98.397 289.71 101.065C287.832 103.688 285.317 105 282.166 105Z" fill="#FAF3E0"/>
</svg>
