<svg width="502" height="102" viewBox="0 0 502 102" fill="none" xmlns="http://www.w3.org/2000/svg">
<g clip-path="url(#clip0_363_220)" filter="url(#filter0_d_363_220)">
<rect x="1" width="500" height="100" fill="#008CBA"/>
<path d="M104 109.774V-9.77387H114.956V32.6809H120.152V-9.77387H131.108V109.774H120.152V58.1998H114.956V109.774H104Z" fill="#FAF3E0"/>
<path d="M134.489 109.774L139.811 -9.77387H158.499L163.726 109.774H153.302L152.582 88.0101H145.821L145.195 109.774H134.489ZM148.763 11.6834L146.729 66.4761H151.549L149.264 11.6834H148.763Z" fill="#FAF3E0"/>
<path d="M167.107 109.774V-9.77387H182.039C186.045 -9.77387 188.956 -7.3727 190.772 -2.57035C192.609 2.1809 193.527 10.0486 193.527 21.0327V23.6382C193.527 29.9732 193.057 35.1076 192.118 39.0415C191.2 42.9753 189.791 45.5553 187.892 46.7814C189.541 47.8032 190.814 49.7446 191.711 52.6055C192.629 55.4154 193.266 58.8639 193.621 62.951C193.975 67.0381 194.153 71.4828 194.153 76.2852C194.153 80.3212 193.965 84.3317 193.589 88.3166C193.235 92.2504 192.609 95.8522 191.711 99.1219C190.835 102.34 189.603 104.92 188.017 106.862C186.452 108.803 184.459 109.774 182.039 109.774H167.107ZM177.875 37.2023H180.129C181.152 37.2023 181.809 36.2316 182.101 34.2902C182.393 32.3488 182.539 30.0243 182.539 27.3166V19.1168C182.539 14.7743 181.757 12.603 180.192 12.603H177.875V37.2023ZM178.971 87.5503C181.83 87.5503 183.259 84.2295 183.259 77.5879V70.691C183.259 66.8593 183.019 63.8451 182.539 61.6482C182.08 59.4003 181.204 58.2764 179.91 58.2764H177.875V87.397C178.042 87.4481 178.22 87.4992 178.407 87.5503C178.616 87.5503 178.804 87.5503 178.971 87.5503Z" fill="#FAF3E0"/>
<path d="M197.283 109.774V-9.77387H207.926V109.774H197.283Z" fill="#FAF3E0"/>
<path d="M212.309 109.774V-9.77387H223.327V86.7839H234.659V109.774H212.309Z" fill="#FAF3E0"/>
<path d="M237.288 109.774V-9.77387H247.931V109.774H237.288Z" fill="#FAF3E0"/>
<path d="M252.314 109.774V-9.77387H267.496C271.461 -9.77387 274.435 -7.06616 276.417 -1.65075C278.421 3.71357 279.422 11.5812 279.422 21.9523V69.7714C279.422 82.5436 278.515 92.4037 276.699 99.3518C274.883 106.3 271.69 109.774 267.12 109.774H252.314ZM263.395 85.941H265.305C267.329 85.941 268.341 83.5398 268.341 78.7374V24.4812C268.341 19.9853 268.091 17.0988 267.59 15.8216C267.11 14.4933 266.119 13.8291 264.616 13.8291H263.395V85.941Z" fill="#FAF3E0"/>
<path d="M282.427 109.774L287.749 -9.77387H306.437L311.664 109.774H301.241L300.521 88.0101H293.759L293.133 109.774H282.427ZM296.702 11.6834L294.667 66.4761H299.488L297.202 11.6834H296.702Z" fill="#FAF3E0"/>
<path d="M315.045 109.774V-9.77387H330.227C334.192 -9.77387 337.166 -7.06616 339.149 -1.65075C341.152 3.71357 342.154 11.5812 342.154 21.9523V69.7714C342.154 82.5436 341.246 92.4037 339.43 99.3518C337.615 106.3 334.422 109.774 329.852 109.774H315.045ZM326.126 85.941H328.036C330.06 85.941 331.072 83.5398 331.072 78.7374V24.4812C331.072 19.9853 330.822 17.0988 330.321 15.8216C329.841 14.4933 328.85 13.8291 327.347 13.8291H326.126V85.941Z" fill="#FAF3E0"/>
<path d="M346.661 109.774V-9.77387H368.699V16.2814H357.868V36.0528H368.26V61.4183H357.868V83.4887H369.419V109.774H346.661Z" fill="#FAF3E0"/>
<path d="M386.166 111C381.136 111 377.505 107.935 375.272 101.804C373.06 95.6734 371.954 85.9154 371.954 72.5302V68.1621H382.848V76.2085C382.848 79.325 383.035 81.7772 383.411 83.5653C383.808 85.3024 384.486 86.1709 385.446 86.1709C386.447 86.1709 387.136 85.5322 387.512 84.255C387.908 82.9267 388.107 81.0109 388.107 78.5075C388.107 75.1868 387.647 72.3769 386.729 70.0779C385.832 67.7789 384.34 64.6625 382.253 60.7286L377.495 51.6859C375.471 47.8543 374.041 43.6139 373.206 38.9648C372.372 34.3157 371.954 28.6704 371.954 22.0289C371.954 11.6579 373.039 3.5603 375.21 -2.26382C377.401 -8.08794 380.562 -11 384.694 -11C389.745 -11 393.324 -7.78141 395.431 -1.34422C397.56 5.09297 398.624 14.5444 398.624 27.0101H387.449V20.4196C387.449 16.026 386.614 13.8291 384.945 13.8291C384.11 13.8291 383.495 14.4422 383.098 15.6683C382.702 16.8434 382.503 18.376 382.503 20.2663C382.503 22.1566 382.681 23.9447 383.035 25.6307C383.411 27.2655 384.267 29.4112 385.602 32.0678L391.957 44.7123C394.273 49.3103 396.026 54.1382 397.216 59.196C398.405 64.2538 399 70.8187 399 78.8907C399 84.5105 398.583 89.7726 397.748 94.6771C396.934 99.5817 395.588 103.541 393.71 106.555C391.832 109.518 389.317 111 386.166 111Z" fill="#FAF3E0"/>
</g>
<defs>
<filter id="filter0_d_363_220" x="0" y="0" width="502" height="102" filterUnits="userSpaceOnUse" color-interpolation-filters="sRGB">
<feFlood flood-opacity="0" result="BackgroundImageFix"/>
<feColorMatrix in="SourceAlpha" type="matrix" values="0 0 0 0 0 0 0 0 0 0 0 0 0 0 0 0 0 0 127 0" result="hardAlpha"/>
<feOffset dy="1"/>
<feGaussianBlur stdDeviation="0.5"/>
<feComposite in2="hardAlpha" operator="out"/>
<feColorMatrix type="matrix" values="0 0 0 0 0.890196 0 0 0 0 0.85098 0 0 0 0 0.74902 0 0 0 1 0"/>
<feBlend mode="normal" in2="BackgroundImageFix" result="effect1_dropShadow_363_220"/>
<feBlend mode="normal" in="SourceGraphic" in2="effect1_dropShadow_363_220" result="shape"/>
</filter>
<clipPath id="clip0_363_220">
<rect width="500" height="100" fill="white" transform="translate(1)"/>
</clipPath>
</defs>
</svg>
