<svg width="24" height="24" viewBox="0 0 24 24" fill="none" xmlns="http://www.w3.org/2000/svg">
<path d="M22.5 12C22.5 6.20101 17.799 1.5 12 1.5C6.20101 1.5 1.5 6.20101 1.5 12C1.5 17.799 6.20101 22.5 12 22.5C17.799 22.5 22.5 17.799 22.5 12Z" fill="#008CBA"/>
<path d="M9.46395 7.26911C9.46395 7.97003 8.85638 8.53823 8.10698 8.53823C7.35753 8.53823 6.75 7.97003 6.75 7.26911C6.75 6.5682 7.35753 6 8.10698 6C8.85638 6 9.46395 6.5682 9.46395 7.26911Z" fill="white"/>
<path d="M6.93555 9.47108H9.25513V16.5H6.93555V9.47108Z" fill="white"/>
<path d="M12.9896 9.47107H10.67V16.5H12.9896C12.9896 16.5 12.9896 14.2872 12.9896 12.9037C12.9896 12.0732 13.2732 11.2391 14.4046 11.2391C15.6832 11.2391 15.6755 12.3259 15.6695 13.1678C15.6617 14.2683 15.6803 15.3914 15.6803 16.5H17.9999V12.7903C17.9803 10.4215 17.363 9.33007 15.3324 9.33007C14.1265 9.33007 13.379 9.87757 12.9896 10.3729V9.47107Z" fill="white"/>
</svg>
