<svg width="43" height="573" viewBox="0 0 43 573" fill="none" xmlns="http://www.w3.org/2000/svg">
<g filter="url(#filter0_d_191_172)">
<path d="M3.04688 72V3.25H21.2109C25.013 3.25 28.0208 4.09635 30.2344 5.78906C32.474 7.48177 34.0755 9.89062 35.0391 13.0156C36.0026 16.1406 36.4844 19.8646 36.4844 24.1875C36.4844 28.3542 36.0807 31.987 35.2734 35.0859C34.4661 38.1589 33.0208 40.5417 30.9375 42.2344C28.8802 43.9271 25.9505 44.7734 22.1484 44.7734H16.5625V72H3.04688ZM16.5625 32.4297H17.3438C19.8958 32.4297 21.4583 31.7135 22.0312 30.2812C22.6042 28.849 22.8906 26.7396 22.8906 23.9531C22.8906 21.349 22.6042 19.3438 22.0312 17.9375C21.4844 16.5052 20.1693 15.7891 18.0859 15.7891H16.5625V32.4297ZM3.04688 143V74.25H24.1406C27.6562 74.25 30.3125 75.0573 32.1094 76.6719C33.9062 78.2604 35.1042 80.5 35.7031 83.3906C36.3281 86.2552 36.6406 89.6276 36.6406 93.5078C36.6406 97.2578 36.1589 100.253 35.1953 102.492C34.2578 104.732 32.474 106.281 29.8438 107.141C32.0052 107.583 33.5156 108.664 34.375 110.383C35.2604 112.076 35.7031 114.276 35.7031 116.984V143H22.1484V116.086C22.1484 114.081 21.7318 112.844 20.8984 112.375C20.0911 111.88 18.776 111.633 16.9531 111.633V143H3.04688ZM17.0312 99.7188H20.3516C22.2526 99.7188 23.2031 97.6484 23.2031 93.5078C23.2031 90.8255 22.9948 89.0677 22.5781 88.2344C22.1615 87.401 21.3802 86.9844 20.2344 86.9844H17.0312V99.7188ZM19.4531 214.625C13.9583 214.625 9.7526 212.971 6.83594 209.664C3.94531 206.331 2.5 201.526 2.5 195.25V162.594C2.5 156.708 3.93229 152.242 6.79688 149.195C9.6875 146.148 13.9062 144.625 19.4531 144.625C25 144.625 29.2057 146.148 32.0703 149.195C34.9609 152.242 36.4062 156.708 36.4062 162.594V195.25C36.4062 201.526 34.9479 206.331 32.0312 209.664C29.1406 212.971 24.9479 214.625 19.4531 214.625ZM19.5703 201.969C21.6536 201.969 22.6953 199.951 22.6953 195.914V162.359C22.6953 158.974 21.6797 157.281 19.6484 157.281C17.3568 157.281 16.2109 159.013 16.2109 162.477V195.992C16.2109 198.128 16.4714 199.664 16.9922 200.602C17.513 201.513 18.3724 201.969 19.5703 201.969ZM18.2812 285.625C15.1823 285.625 12.3568 285.026 9.80469 283.828C7.2526 282.63 5.22135 280.859 3.71094 278.516C2.22656 276.146 1.48438 273.242 1.48438 269.805V252.578H15.0781V268.984C15.0781 270.182 15.3125 271.146 15.7812 271.875C16.276 272.604 17.0573 272.969 18.125 272.969C20.1823 272.969 21.2109 271.706 21.2109 269.18V216.25H35.0781V267.812C35.0781 271.458 34.362 274.622 32.9297 277.305C31.4974 279.961 29.5182 282.018 26.9922 283.477C24.4661 284.909 21.5625 285.625 18.2812 285.625ZM3.04688 356V287.25H30.5469V300.531H17.0312V313.93H30V326.859H17.0312V342.602H31.4453V356H3.04688ZM8.94531 427V371.453H0.78125V358.25H30.8594V371.453H22.6953V427H8.94531ZM19.4531 498.625C13.9583 498.625 9.7526 496.971 6.83594 493.664C3.94531 490.331 2.5 485.526 2.5 479.25V446.594C2.5 440.708 3.93229 436.242 6.79688 433.195C9.6875 430.148 13.9062 428.625 19.4531 428.625C25 428.625 29.2057 430.148 32.0703 433.195C34.9609 436.242 36.4062 440.708 36.4062 446.594V479.25C36.4062 485.526 34.9479 490.331 32.0312 493.664C29.1406 496.971 24.9479 498.625 19.4531 498.625ZM19.5703 485.969C21.6536 485.969 22.6953 483.951 22.6953 479.914V446.359C22.6953 442.974 21.6797 441.281 19.6484 441.281C17.3568 441.281 16.2109 443.013 16.2109 446.477V479.992C16.2109 482.128 16.4714 483.664 16.9922 484.602C17.513 485.513 18.3724 485.969 19.5703 485.969ZM19.375 569.625C13.099 569.625 8.56771 568.062 5.78125 564.938C3.02083 561.812 1.64062 556.839 1.64062 550.016V543.297H15.2344V551.891C15.2344 553.479 15.4688 554.729 15.9375 555.641C16.4323 556.526 17.2786 556.969 18.4766 556.969C19.7266 556.969 20.5859 556.604 21.0547 555.875C21.5495 555.146 21.7969 553.948 21.7969 552.281C21.7969 550.172 21.5885 548.414 21.1719 547.008C20.7552 545.576 20.026 544.221 18.9844 542.945C17.9688 541.643 16.5495 540.133 14.7266 538.414L8.55469 532.555C3.94531 528.206 1.64062 523.232 1.64062 517.633C1.64062 511.773 2.99479 507.307 5.70312 504.234C8.4375 501.161 12.3828 499.625 17.5391 499.625C23.8411 499.625 28.3073 501.305 30.9375 504.664C33.5938 508.023 34.9219 513.128 34.9219 519.977H20.9375V515.25C20.9375 514.312 20.6641 513.583 20.1172 513.062C19.5964 512.542 18.8802 512.281 17.9688 512.281C16.875 512.281 16.0677 512.594 15.5469 513.219C15.0521 513.818 14.8047 514.599 14.8047 515.562C14.8047 516.526 15.0651 517.568 15.5859 518.688C16.1068 519.807 17.1354 521.096 18.6719 522.555L26.6016 530.172C28.1901 531.682 29.6484 533.284 30.9766 534.977C32.3047 536.643 33.3724 538.596 34.1797 540.836C34.987 543.049 35.3906 545.758 35.3906 548.961C35.3906 555.419 34.1927 560.484 31.7969 564.156C29.4271 567.802 25.2865 569.625 19.375 569.625Z" fill="#FAF3E0"/>
</g>
<defs>
<filter id="filter0_d_191_172" x="0.78125" y="0.25" width="41.8594" height="572.375" filterUnits="userSpaceOnUse" color-interpolation-filters="sRGB">
<feFlood flood-opacity="0" result="BackgroundImageFix"/>
<feColorMatrix in="SourceAlpha" type="matrix" values="0 0 0 0 0 0 0 0 0 0 0 0 0 0 0 0 0 0 127 0" result="hardAlpha"/>
<feOffset dx="3"/>
<feGaussianBlur stdDeviation="1.5"/>
<feComposite in2="hardAlpha" operator="out"/>
<feColorMatrix type="matrix" values="0 0 0 0 0 0 0 0 0 0 0 0 0 0 0 0 0 0 0.25 0"/>
<feBlend mode="normal" in2="BackgroundImageFix" result="effect1_dropShadow_191_172"/>
<feBlend mode="normal" in="SourceGraphic" in2="effect1_dropShadow_191_172" result="shape"/>
</filter>
</defs>
</svg>
