<svg width="24" height="24" viewBox="0 0 24 24" fill="none" xmlns="http://www.w3.org/2000/svg">
<path d="M22.5 1.5H1.5V22.5H22.5V1.5Z" fill="#FFCA28"/>
<path d="M14.25 18.9659L15.7961 17.9428C15.9173 18.3235 16.6846 19.2276 17.6539 19.2276C18.6231 19.2276 19.0731 18.6982 19.0731 18.3472C19.0731 17.3908 18.0834 17.0537 17.608 16.8917C17.5305 16.8653 17.4668 16.8436 17.4231 16.8246C17.4007 16.8149 17.3669 16.8019 17.3234 16.7853C16.7948 16.5833 14.8442 15.8381 14.8442 13.678C14.8442 11.2988 17.1403 11.0252 17.6596 11.0252C17.9993 11.0252 19.6327 11.0668 20.4461 12.5954L18.9461 13.6424C18.6173 12.9761 18.071 12.7561 17.7347 12.7561C16.9039 12.7561 16.7308 13.3651 16.7308 13.6424C16.7308 14.4203 17.6334 14.7689 18.3955 15.0633C18.5949 15.1403 18.7846 15.2136 18.9461 15.29C19.7769 15.6825 21 16.3249 21 18.3472C21 19.3602 20.1504 21.0002 18.0115 21.0002C15.1384 21.0002 14.3769 19.2752 14.25 18.9659Z" fill="#3E3E3E"/>
<path d="M6.75 19.169L8.36152 18.1465C8.48775 18.5269 8.97847 19.2285 9.69037 19.2285C10.4023 19.2285 10.7668 18.4972 10.7668 18.1465V11.2501H12.7486V18.1465C12.7807 19.0977 12.2532 21.0001 9.9249 21.0001C7.78425 21.0001 6.89432 19.7279 6.75 19.169Z" fill="#3E3E3E"/>
</svg>
