<svg width="24" height="24" viewBox="0 0 24 24" fill="none" xmlns="http://www.w3.org/2000/svg">
<path fill-rule="evenodd" clip-rule="evenodd" d="M6.58875 5.14875C6.39008 5.14812 6.19217 5.17333 6 5.22375V5.25H6.0285C6.16613 5.45776 6.31959 5.6546 6.4875 5.83875C6.603 6.06825 6.7035 6.297 6.81825 6.5265C6.8325 6.51225 6.84675 6.49725 6.84675 6.49725C6.95329 6.41268 7.03668 6.3025 7.08914 6.17699C7.1416 6.05148 7.16142 5.91474 7.14675 5.7795C7.08394 5.68265 7.02636 5.58251 6.97425 5.4795C6.888 5.33625 6.70125 5.26425 6.5865 5.1495" fill="#5D87A1"/>
<path fill-rule="evenodd" clip-rule="evenodd" d="M20.835 17.6647C19.889 17.5983 18.9396 17.7354 18.051 18.0667C17.8358 18.153 17.4923 18.153 17.4623 18.4252C17.5778 18.54 17.5913 18.7252 17.6925 18.885C17.889 19.2176 18.1414 19.5137 18.4388 19.7602C18.7388 19.9897 19.0388 20.2185 19.3575 20.4195C19.9163 20.7652 20.5485 20.9655 21.093 21.3097C21.4095 21.5107 21.7245 21.7687 22.041 21.9847C22.1985 22.0995 22.2983 22.2847 22.4993 22.3597V22.3162C22.4402 22.1569 22.3672 22.003 22.281 21.8565C22.1378 21.714 21.9938 21.5842 21.8498 21.441C21.4291 20.8847 20.9257 20.3961 20.3573 19.992C19.8975 19.6755 18.8925 19.242 18.7073 18.717L18.678 18.6877C19.0144 18.6401 19.346 18.5628 19.6688 18.4567C20.1563 18.3277 20.601 18.357 21.1028 18.2317C21.333 18.174 21.7493 18.0307 21.7493 18.0307V17.8057C21.4928 17.5507 21.309 17.2095 21.039 16.9687C20.3045 16.3275 19.5217 15.7438 18.6975 15.2227C18.2573 14.9385 17.6895 14.7555 17.2208 14.5132C17.0513 14.4277 16.7708 14.3857 16.668 14.2432C16.4349 13.9012 16.2397 13.5348 16.086 13.1505C15.675 12.3705 15.2768 11.5057 14.9228 10.6807C14.7132 10.1279 14.4716 9.58769 14.199 9.063C12.8838 6.82685 10.9853 4.99035 8.70677 3.75C8.13184 3.47172 7.52059 3.27579 6.89102 3.168C6.53552 3.153 6.18152 3.12525 5.82677 3.11175C5.59777 2.96172 5.37994 2.79529 5.17502 2.61375C4.36352 2.1 2.27852 0.996 1.68152 2.45775C1.29902 3.381 2.25002 4.2885 2.57627 4.75725C2.85136 5.08776 3.09375 5.44418 3.30002 5.8215C3.39977 6.063 3.42827 6.31875 3.52502 6.5715C3.73321 7.22033 3.98041 7.85599 4.26527 8.475C4.41763 8.78094 4.59314 9.0748 4.79027 9.354C4.90502 9.51075 5.10302 9.579 5.14577 9.83775C4.98848 10.1758 4.87845 10.5339 4.81877 10.902C4.57085 11.6849 4.47961 12.509 4.55026 13.3272C4.62091 14.1454 4.85206 14.9417 5.23052 15.6705C5.45552 16.0252 5.99702 16.806 6.72077 16.5075C7.35902 16.2525 7.21727 15.4432 7.40177 14.7345C7.44377 14.5627 7.41602 14.4502 7.50077 14.337V14.475C7.50077 14.475 7.86302 15.2707 8.04302 15.675C8.53253 16.4168 9.14064 17.073 9.84302 17.6175C10.1208 17.8601 10.3447 18.1582 10.5 18.4927V18.75H10.8203C10.8136 18.634 10.7814 18.5209 10.7261 18.4188C10.6707 18.3166 10.5936 18.2279 10.5 18.159C10.2374 17.8887 9.99688 17.5978 9.78077 17.289C9.19371 16.4529 8.67598 15.5702 8.23277 14.6497C8.00777 14.1997 7.81802 13.7062 7.63802 13.257C7.55552 13.0837 7.55552 12.822 7.41677 12.732C7.16057 13.0351 6.93825 13.3653 6.75377 13.7167C6.52981 14.427 6.39946 15.1635 6.36602 15.9075C6.31127 15.9225 6.33827 15.9075 6.31127 15.936C5.86952 15.8197 5.71727 15.342 5.55077 14.937C5.12065 13.6879 5.07726 12.3381 5.42627 11.064C5.52227 10.7602 5.93852 9.80325 5.77202 9.513C5.68877 9.23625 5.41202 9.078 5.26052 8.85975C5.06711 8.56614 4.90068 8.25562 4.76327 7.932C4.43402 7.125 4.26752 6.225 3.90902 5.412C3.71057 5.021 3.4795 4.64742 3.21827 4.29525C2.92931 3.94345 2.67441 3.565 2.45702 3.165C2.38802 3.00525 2.29127 2.74425 2.40152 2.57025C2.40896 2.52192 2.43194 2.47732 2.46699 2.44322C2.50204 2.40912 2.54725 2.38736 2.59577 2.38125C2.77427 2.22225 3.28652 2.42475 3.46577 2.51175C3.94753 2.70141 4.40642 2.94469 4.83377 3.237C5.02727 3.3825 5.48327 3.75075 5.48327 3.75075H5.61827C6.07727 3.8505 6.59327 3.7785 7.02527 3.90825C7.75264 4.15072 8.44679 4.48331 9.09152 4.89825C10.9918 6.10961 12.5366 7.8035 13.5683 9.807C13.7408 10.1362 13.8135 10.4385 13.971 10.782C14.271 11.487 14.646 12.207 14.946 12.8925C15.2107 13.5707 15.553 14.216 15.966 14.8155C16.1805 15.1155 17.0423 15.2745 17.43 15.432C17.7668 15.5485 18.0972 15.6824 18.42 15.8332C18.9083 16.1332 19.395 16.479 19.8548 16.8082C20.0835 16.9807 20.8013 17.3392 20.8448 17.6265" fill="#00758F"/>
</svg>
