<svg width="101" height="101" viewBox="0 0 101 101" fill="none" xmlns="http://www.w3.org/2000/svg">
<g clip-path="url(#clip0_443_576)">
<mask id="mask0_443_576" style="mask-type:luminance" maskUnits="userSpaceOnUse" x="0" y="0" width="101" height="101">
<path d="M100.652 0.65155L0.651611 0.65155L0.651611 100.652H100.652V0.65155Z" fill="white"/>
</mask>
<g mask="url(#mask0_443_576)">
<path d="M47.377 0.678465C47.162 0.698015 46.4774 0.766441 45.8616 0.815317C31.6584 2.09586 18.3544 9.75959 9.92824 21.5387C5.23615 28.088 2.23519 35.5172 1.10127 43.3861C0.700487 46.1332 0.651611 46.9445 0.651611 50.6686C0.651611 54.3932 0.700487 55.2045 1.10127 57.9511C3.81877 76.7295 17.1814 92.5065 35.3046 98.352C38.5499 99.3978 41.9713 100.112 45.8616 100.542C47.377 100.708 53.9262 100.708 55.4416 100.542C62.157 99.7986 67.8462 98.137 73.457 95.2728C74.3174 94.8328 74.4833 94.7157 74.3662 94.6178C74.2879 94.5591 70.6224 89.6424 66.2233 83.699L58.2274 72.8974L48.2079 58.0686C42.6945 49.9161 38.1589 43.2495 38.1199 43.2495C38.0807 43.2395 38.0417 49.8282 38.0221 57.8728C37.9928 71.959 37.983 72.5261 37.807 72.8582C37.5529 73.3374 37.3574 73.5328 36.9468 73.7478C36.634 73.9045 36.3603 73.9336 34.8843 73.9336H33.1932L32.7435 73.6503C32.4502 73.4645 32.2352 73.2199 32.0886 72.9365L31.8833 72.4965L31.9028 52.8974L31.9322 33.2884L32.2352 32.9072C32.3916 32.7019 32.7239 32.438 32.9586 32.3109C33.3593 32.1154 33.5157 32.0959 35.2068 32.0959C37.201 32.0959 37.5333 32.174 38.0514 32.741C38.198 32.8974 43.6233 41.0695 50.1141 50.9132C56.6045 60.7565 65.4804 74.1974 69.8404 80.7957L77.7583 92.7899L78.1591 92.5261C81.7074 90.219 85.4612 86.9345 88.4324 83.5132C94.757 76.2503 98.8333 67.394 100.202 57.9511C100.603 55.2045 100.652 54.3932 100.652 50.6686C100.652 46.9445 100.603 46.1332 100.202 43.3861C97.4845 24.6081 84.1216 8.83097 65.9987 2.9854C62.802 1.94924 59.4004 1.23565 55.5883 0.805542C54.6495 0.70779 48.1883 0.600263 47.377 0.678465ZM67.8462 30.9228C68.3154 31.1575 68.6966 31.6071 68.8333 32.0763C68.9116 32.3305 68.9312 37.7655 68.9116 50.0136L68.8824 67.5895L65.7837 62.8386L62.6749 58.0882V45.312C62.6749 37.0519 62.7141 32.4087 62.7729 32.1838C62.9291 31.6364 63.2712 31.2063 63.7404 30.9522C64.1412 30.7469 64.2879 30.7273 65.8229 30.7273C67.2695 30.7273 67.5237 30.7469 67.8462 30.9228Z" fill="black"/>
</g>
</g>
<defs>
<clipPath id="clip0_443_576">
<rect width="100" height="100" fill="white" transform="translate(0.651611 0.65155)"/>
</clipPath>
</defs>
</svg>
