<svg width="24" height="24" viewBox="0 0 24 24" fill="none" xmlns="http://www.w3.org/2000/svg">
<path d="M12.8794 1.72404C12.347 1.42465 11.653 1.42599 11.1202 1.72404C8.45167 3.1967 5.78311 4.66981 3.11412 6.1418C2.59477 6.41501 2.24448 6.97274 2.25007 7.5516V16.4496C2.24632 17.0398 2.61466 17.6029 3.14741 17.8724C3.91403 18.2802 4.65885 18.7295 5.43933 19.1102C6.34088 19.5532 7.46882 19.6511 8.3814 19.1891C9.12217 18.8063 9.4512 17.9546 9.45022 17.172C9.45622 14.2355 9.4512 11.2988 9.45255 8.3622C9.47017 8.2317 9.37215 8.0922 9.2298 8.09535C8.88877 8.08995 8.5473 8.0922 8.20627 8.09445C8.07742 8.0823 7.95165 8.18933 7.9614 8.31885C7.95682 11.2365 7.9623 14.1551 7.95862 17.0732C7.96605 17.4768 7.69335 17.8647 7.30435 18.0011C6.4059 18.316 3.84148 16.6509 3.84148 16.6509C3.74737 16.6073 3.68761 16.5053 3.69684 16.4039C3.69684 13.4682 3.6973 10.5325 3.69684 7.59728C3.6839 7.47893 3.75684 7.37235 3.86551 7.32404C6.52525 5.86005 9.1836 4.39241 11.8433 2.92752C11.9357 2.86586 12.0645 2.86605 12.1567 2.92797C14.8164 4.39241 17.4752 5.85871 20.1354 7.32276C20.2444 7.371 20.3143 7.47938 20.3032 7.59728C20.3027 10.5325 20.3041 13.4682 20.3023 16.4035C20.3102 16.5074 20.2564 16.608 20.1595 16.6536C17.5246 18.1097 14.8597 19.5188 12.2486 21.0171C12.1347 21.0824 12.0056 21.1565 11.878 21.0845C11.1913 20.7047 10.513 20.3101 9.82867 19.9266C9.75427 19.8802 9.65955 19.8602 9.58192 19.9122C9.2751 20.0739 8.9865 20.2049 8.63415 20.3444C8.1393 20.5403 8.21835 20.6204 8.66467 20.8804C9.465 21.3333 10.2667 21.7844 11.067 22.2378C11.5939 22.5666 12.3018 22.59 12.8456 22.2862C15.5146 20.8154 18.1827 19.3428 20.8522 17.872C21.3835 17.601 21.7537 17.0402 21.7499 16.4495V7.5516C21.7551 6.98448 21.4182 6.4367 20.9145 6.15944C18.2367 4.6796 15.5576 3.20298 12.8794 1.72404Z" fill="#8CC84B"/>
<path d="M16.9064 8.40465C15.8589 7.84425 14.6127 7.8144 13.4486 7.88767C12.6076 7.97077 11.7231 8.20282 11.1105 8.80567C10.482 9.41167 10.3452 10.3903 10.6437 11.1814C10.8576 11.7404 11.3961 12.1039 11.9529 12.2962C12.6701 12.5494 13.4234 12.6277 14.1769 12.706C14.8642 12.7774 15.5517 12.8489 16.2123 13.0531C16.4822 13.1425 16.7964 13.2793 16.8791 13.573C16.9554 13.9207 16.8717 14.3248 16.5894 14.5664C15.6927 15.2761 13.1984 15.1674 12.3124 14.6088C11.9542 14.3708 11.7999 13.9495 11.7371 13.5481C11.7301 13.423 11.6294 13.3082 11.4936 13.3177C11.1534 13.3137 10.8133 13.3146 10.4732 13.3173C10.3545 13.3073 10.2312 13.3918 10.2246 13.5129C10.1547 15.3517 11.8435 16.1533 13.4279 16.3298C14.3331 16.416 15.2581 16.411 16.1495 16.2168C16.8195 16.0642 17.4914 15.7833 17.9526 15.2672C18.5214 14.64 18.6333 13.7062 18.3782 12.9249C18.1832 12.3419 17.6259 11.968 17.0562 11.7756C16.2814 11.5099 15.3633 11.3671 14.6616 11.3003C13.6416 11.2032 12.4296 11.2429 12.141 10.5727C12.0258 10.2217 12.1238 9.786 12.4463 9.57015C13.2996 8.99137 15.0362 9.06825 15.9198 9.50062C16.3256 9.7038 16.5607 10.1211 16.6578 10.5424C16.6758 10.6661 16.759 10.7953 16.9023 10.7899C17.2401 10.7966 17.5779 10.7917 17.9156 10.7921C18.0316 10.8002 18.1587 10.7347 18.1813 10.6159C18.167 9.73545 17.7174 8.8341 16.9064 8.40465Z" fill="#8CC84B"/>
</svg>
