<svg width="24" height="24" viewBox="0 0 24 24" fill="none" xmlns="http://www.w3.org/2000/svg">
<path d="M22.1303 14.0798C22.067 13.8954 21.9528 13.7328 21.801 13.6105C21.6492 13.4883 21.4659 13.4115 21.2723 13.389C21.0436 13.3615 20.8118 13.3744 20.5875 13.4272C20.2407 13.5039 19.8879 13.5503 19.533 13.566C20.482 11.9651 21.2067 10.2415 21.687 8.4435C22.4018 5.67675 22.02 4.41675 21.5738 3.846C20.9812 3.09626 20.2228 2.4942 19.3581 2.08713C18.4935 1.68006 17.5462 1.47908 16.5908 1.5C15.7143 1.49179 14.8415 1.61413 14.001 1.863C13.5005 1.77718 12.9939 1.73103 12.486 1.725C11.563 1.68995 10.6486 1.91529 9.84754 2.37525C9.24001 2.16984 8.61702 2.01334 7.98454 1.90725C7.24723 1.73037 6.4823 1.70054 5.73345 1.81945C4.98461 1.93835 4.26654 2.20368 3.62029 2.60025C2.31979 3.51825 1.71679 5.11425 1.82854 7.344C2.02863 9.00743 2.38162 10.6489 2.88304 12.2475C3.17182 13.2461 3.55192 14.2159 4.01854 15.1448C4.36315 15.9921 5.01825 16.6759 5.85004 17.0565C6.15494 17.157 6.48115 17.1741 6.79487 17.106C7.1086 17.038 7.39842 16.8873 7.63429 16.6695C7.74135 16.7963 7.86794 16.9051 8.00929 16.992C8.22838 17.128 8.46721 17.2292 8.71729 17.292C9.53587 17.52 10.4072 17.4672 11.1923 17.142C11.1968 17.2703 11.2005 17.3933 11.2028 17.4998C11.2073 17.6715 11.2125 17.8403 11.2185 17.9985C11.2096 18.8351 11.321 19.6686 11.5493 20.4735C11.5613 20.5058 11.577 20.5538 11.5935 20.6055C11.7253 21.0981 11.9812 21.5487 12.3368 21.9142C12.7631 22.3057 13.3257 22.5149 13.9043 22.497C14.1507 22.4954 14.3963 22.468 14.637 22.4152C15.0934 22.358 15.5336 22.2099 15.9318 21.9797C16.3299 21.7495 16.6779 21.4419 16.9553 21.075C17.5635 20.2088 17.8598 18.9045 17.913 16.8488C17.9198 16.7903 17.9265 16.7348 17.9325 16.6823L17.9453 16.5735L18.0885 16.5863H18.1253C18.9363 16.6206 19.7453 16.4804 20.4975 16.1753C20.9708 15.9555 22.488 15.1545 22.1303 14.0753" fill="black"/>
<path d="M20.7667 14.2898C18.3945 14.7788 18.2317 13.9763 18.2317 13.9763C20.736 10.26 21.783 5.5425 20.8792 4.38825C18.4148 1.23825 14.148 2.7285 14.0767 2.76675L14.0535 2.77125C13.5324 2.66666 13.0025 2.61141 12.471 2.60625C11.5747 2.56128 10.6901 2.8261 9.966 3.35625C9.966 3.35625 2.355 0.2205 2.709 7.29975C2.784 8.80575 4.8675 18.6953 7.35225 15.708C8.2605 14.616 9.138 13.692 9.138 13.692C9.57994 13.9903 10.1117 14.126 10.6425 14.076L10.6852 14.04C10.6727 14.1819 10.6785 14.3248 10.7025 14.4653C10.062 15.1808 10.2525 15.306 8.97075 15.5693C7.67625 15.8363 8.43675 16.311 8.93325 16.4355C9.46077 16.6061 10.0287 16.6058 10.556 16.4345C11.0833 16.2631 11.543 15.9296 11.8695 15.4815L11.832 15.6315C12.0825 15.8325 12.2587 16.938 12.2295 17.9408C12.1477 18.6865 12.1985 19.4409 12.3795 20.169C12.5775 20.7068 12.774 21.9158 14.4562 21.5558C15.0545 21.4967 15.6108 21.2223 16.0219 20.7838C16.4331 20.3452 16.6709 19.7723 16.6912 19.1715C16.7662 18.246 16.926 18.3825 16.9357 17.5553L17.0662 17.1638C17.2162 15.909 17.0902 15.504 17.9557 15.6923L18.1665 15.711C18.8361 15.7391 19.5042 15.6267 20.1277 15.381C21.1822 14.892 21.807 14.0745 20.7675 14.2898" fill="#336791"/>
<path d="M10.4116 7.97325C10.2395 7.93705 10.0602 7.96366 9.90605 8.04825C9.88597 8.06271 9.86899 8.08104 9.85611 8.10216C9.84323 8.12329 9.83471 8.14678 9.83105 8.17125C9.83106 8.25774 9.86221 8.34134 9.91881 8.40675C10.0194 8.54495 10.1697 8.63877 10.3381 8.6685C10.3604 8.67159 10.383 8.6731 10.4056 8.673C10.517 8.67445 10.6262 8.64163 10.7183 8.57899C10.8105 8.51634 10.8812 8.42689 10.9208 8.32275C10.9471 8.13675 10.6763 8.01225 10.4138 7.9755M17.4953 7.9815C17.4751 7.83525 17.2148 7.794 16.9703 7.8315C16.7258 7.869 16.4851 7.977 16.5053 8.12325C16.5434 8.215 16.608 8.29332 16.6908 8.34822C16.7737 8.40312 16.8709 8.43211 16.9703 8.4315C16.9911 8.43146 17.0119 8.42996 17.0326 8.427C17.1626 8.40416 17.2815 8.33904 17.3708 8.24175C17.4455 8.17618 17.4911 8.08366 17.4976 7.9845" fill="white"/>
<path d="M21.5558 14.2342C21.4651 13.9605 21.1741 13.8727 20.6903 13.9725C19.2541 14.2725 18.7403 14.0632 18.5708 13.9395C19.7081 12.1936 20.562 10.2786 21.1006 8.26575C21.3186 7.46954 21.4444 6.65093 21.4756 5.826C21.5334 5.24898 21.3992 4.669 21.0938 4.176C20.5533 3.49571 19.8621 2.95023 19.0748 2.58256C18.2876 2.21489 17.4257 2.03506 16.5571 2.05725C15.6648 2.04329 14.7768 2.18308 13.9321 2.4705C13.4489 2.35128 12.9537 2.28762 12.4561 2.28075C11.5608 2.24141 10.6759 2.48521 9.92706 2.9775C9.26051 2.7338 8.57246 2.5535 7.87206 2.439C6.53317 2.11499 5.12053 2.33193 3.94056 3.04275C2.81556 3.84075 2.29056 5.26725 2.39481 7.2825C2.59181 8.89764 2.93651 10.4913 3.42456 12.0435C4.22706 14.6722 5.09931 16.161 6.01731 16.4685C6.13598 16.5085 6.26033 16.529 6.38556 16.5292C6.61859 16.5148 6.84528 16.4475 7.0484 16.3323C7.25152 16.2172 7.42573 16.0573 7.55781 15.8647C8.07881 15.2397 8.61756 14.6302 9.17406 14.0362C9.53181 14.2299 9.92995 14.337 10.3366 14.349V14.3805C10.2666 14.4635 10.1983 14.548 10.1318 14.634C9.85055 14.9902 9.79281 15.0645 8.88831 15.2512C8.63106 15.3045 7.94781 15.4455 7.93806 15.9262C7.92756 16.4512 8.74581 16.6695 8.83806 16.6927C9.14415 16.7715 9.45876 16.8123 9.77481 16.8142C10.466 16.827 11.1363 16.5766 11.6498 16.1137C11.5731 17.5411 11.6691 18.9724 11.9356 20.3767C12.0587 20.8263 12.3252 21.2234 12.6946 21.5077C13.0641 21.792 13.5162 21.9479 13.9823 21.9517C14.2136 21.951 14.4441 21.9259 14.6701 21.8767C15.2871 21.8235 15.8647 21.5514 16.2987 21.1097C16.7328 20.6679 16.9946 20.0856 17.0371 19.4677C17.1698 18.6982 17.3978 16.8615 17.5051 15.876C17.7761 15.9505 18.0565 15.9851 18.3376 15.9787C18.9848 15.9834 19.6266 15.8611 20.2268 15.6187C20.7608 15.3705 21.7268 14.763 21.5491 14.2342H21.5558ZM18.0383 7.575C18.0287 7.85344 17.9996 8.13087 17.9513 8.40525C17.8955 8.72768 17.8605 9.05334 17.8463 9.38025C17.8438 9.74911 17.8688 10.1176 17.9213 10.4827C18.0833 11.2301 18.0236 12.0084 17.7496 12.7222C17.6913 12.619 17.6395 12.5123 17.5943 12.4028C17.5508 12.297 17.4556 12.1267 17.3251 11.892C16.8151 10.977 15.6196 8.8335 16.2316 7.959C16.4138 7.69875 16.8766 7.434 18.0376 7.575H18.0383ZM16.6306 2.64825C17.3983 2.63255 18.1591 2.79521 18.8533 3.12343C19.5475 3.45165 20.156 3.93647 20.6311 4.53975C21.3623 5.4735 20.5561 9.72375 18.2273 13.3897L18.1568 13.3005L18.1276 13.2637C18.5902 12.3895 18.7248 11.3786 18.5071 10.4137C18.4569 10.0781 18.4318 9.73914 18.4321 9.39975C18.4456 9.09648 18.4785 8.79437 18.5303 8.49525C18.5978 8.12594 18.6287 7.75087 18.6226 7.3755C18.6348 7.32394 18.6381 7.27067 18.6323 7.218C18.3838 6.2137 17.8912 5.28627 17.1983 4.518C16.5757 3.78431 15.7969 3.19905 14.9191 2.805C15.4813 2.68777 16.0548 2.63393 16.6291 2.6445L16.6306 2.64825ZM7.10931 15.4905C6.63906 16.056 6.31356 15.948 6.20931 15.912C5.51331 15.6795 4.70481 14.208 3.99306 11.874C3.52047 10.3674 3.18412 8.82148 2.98806 7.25475C2.89806 5.45475 3.33456 4.19925 4.28556 3.52425C5.83281 2.427 8.37756 3.084 9.39981 3.417C9.38481 3.43125 9.36981 3.44475 9.35556 3.45975C7.67781 5.154 7.71756 8.049 7.72206 8.226C7.72206 8.29425 7.72731 8.391 7.73556 8.526C7.79706 9.33248 7.7767 10.1431 7.67481 10.9455C7.60508 11.4049 7.6409 11.8742 7.77956 12.3177C7.91822 12.7612 8.15606 13.1673 8.47506 13.5052C8.54156 13.5742 8.61106 13.6397 8.68356 13.7017C8.39631 14.0092 7.77156 14.6902 7.10856 15.4905H7.10931ZM8.90181 13.098C8.64316 12.8245 8.45028 12.4957 8.33786 12.1365C8.22545 11.7773 8.19644 11.3971 8.25306 11.025C8.36056 10.1841 8.38242 9.33453 8.31831 8.48925C8.31381 8.418 8.31006 8.35575 8.30781 8.307C8.93606 7.8335 9.71573 7.60597 10.5001 7.66725C10.6805 7.70815 10.8438 7.80421 10.9671 7.9421C11.0905 8.07999 11.1679 8.25287 11.1886 8.43675C11.6731 10.6785 11.2523 11.6122 10.9148 12.363C10.8451 12.5175 10.7791 12.663 10.7236 12.813L10.6801 12.93C10.5723 13.2018 10.4801 13.4795 10.4041 13.7618C10.1221 13.7577 9.84385 13.6967 9.58607 13.5824C9.32829 13.4681 9.0963 13.3028 8.90406 13.0965L8.90181 13.098ZM8.98656 16.1205C8.8474 16.0863 8.71486 16.0292 8.59431 15.9517C8.72836 15.8945 8.86852 15.8527 9.01205 15.8272C10.0756 15.6082 10.2398 15.4522 10.5991 14.9985C10.6816 14.8942 10.7746 14.7735 10.9036 14.6317C11.0956 14.4165 11.1841 14.4532 11.3431 14.5192C11.4185 14.5602 11.4846 14.6163 11.5373 14.6841C11.5899 14.7519 11.628 14.8298 11.6491 14.913C11.67 14.9734 11.6775 15.0377 11.671 15.1013C11.6646 15.1649 11.6443 15.2263 11.6116 15.2812C11.3208 15.6827 10.9094 15.9808 10.4373 16.1319C9.96517 16.283 9.45714 16.2793 8.98731 16.1212L8.98656 16.1205ZM14.5546 21.3C14.3441 21.3732 14.1205 21.4011 13.8985 21.3821C13.6765 21.363 13.461 21.2973 13.2661 21.1893C13.0711 21.0813 12.9012 20.9334 12.7673 20.7553C12.6334 20.5771 12.5386 20.3728 12.4891 20.1555C12.2249 18.4558 12.1495 16.7321 12.2641 15.0157C12.2648 14.9843 12.2605 14.9529 12.2513 14.9227C12.2434 14.8645 12.2314 14.8068 12.2153 14.7502C12.1709 14.5815 12.0899 14.4247 11.9782 14.2907C11.8665 14.1567 11.7268 14.0488 11.5688 13.9747C11.3847 13.8834 11.1751 13.857 10.9741 13.8997C11.0451 13.6396 11.1307 13.3837 11.2306 13.1332L11.2741 13.0155C11.3236 12.8827 11.3851 12.7455 11.4503 12.6C11.8036 11.8147 12.2881 10.7385 11.7623 8.3085C11.729 8.1018 11.6538 7.9041 11.5412 7.7276C11.4286 7.5511 11.281 7.39954 11.1076 7.28226C10.9341 7.16497 10.7385 7.08446 10.5328 7.04567C10.327 7.00689 10.1155 7.01066 9.91131 7.05675C9.41731 7.12083 8.93834 7.27084 8.49606 7.5C8.43756 7.53 8.38356 7.5585 8.33406 7.58625C8.39078 6.22347 8.89653 4.9177 9.77255 3.87225C10.1244 3.52791 10.5444 3.26091 11.0054 3.08835C11.4665 2.9158 11.9586 2.84151 12.4501 2.87025C13.2803 2.87746 14.0989 3.06677 14.8481 3.42482C15.5972 3.78287 16.2587 4.30095 16.7858 4.9425C17.3002 5.5432 17.7022 6.23171 17.9723 6.975C16.8751 6.86325 16.1288 7.08 15.7508 7.62075C14.9258 8.79675 16.2008 11.0797 16.8128 12.177C16.9253 12.378 17.0221 12.552 17.0521 12.627C17.2137 13.0043 17.4314 13.355 17.6978 13.6672C17.7556 13.7422 17.8118 13.809 17.8538 13.8705C17.5216 13.9665 16.9246 14.1877 16.9793 15.2955C16.9358 15.8505 16.6238 18.4492 16.4648 19.368C16.2556 20.5807 15.8093 21.033 14.5538 21.3022L14.5546 21.3ZM19.9861 15.084C19.5243 15.2672 19.0343 15.3687 18.5378 15.384C18.2075 15.4327 17.8701 15.3893 17.5628 15.2587C17.5291 14.5695 17.7878 14.4975 18.0578 14.421C18.1006 14.409 18.1418 14.397 18.1823 14.3835C18.2088 14.4049 18.2363 14.4249 18.2648 14.4435C18.7441 14.76 19.5998 14.7937 20.8073 14.5447H20.8208C20.5712 14.7667 20.2889 14.9488 19.9838 15.0847L19.9861 15.084Z" fill="white"/>
</svg>
