<svg width="24" height="24" viewBox="0 0 24 24" fill="none" xmlns="http://www.w3.org/2000/svg">
<path d="M12 22.5C17.799 22.5 22.5 17.799 22.5 12C22.5 6.20101 17.799 1.5 12 1.5C6.20101 1.5 1.5 6.20101 1.5 12C1.5 17.799 6.20101 22.5 12 22.5Z" fill="#8892BF"/>
<path d="M10.8294 7.5H12.0894L11.7333 9.39315H12.8655C13.4864 9.40643 13.9489 9.54517 14.2533 9.80947C14.5638 10.0737 14.6551 10.5761 14.5273 11.3161L13.9155 14.6167H12.6372L13.2216 11.4647C13.2824 11.1343 13.2642 10.8997 13.1668 10.761C13.0695 10.6222 12.8595 10.5529 12.5368 10.5529L11.5233 10.543L10.7745 14.6167H9.51453L10.8294 7.5Z" fill="white"/>
<path fill-rule="evenodd" clip-rule="evenodd" d="M5.05569 9.39323H7.5027C8.2209 9.39975 8.7414 9.62453 9.06405 10.0672C9.3867 10.5099 9.4932 11.1145 9.38363 11.8811C9.3411 12.2314 9.24668 12.5749 9.10057 12.9119C8.96055 13.2489 8.76585 13.5528 8.51625 13.8238C8.21182 14.1674 7.88618 14.3854 7.53923 14.478C7.19227 14.5706 6.83307 14.6168 6.46181 14.6168H5.36613L5.01917 16.5H3.75L5.05569 9.39323ZM5.57614 13.4967L6.12215 10.5331H6.30659C6.37361 10.5331 6.44355 10.5297 6.5166 10.5232C7.00363 10.5166 7.4083 10.5662 7.731 10.6718C8.05965 10.7775 8.16922 11.1773 8.05965 11.8712C7.92585 12.6972 7.66395 13.1795 7.27444 13.3183C6.88492 13.4505 6.3979 13.5132 5.81353 13.5066H5.6857C5.64918 13.5066 5.61266 13.5032 5.57614 13.4967Z" fill="white"/>
<path fill-rule="evenodd" clip-rule="evenodd" d="M18.3274 9.39323H15.8804L14.5747 16.5H15.8439L16.1909 14.6168H17.2866C17.6578 14.6168 18.017 14.5706 18.3639 14.478C18.711 14.3854 19.0365 14.1674 19.341 13.8238C19.5906 13.5528 19.7853 13.2489 19.9253 12.9119C20.0714 12.5749 20.1658 12.2314 20.2083 11.8811C20.3179 11.1145 20.2115 10.5099 19.8888 10.0672C19.5661 9.62453 19.0457 9.39975 18.3274 9.39323ZM16.9469 10.5331L16.4009 13.4967C16.4374 13.5032 16.4739 13.5066 16.5105 13.5066H16.6383C17.2227 13.5132 17.7096 13.4505 18.0992 13.3183C18.4887 13.1795 18.7506 12.6972 18.8844 11.8712C18.994 11.1773 18.8844 10.7775 18.5557 10.6718C18.2331 10.5662 17.8284 10.5166 17.3413 10.5232C17.2683 10.5297 17.1984 10.5331 17.1313 10.5331H16.9469Z" fill="white"/>
</svg>
