<svg width="24" height="24" viewBox="0 0 24 24" fill="none" xmlns="http://www.w3.org/2000/svg">
<g clip-path="url(#clip0_271_369)">
<path d="M21.9428 3.94286H2.0571C1.01565 3.94286 0.171387 4.78712 0.171387 5.82857V18.1714C0.171387 19.2129 1.01565 20.0571 2.0571 20.0571H21.9428C22.9843 20.0571 23.8285 19.2129 23.8285 18.1714V5.82857C23.8285 4.78712 22.9843 3.94286 21.9428 3.94286Z" fill="white" stroke="#D9D9D9" stroke-width="11.4286"/>
<path fill-rule="evenodd" clip-rule="evenodd" d="M12.8952 9.35445L11.676 9.61611V8.62766L12.8952 8.37086V9.35445ZM15.4305 9.90199C14.9545 9.90199 14.6485 10.1248 14.4785 10.2799L14.4154 9.97951H13.3468V15.6291L14.5611 15.3723L14.566 14.0011C14.7408 14.1271 14.9982 14.3063 15.4257 14.3063C16.2951 14.3063 17.0868 13.6086 17.0868 12.0727C17.082 10.6675 16.2805 9.90199 15.4305 9.90199ZM15.1391 13.2404C14.8525 13.2404 14.6825 13.1386 14.5659 13.0126L14.5611 11.215C14.6874 11.0745 14.8622 10.9776 15.1391 10.9776C15.5811 10.9776 15.8871 11.4718 15.8871 12.1066C15.8871 12.7558 15.5859 13.2404 15.1391 13.2404ZM20.9143 12.1211C20.9143 10.8807 20.312 9.90199 19.1609 9.90199C18.0049 9.90199 17.3055 10.8807 17.3055 12.1114C17.3055 13.5698 18.1312 14.3063 19.3163 14.3063C19.8943 14.3063 20.3314 14.1755 20.6617 13.9914V13.0223C20.3314 13.1871 19.9526 13.2888 19.4717 13.2888C19.0006 13.2888 18.5829 13.1241 18.5295 12.5523H20.9046C20.9046 12.5257 20.9064 12.4651 20.9083 12.3952C20.9111 12.3003 20.9143 12.1881 20.9143 12.1211ZM18.5149 11.6608C18.5149 11.1133 18.85 10.8856 19.156 10.8856C19.4523 10.8856 19.768 11.1133 19.768 11.6608H18.5149ZM11.6759 9.98434H12.8951V14.224H11.6759V9.98434ZM10.2918 9.98434L10.3695 10.3429C10.6561 9.8196 11.2243 9.92619 11.3798 9.98434V11.0988C11.2292 11.0455 10.7435 10.9776 10.4569 11.3507V14.224H9.24262V9.98434H10.2918ZM7.94083 8.9329L6.75568 9.18487L6.75084 13.0659C6.75084 13.783 7.28998 14.3112 8.00882 14.3112C8.40711 14.3112 8.69854 14.2385 8.85883 14.1513V13.1677C8.70341 13.2307 7.93596 13.4536 7.93596 12.7365V11.0164H8.85883V9.98434H7.93596L7.94083 8.9329ZM5.07033 10.9534C4.81287 10.9534 4.65746 11.0261 4.65746 11.2151C4.65746 11.4214 4.92495 11.5121 5.25681 11.6247C5.7978 11.8083 6.50988 12.0499 6.5129 12.9448C6.5129 13.8121 5.8183 14.3112 4.80804 14.3112C4.3903 14.3112 3.93372 14.2288 3.48201 14.035V12.8818C3.89001 13.1047 4.40487 13.2695 4.80804 13.2695C5.08003 13.2695 5.27433 13.1968 5.27433 12.9739C5.27433 12.7454 4.98434 12.6409 4.63428 12.5148C4.10114 12.3227 3.42859 12.0804 3.42859 11.2732C3.42859 10.4156 4.0843 9.90199 5.07033 9.90199C5.47346 9.90199 5.87176 9.96497 6.27489 10.1249V11.2635C5.90573 11.0649 5.43945 10.9534 5.07033 10.9534Z" fill="#6461FC"/>
</g>
<defs>
<clipPath id="clip0_271_369">
<rect width="24" height="24" fill="white"/>
</clipPath>
</defs>
</svg>
