<svg width="112" height="112" viewBox="0 0 112 112" fill="none" xmlns="http://www.w3.org/2000/svg">
<path d="M53.6586 8.71817C55.4936 8.84545 58.3411 8.84545 59.9863 8.71817C61.6314 8.5909 60.1128 8.52727 56.6326 8.52727C53.1524 8.52727 51.8235 8.5909 53.6586 8.71817Z" fill="#2087C5"/>
<path d="M45.5592 9.54546C44.8632 9.99091 45.2428 10.0545 46.8247 9.8C49.5456 9.29091 50.0519 8.90909 48.027 8.90909C47.2044 8.90909 46.0654 9.22727 45.5592 9.54546Z" fill="#2087C5"/>
<path d="M68.6553 10.1182C71.0599 10.8182 73.148 11.2636 73.2745 11.1364C73.5909 10.8182 69.3514 9.67273 66.3774 9.22727C65.2384 9.03636 66.1875 9.48182 68.6553 10.1182Z" fill="#2087C5"/>
<path d="M76.9444 12.9818C82.1964 15.4636 87.3218 18.9636 91.6246 23.1636C97.0664 28.4455 97.193 28.6364 95.2314 32.4545L93.5862 35.7L90.6122 33.1545C88.967 31.8182 86.7523 30.2273 85.6766 29.6545L83.6517 28.7L83.5885 32.7727C83.5885 35 83.0823 37.9909 82.5128 39.3909C81.5003 41.8727 81.5636 42 83.2721 44.2273L84.9806 46.5182L86.4359 44.7364C89.1568 41.2364 90.6122 39.7727 88.7772 42.3818C87.828 43.7818 85.6133 46.5182 83.9049 48.4273C81.88 50.5909 81.3738 50.9727 82.5128 49.4455L84.2212 47.0909L82.8924 45.1818C81.5636 43.2727 80.3613 42.7 80.3613 43.9091C80.3613 45.1818 71.819 53.5818 67.6427 56.3818C63.4664 59.1818 63.3399 59.3091 64.0359 60.9636C64.4789 61.9182 64.8585 62.7455 64.9218 62.8727C64.9851 63 65.6811 62.7455 66.4404 62.3636C67.4529 61.8545 67.706 61.7909 67.3896 62.3C66.8834 63.1273 59.48 67.0091 59.1003 66.6273C58.9738 66.5 59.9862 65.8636 61.3783 65.2273C64.0359 64.0182 64.5421 62.8091 63.0868 60.8364C62.2642 59.6909 62.0743 59.6909 58.0246 61.3455C55.7467 62.2364 53.0258 63.1909 51.95 63.3818C49.6088 63.8909 48.28 66.1182 49.2924 68.0273C49.7354 68.7273 50.4314 69.3636 50.9376 69.3636C51.5071 69.3636 51.6969 69.7455 51.5071 70.3182C51.0009 71.6545 51.8235 71.5273 56.7591 69.6818C61.5048 67.9 67.3896 64.7182 72.7681 61.2182C77.3873 58.1 87.8913 47.8545 91.8145 42.5727C95.358 37.7364 99.3444 30.4182 99.3444 28.7C99.3444 28.0636 98.332 26.2818 97.193 24.7545C95.9907 23.2273 95.0416 21.8909 95.1681 21.8273C95.2947 21.7 98.9015 23.1 103.204 25.0091L111.051 28.3818L111.367 40.7273L111.747 53.1364L111.873 40.6636C111.936 31.1182 111.81 28.0636 111.24 27.8091C110.798 27.6182 106.748 25.8364 102.255 23.9273C94.7252 20.6182 94.0291 20.4273 92.9534 21.3818C91.941 22.2727 91.5613 22.1455 87.9546 19.2182C83.9681 15.9727 78.0834 12.5364 75.2992 11.8364C74.4133 11.6455 75.1726 12.0909 76.9444 12.9818ZM92.3839 37.4818C92.0676 38.1818 91.4348 38.9455 91.0551 39.2C90.6755 39.3909 90.8653 38.8818 91.4348 37.9273C92.7003 36.0182 93.3331 35.7 92.3839 37.4818ZM77.5139 54.8545C74.2235 57.8455 72.1354 59.3727 72.1354 58.9909C72.1354 58.6727 79.7919 52.1818 80.1715 52.1818C80.3613 52.1818 79.1591 53.3909 77.5139 54.8545ZM71.1862 59.8182C70.9964 60.1364 70.1738 60.7727 69.4145 61.1545C68.2122 61.7273 68.2122 61.6636 69.6043 60.5182C71.376 59.0545 71.7557 58.8636 71.1862 59.8182ZM56.3161 68.0909C55.8099 68.4091 55.1139 68.7273 54.7342 68.7273C54.4178 68.7273 54.5444 68.4091 55.0506 68.0909C55.5568 67.7727 56.3161 67.4545 56.6325 67.4545C57.0122 67.4545 56.8224 67.7727 56.3161 68.0909Z" fill="#2087C5"/>
<path d="M34.1693 13.5545C25.3738 17.2455 16.3885 26.2818 11.1365 36.7182C8.60542 41.8091 9.17491 41.6818 11.8958 36.5273C15.1229 30.4182 18.2235 26.2818 23.0958 21.7636C29.4868 15.7182 34.6755 13.1727 37.0167 14.8909C38.0924 15.6545 37.9026 15.8455 34.802 16.8636L31.3851 18.0091L38.5986 20.1091C46.8879 22.5909 46.1286 22.8455 49.6721 16.3545L52.0133 12.0273L50.2416 12.4727C49.2292 12.7909 47.9636 12.9182 47.4574 12.8545C41.7625 11.9 37.4597 12.1545 34.1693 13.5545Z" fill="#2087C5"/>
<path d="M52.3931 14.4455C51.7604 14.5727 51.2542 15.0182 51.2542 15.3364C51.2542 16.2273 53.4056 16.0364 54.7977 14.9545C55.9999 14.0636 55.9999 14.0636 54.7344 14.0636C54.0383 14.1273 52.9626 14.2545 52.3931 14.4455Z" fill="#2087C5"/>
<path d="M57.2655 14.8909L55.3672 15.7182L58.2146 16.5455C61.2519 17.3727 64.0994 19.0909 66.1242 21.3818C66.9468 22.2727 68.7186 23.0364 71.5028 23.5455C73.7807 23.9909 76.9446 24.8182 78.6531 25.4545C80.2983 26.0909 81.6271 26.4091 81.6271 26.1545C81.6271 24.8182 77.5141 20.2364 74.983 18.7727C69.2881 15.4 60.5559 13.4909 57.2655 14.8909Z" fill="#2087C5"/>
<path d="M49.9253 17.6273C49.1027 18.6455 49.166 18.7091 50.1785 17.8818C50.7479 17.4364 51.2542 16.9273 51.2542 16.8C51.2542 16.2909 50.7479 16.6091 49.9253 17.6273Z" fill="#2087C5"/>
<path d="M52.7728 17.4364C51.8236 18.1364 52.2033 18.3273 55.3671 18.6455C57.7083 18.9 59.8598 19.6 61.4417 20.6182C64.0993 22.4 65.4281 22.7182 65.0485 21.4455C64.6688 20.3 58.9106 17.3727 56.1897 16.9909C54.7976 16.8 53.4688 16.9909 52.7728 17.4364Z" fill="#2087C5"/>
<path d="M30.3727 22.7818C26.323 25.8364 21.1343 31.0545 21.7038 31.5636C22.3998 32.3273 26.5761 29.6545 28.0314 27.4909C28.9806 26.1545 31.0055 24.0545 32.5874 22.9091C35.245 20.9364 36.1309 19.7273 34.9919 19.7273C34.6755 19.7273 32.6507 21.1273 30.3727 22.7818Z" fill="#2087C5"/>
<path d="M80.6146 22.7182C81.8802 24.5 82.8926 26.1545 82.8926 26.4727C82.8926 26.7909 83.9683 27.6182 85.2338 28.3182C86.4994 29.0182 88.9672 30.6727 90.6124 32.0091C92.2576 33.2818 93.6497 34.1727 93.6497 33.8545C93.6497 32.7091 86.0564 25.0091 82.2598 22.3364L78.3367 19.5364L80.6146 22.7182Z" fill="#2087C5"/>
<path d="M33.157 23.4818C31.3853 24.8818 29.487 26.7273 28.8542 27.6182C27.905 29.1455 27.905 29.2727 28.8542 29.2727C29.8666 29.2727 37.6497 22.3364 37.5231 21.6364C37.27 20.7455 36.0678 21.2546 33.157 23.4818Z" fill="#2087C5"/>
<path d="M65.1118 24.7545C65.4914 25.4545 66.0609 27.1091 66.3773 28.4454C66.9468 30.8 67.0101 30.7364 66.8835 27.3636C66.757 24.5636 66.5671 23.8636 65.618 23.6727C64.6056 23.4818 64.5423 23.6091 65.1118 24.7545Z" fill="#2087C5"/>
<path d="M67.9592 27.3L68.0224 31.1182L71.8191 33.6C73.9072 35 76.6914 37.1636 78.0202 38.4364C79.349 39.7091 80.6778 40.6 80.9942 40.4091C81.9433 39.8364 82.8925 35.5727 82.8925 31.9455C82.8925 28.8909 82.7027 28.5091 80.9309 27.4273C79.7919 26.7273 76.8812 25.7091 74.4134 25.1364C71.9456 24.5636 69.4778 23.9273 68.9083 23.8C68.0224 23.5455 67.8959 24.1182 67.9592 27.3Z" fill="#2087C5"/>
<path d="M47.0777 25.2636C47.2043 25.9 47.7105 28.0636 48.0902 30.1636L48.8495 33.8545L50.8743 31.8818L52.9625 29.8454L54.1015 32.4545L55.2404 35.0636L57.0755 31.6909C58.0246 29.9091 59.2902 27.9364 59.7964 27.3636C60.3026 26.7909 60.7455 25.9636 60.7455 25.5818C60.7455 24.3091 59.6065 24.7545 58.4043 26.4091C57.7715 27.3 56.7591 28.7 56.1896 29.4636L55.1139 30.8636L54.3546 28.7636L53.6585 26.6636L51.8868 28.3182C50.3681 29.7818 50.115 29.8454 49.7354 28.9545C49.5455 28.3818 49.3557 27.0454 49.3557 26.0273C49.3557 24.5636 49.1026 24.1818 48.0269 24.1818C47.0777 24.1818 46.8246 24.5 47.0777 25.2636Z" fill="#2087C5"/>
<path d="M39.6746 25.7091C36.7006 26.7909 34.8022 28.4454 34.8022 30.0364C34.8022 31.8182 36.3842 32.0727 39.3582 30.9273C42.0791 29.7818 43.5345 30.2273 42.8384 32.0091C42.522 32.9 39.6113 33.8545 36.8904 33.9818C35.1819 34.0454 34.739 35.2545 36.3209 35.5091C38.0926 35.8909 42.8384 34.3636 44.0407 33.0273C44.7367 32.2636 44.9265 31.3091 44.6734 30.1636C44.2938 28.6364 44.0407 28.5091 41.8893 28.8273C40.6237 29.0182 38.9152 29.4 38.1559 29.6545C37.2068 29.9091 36.7006 29.7818 36.7006 29.3364C36.7006 28.3818 40.8135 26.6 42.6486 26.7909C45.3695 26.9818 45.7491 26.7909 44.9265 25.7727C43.9774 24.6273 42.8384 24.6273 39.6746 25.7091Z" fill="#2087C5"/>
<path d="M27.9682 30.6091C25.8167 31.4364 24.5512 36.0818 25.6902 39.0727C26.0698 40.0273 26.1964 40.0273 26.9557 39.0091C27.3987 38.3727 27.8416 37.2273 27.8416 36.4C27.8416 35.6364 28.2845 33.9182 28.7908 32.6455C29.297 31.3727 29.6766 30.2909 29.6133 30.2273C29.4868 30.1 28.7908 30.2909 27.9682 30.6091Z" fill="#2087C5"/>
<path d="M22.3998 32.4545C19.2992 33.7909 17.5907 36.4 16.0721 41.8727C15.1229 45.3091 15.0597 46.4545 15.6924 49.4455C16.4517 53.0091 17.9071 56 18.9195 56C19.2359 56 19.6156 54.7909 19.8687 53.3273C20.1218 51.8636 21.3241 48.6818 22.5263 46.2C24.5512 42.1909 24.8043 41.0455 24.8676 36.4C24.9308 33.5364 24.9941 31.1818 24.9941 31.2455C24.9941 31.2455 23.8551 31.8182 22.3998 32.4545Z" fill="#2087C5"/>
<path d="M66.4405 33.7273C65.6812 35.5727 59.923 41.4273 57.0123 43.3364L55.4937 44.2909L59.1637 51.1C61.1253 54.8545 62.9603 57.9091 63.2134 57.9091C63.4665 57.9091 65.3648 56.8273 67.453 55.4909C71.6925 52.7545 76.5648 48.0455 78.9061 44.4182C80.2349 42.4455 80.3615 41.8727 79.7287 41.0455C78.3999 39.4545 71.3761 33.9818 69.2247 32.9C67.1999 31.8818 67.1999 31.8818 66.4405 33.7273Z" fill="#2087C5"/>
<path d="M105.04 35.7C105.04 36.0182 105.356 36.1455 105.672 35.9546C106.052 35.7636 106.305 35.4455 106.305 35.2546C106.305 35.1273 106.052 35 105.672 35C105.356 35 105.04 35.3182 105.04 35.7Z" fill="#2087C5"/>
<path d="M42.2055 36.7182C41.3829 36.9091 41.1298 37.4818 41.2564 38.6909C41.3829 40.0273 41.7626 40.4091 43.0281 40.4091C44.357 40.4091 44.6101 40.0909 44.6101 38.5636C44.6101 36.5909 44.1039 36.2091 42.2055 36.7182ZM44.2937 38.8818C44.2937 39.6455 43.8507 40.0909 43.0281 40.0909C41.6361 40.0909 41.1931 37.8636 42.5852 37.3545C43.7242 36.9727 44.2937 37.4818 44.2937 38.8818Z" fill="#2087C5"/>
<path d="M47.331 36.7182C49.7988 37.0364 49.9887 37.9909 47.6474 38.3091C46.0022 38.5 44.7367 40.0909 46.192 40.0909C46.5717 40.0909 46.7615 39.8364 46.5084 39.5182C46.3186 39.2 46.9514 38.8182 47.9005 38.6909C48.9762 38.5636 49.7355 38.0545 49.8621 37.3545C50.0519 36.4636 49.6723 36.2727 47.6474 36.4C45.3062 36.4636 45.3062 36.4636 47.331 36.7182Z" fill="#2087C5"/>
<path d="M38.9153 38.1818C39.1684 38.6273 38.852 39.2636 38.0927 39.8364C36.574 40.9182 36.8904 42.7636 38.4723 42.1909C39.2949 41.8091 39.2949 41.6818 38.2192 41.3C37.1435 40.9182 37.2068 40.7909 38.7887 40.1545C40.6237 39.4545 40.8136 38.1818 39.2316 37.6727C38.7254 37.4818 38.5989 37.6727 38.9153 38.1818Z" fill="#2087C5"/>
<path d="M51.1276 38.2455C52.0134 39.4545 54.418 40.2818 54.418 39.3909C54.418 39.0727 53.9117 38.8182 53.279 38.8182C52.6462 38.8182 51.7603 38.4364 51.2541 37.9909C50.4948 37.3545 50.4948 37.4182 51.1276 38.2455Z" fill="#2087C5"/>
<path d="M36.3841 38.8182C36.1942 39.2 36.4473 39.2636 36.9536 39.0727C38.0925 38.6273 38.2824 38.1818 37.3965 38.1818C37.0168 38.1818 36.5739 38.4364 36.3841 38.8182Z" fill="#2087C5"/>
<path d="M94.9151 40.4727C94.1557 41.6818 93.6495 42.8273 93.8393 43.0182C94.2823 43.4636 96.8134 40.0909 96.8134 39.0727C96.8134 37.6727 96.3704 37.9909 94.9151 40.4727Z" fill="#2087C5"/>
<path d="M27.3355 39.9C26.5129 41.4273 27.2722 42.8273 29.9298 44.4182C32.2711 45.8818 36.8903 47.2818 36.3841 46.3909C36.131 46.0727 35.6247 45.8182 35.1185 45.8182C33.9163 45.8182 30.436 42.7636 29.1072 40.5364C28.0315 38.8182 27.905 38.7545 27.3355 39.9Z" fill="#2087C5"/>
<path d="M47.9637 40.5364C48.4067 40.7273 48.9762 40.6636 49.166 40.4727C49.4191 40.2818 49.0394 40.0909 48.3434 40.1546C47.6474 40.1546 47.4575 40.3455 47.9637 40.5364Z" fill="#2087C5"/>
<path d="M95.6111 43.3364L94.1558 45.3091L95.4846 51.8C96.1806 55.3 96.9399 59.6273 97.193 61.3455L97.636 64.5273L99.4077 62.4909C101.053 60.7091 101.179 60.0727 100.863 57.7182C100.104 52.3727 98.0156 42.3182 97.5094 41.8091C97.2563 41.5546 96.4337 42.2546 95.6111 43.3364Z" fill="#2087C5"/>
<path d="M23.5389 45.9455C21.4508 50.3364 20.2485 54.1545 20.2485 56.6364C20.2485 59.4364 27.2723 63 34.8022 64.0182C37.7762 64.4 38.1559 64.3364 37.7762 63.4455C37.5864 62.8727 37.2067 59.1182 36.9536 55.1727L36.5107 47.9182L33.2203 46.8364C31.4485 46.2636 29.1073 44.9909 28.0949 43.9091C27.0824 42.8909 26.07 42 25.8802 42C25.6903 42 24.6146 43.7818 23.5389 45.9455Z" fill="#2087C5"/>
<path d="M7.71973 45.7546C7.27679 47.0909 6.96041 48.6182 7.02369 49.0636C7.02369 49.5727 7.46663 48.5546 7.97284 46.8364C8.54233 45.1818 8.79544 43.6546 8.66889 43.5273C8.54233 43.4 8.09939 44.3546 7.71973 45.7546Z" fill="#2087C5"/>
<path d="M49.9254 46.2636C47.6474 47.0273 44.0406 47.7273 41.8892 47.8546L37.9661 48.0455V53.7727C37.9661 56.8909 38.1559 60.5818 38.3457 61.8546C38.7254 64.2091 38.8519 64.2727 41.383 64.2727C43.4711 64.2727 44.1039 64.0182 44.6101 62.8091C45.3695 61.0909 47.8373 60.6455 49.2926 61.9818C50.2418 62.8727 50.748 62.8727 54.1017 61.7909C56.1898 61.1546 58.8474 60.2 59.9864 59.5636L62.0745 58.4818L58.8474 52.3091C57.0124 48.9364 55.2406 45.8182 54.861 45.5C54.2915 44.9909 52.8994 45.2455 49.9254 46.2636Z" fill="#2087C5"/>
<path d="M13.4147 47.4091C12.9717 48.8091 12.4023 52.9455 12.2124 56.6364L11.8328 63.3182L14.4904 65.1637C15.8825 66.1818 17.0847 67.1364 17.0847 67.2637C17.0847 67.3909 16.7684 67.3273 16.3254 67.0727C15.8825 66.7546 15.8192 66.8818 16.0723 67.3909C16.3887 67.8364 17.0215 68.0273 17.5277 67.8364C18.0339 67.6455 18.2237 67.7727 18.0339 68.0909C17.5277 68.9182 21.9571 71.0818 26.7661 72.3546C30.8158 73.4364 42.0791 73.8182 44.8 72.9273C47.3943 72.1 46.2554 71.3364 42.7751 71.7182C39.0418 72.1 39.1051 72.1637 38.2825 67.3909C37.8395 65.1 37.8395 65.1 34.1695 64.7182C30.183 64.2727 24.8678 62.3637 22.0836 60.3909C21.1345 59.7546 20.1853 59.1818 19.9955 59.1818C19.3627 59.1818 19.5525 65.9273 20.2486 67.7091C20.6915 68.9818 20.6282 69.2364 19.9322 68.9182C19.1729 68.6637 18.983 67.3273 18.983 63C18.983 58.9909 18.7299 57.2091 18.0972 56.7C16.6418 55.4909 15.0599 51.5455 14.6169 48.1091L14.2373 44.8637L13.4147 47.4091ZM26.5763 70.6364C27.8418 71.0182 27.9051 71.1455 26.8927 71.1455C26.1966 71.1455 25.0576 70.9546 24.3616 70.6364C22.7797 69.9364 24.4249 69.9364 26.5763 70.6364ZM31.1955 71.7182C30.7525 71.8455 29.8667 71.8455 29.2972 71.7182C28.6644 71.5273 29.0441 71.4 30.0565 71.4C31.1322 71.4 31.5751 71.5273 31.1955 71.7182Z" fill="#2087C5"/>
<path d="M107.95 53.3909C103.204 62.2364 92.8271 73.4364 83.3355 80.0545C77.5773 84.0636 68.4022 88.5818 62.8338 90.1091C58.3412 91.3818 58.0881 91.8909 60.3028 95.7727C61.1886 97.4273 62.2643 98.3818 63.2135 98.5091C65.1118 98.8273 74.0338 95.5818 74.0338 94.5636C74.0338 94.1818 73.5909 92.3364 73.148 90.4909C72.6417 88.7091 72.5152 87.1818 72.7683 87.1818C73.0847 87.1818 73.6542 88.7727 74.0971 90.6818C74.54 92.5909 75.1095 94.1818 75.4259 94.1818C76.5649 94.1818 81.3739 91.3818 85.2338 88.5818C89.5367 85.4636 90.296 84 90.9287 78.0818C91.1186 76.0455 91.5615 74.2636 91.9412 74.0091C92.3841 73.7545 92.4474 74.5818 92.131 76.4273C91.9412 77.9545 91.5615 80.2455 91.3717 81.4545L91.0553 83.6818L93.27 81.1364C96.1807 77.8273 99.0915 72.3545 100.23 67.9636C100.737 65.8636 102.192 63 103.837 60.7727L106.621 57.0818L107.001 59.5636C107.191 60.9 107.444 61.4091 107.507 60.5818C107.571 59.4364 107.95 59.1818 109.469 59.1818C111.241 59.1818 111.367 59.0545 111.367 56.6364C111.367 55.2364 111.114 54.0909 110.798 54.0909C110.418 54.0909 110.102 53.2 109.975 52.0545L109.785 50.0182L107.95 53.3909Z" fill="#2087C5"/>
<path d="M6.4541 52.8182C6.4541 54.0273 6.58066 54.5364 6.77049 53.9C6.89704 53.3273 6.89704 52.3091 6.77049 51.6727C6.58066 51.1 6.4541 51.6091 6.4541 52.8182Z" fill="#2087C5"/>
<path d="M82.4497 56.5091L80.4249 58.2909L80.235 68.9182C80.1085 74.7727 80.235 79.5454 80.4249 79.5454C80.678 79.5454 81.5006 79.0363 82.3232 78.3363C83.652 77.2545 83.7785 76.5545 84.0316 69.3L84.348 61.4727L86.9424 67.0727L89.5367 72.6727L91.3717 70.7L93.2068 68.7909L91.435 65.7363C89.6633 62.6182 84.7277 54.7273 84.5378 54.7273C84.5378 54.7909 83.5887 55.5545 82.4497 56.5091Z" fill="#2087C5"/>
<path d="M5.88462 58.8636C5.88462 60.2636 6.01118 60.7727 6.13773 59.9455C6.26429 59.1818 6.26429 58.0364 6.13773 57.4C5.9479 56.8273 5.82135 57.4636 5.88462 58.8636Z" fill="#2087C5"/>
<path d="M106.495 65.2273C106.495 66.6273 106.621 67.1363 106.748 66.3091C106.874 65.5454 106.874 64.4 106.748 63.7636C106.558 63.1909 106.431 63.8273 106.495 65.2273Z" fill="#2087C5"/>
<path d="M6.4541 65.5454C6.4541 66.7545 6.58066 67.2636 6.77049 66.6273C6.89704 66.0545 6.89704 65.0364 6.77049 64.4C6.58066 63.8273 6.4541 64.3364 6.4541 65.5454Z" fill="#2087C5"/>
<path d="M39.2314 66.6273C39.2314 71.1455 40.1173 71.8455 44.7998 70.8909C46.1919 70.6364 46.8247 70.0636 47.1411 68.8546C47.7105 66.6273 45.4959 64.9727 41.9523 64.9091C39.4213 64.9091 39.2314 65.0364 39.2314 66.6273Z" fill="#2087C5"/>
<path d="M69.2247 65.8636L67.9592 66.8182L69.3513 72.3545C71.123 79.1 71.1863 81.3909 69.8575 81.9C69.288 82.0909 68.6552 81.9636 68.4021 81.5182C67.7694 80.5 64.5422 81.9 64.5422 83.1727C64.5422 84.1273 66.7569 86.5454 67.7061 86.5454C69.3513 86.5454 72.7682 84.5727 73.7807 83.1091C75.1095 81.0727 74.7931 74.9636 73.0846 68.8545C71.9456 64.7182 71.4394 64.3364 69.2247 65.8636Z" fill="#2087C5"/>
<path d="M13.4779 69.1727C13.6678 69.8091 14.3005 72.1 14.9333 74.2636C15.8192 77.5727 16.452 78.6545 18.7299 80.5636C20.2486 81.7727 21.5141 82.6 21.5141 82.2818C21.4508 82.0273 20.9446 79.7364 20.3751 77.2545C19.3627 73.0545 19.0463 72.5455 16.2621 70.3818C13.9842 68.6636 13.2881 68.3455 13.4779 69.1727Z" fill="#2087C5"/>
<path d="M45.6857 78.2727C44.2303 83.8727 43.0281 88.8364 43.0281 89.3455C43.0281 89.9182 43.7874 90.3636 44.9897 90.4909C46.7614 90.6818 47.1411 91.0636 48.2168 93.9909C49.6721 97.9364 54.2281 103.282 57.7083 105.064C63.593 108.118 71.9456 107.8 79.4755 104.364C83.7151 102.455 85.1704 101.182 81.3106 102.836C76.3117 104.936 68.5286 104.555 65.4914 102.136C64.2891 101.118 64.2891 101.118 65.6179 101.755C67.5162 102.709 69.1614 102.645 72.1354 101.436C74.4134 100.482 74.6665 100.164 74.6665 98.1909C74.6665 96.2818 74.4767 96.0273 73.5908 96.4091C72.958 96.6636 70.4902 97.5546 68.0224 98.3818C65.175 99.3364 63.6563 100.1 63.7829 100.673C64.1625 102.136 60.6823 98.3818 59.4801 96.0909C58.8473 94.8818 58.088 92.7818 57.7083 91.5091C57.0755 89.1546 57.0755 89.1546 59.2269 88.7091C60.4292 88.5182 61.3784 88.0091 61.3784 87.6909C61.3784 87.1182 52.2665 73.3727 49.3558 69.5546C48.3433 68.2182 48.2168 68.4727 45.6857 78.2727Z" fill="#2087C5"/>
<path d="M7.02368 69.6818C7.08696 71.0182 8.73216 75.9182 8.79543 74.7727C8.79543 74.3909 8.41577 72.8636 7.97283 71.2727C7.46662 69.6818 7.02368 68.9818 7.02368 69.6818Z" fill="#2087C5"/>
<path d="M104.913 72.6727C104.343 74.8364 103.964 76.7454 104.09 76.8727C104.47 77.2545 106.432 70.0636 106.178 69.3C106.052 68.9182 105.482 70.4454 104.913 72.6727Z" fill="#2087C5"/>
<path d="M25.9434 75.3454C26.0066 77.7636 26.8292 78.9091 28.8541 79.2909C31.4484 79.8 31.7016 80.1182 32.9038 84.9545C33.7897 88.3909 34.0428 88.7727 35.9411 89.3454C37.0801 89.6636 38.0925 89.7909 38.2823 89.6636C38.4089 89.4727 38.1558 87.8182 37.6496 85.9091C36.3208 81.0091 36.384 80.8182 38.9784 80.8182C41.2564 80.8182 41.2564 80.7545 40.8767 78.8454C40.6869 77.7636 40.497 76.6182 40.497 76.3C40.497 75.9818 38.4089 75.7273 35.9411 75.7273C33.41 75.6636 30.1196 75.4091 28.6643 75.1545C26.766 74.7727 25.9434 74.8364 25.9434 75.3454Z" fill="#2087C5"/>
<path d="M9.49146 77.8909C9.49146 78.2091 10.6937 80.7545 12.2124 83.5545C15.3129 89.4727 21.7672 96.7273 27.5254 100.927C31.5751 103.791 38.409 107.291 38.9785 106.718C39.1683 106.591 38.0926 105.955 36.5739 105.318C26.6395 101.373 17.7174 92.8455 11.896 81.8364C10.5672 79.3545 9.49146 77.5727 9.49146 77.8909Z" fill="#2087C5"/>
<path d="M93.3964 82.2182C91.3715 84.7 89.3467 87.7545 88.8405 89.0273L87.9546 91.3182L90.7388 88.2C93.0167 85.6545 98.0789 77.5727 97.3196 77.6364C97.193 77.7 95.4845 79.7364 93.3964 82.2182Z" fill="#2087C5"/>
<path d="M102.319 79.8636C100.8 83.0454 101.053 83.5545 102.572 80.6273C103.268 79.2273 103.774 78.0182 103.647 77.8909C103.458 77.7636 102.888 78.6545 102.319 79.8636Z" fill="#2087C5"/>
<path d="M17.7173 81.7727C17.7173 83.4909 24.8676 91.2545 30.1195 95.3273C33.5998 98 34.106 97.8727 31.8913 94.9454C30.9421 93.6727 29.4235 91.6363 28.6009 90.4909C27.7783 89.4091 27.3354 88.4545 27.5885 88.4545C27.9049 88.4545 29.7399 90.6182 31.6382 93.2273C34.3591 97.0454 35.5614 98.1273 37.3331 98.6363C42.3953 99.9727 45.3693 100.545 47.8371 100.545H50.4314L48.4698 96.4727C46.7614 92.9091 46.2551 92.3363 44.7365 92.3363C38.0292 92.1454 26.8924 88.1363 20.8179 83.6182C19.1094 82.4091 17.7173 81.5182 17.7173 81.7727Z" fill="#2087C5"/>
<path d="M98.6486 86.6727C97.5096 88.5182 94.8519 91.9545 92.7005 94.2454C89.9796 97.2364 90.2327 97.0454 93.6497 93.5454C96.244 90.8091 99.0282 87.4364 99.8508 85.9727C101.876 82.2818 101.116 82.7273 98.6486 86.6727Z" fill="#2087C5"/>
<path d="M85.1072 89.7909C83.7151 90.8727 80.9309 92.5909 78.9694 93.6727C75.2993 95.6454 74.4767 97.0454 75.8688 99.1454C77.0711 101.118 88.6507 90.8727 87.8281 88.4545C87.7016 88.1364 86.4993 88.7727 85.1072 89.7909Z" fill="#2087C5"/>
<path d="M85.9932 100.355C85.1706 101.373 85.2339 101.436 86.2463 100.609C87.2588 99.7818 87.5751 99.2727 87.0689 99.2727C86.9424 99.2727 86.4362 99.7818 85.9932 100.355Z" fill="#2087C5"/>
<path d="M42.0789 101.5C46.2552 103.027 53.1524 104.491 53.7219 103.982C53.8484 103.855 53.2789 103.218 52.4563 102.518C51.3806 101.691 49.6089 101.245 45.8755 100.991C43.0914 100.8 40.1173 100.482 39.2315 100.291C38.3456 100.036 39.6744 100.609 42.0789 101.5Z" fill="#2087C5"/>
<path d="M43.9773 108.5C45.3694 109.009 47.2045 109.327 48.0903 109.327C48.9762 109.327 48.0903 108.945 46.192 108.5C41.8259 107.355 40.6237 107.418 43.9773 108.5Z" fill="#2087C5"/>
<path d="M53.6586 109.9C55.4936 110.027 58.3411 110.027 59.9863 109.9C61.6314 109.773 60.1128 109.709 56.6326 109.709C53.1524 109.709 51.8235 109.773 53.6586 109.9Z" fill="#2087C5"/>
</svg>
